<svg xmlns="http://www.w3.org/2000/svg" viewBox="0 0 607 171" style="enable-background:new 0 0 607 171" xml:space="preserve"><path d="M605.3 14.2c-.4 0-.8-.6-1.2-1-.2-.2-.4-.6-.6-.8 0-.4-.4-.8-.4-1.2 0-1.4-.8-2.5-2.3-2.9-.8-.4-1.2-.2-1.7.6-.2.4-.2.6-.4 1-.4.2-.6.4-1 .8 0-.4-.2-.8-.2-1.2-.2-.8-.6-1.2-1.4-1-.4.2-.8.2-.8 0-.2-.2-.2-.6-.2-.8v-.8c-.2-.6-.4-1.2-.6-1.7 0-.2-.4-.4-.6-.4-.4.2-.6.2-1 .4-.4 0-.8.2-1 .2-.6-.8-1.2-1.7-1.7-2.5-.2-.4-.4-.8-.8-.8-1.2-.4-2.3-1-3.5-1.4-.6-.4-1.7-.4-2.3-.4s-1 .4-1.4-.2c-.2 0-.4 0-.6.2-.4.4-1 .8-1.4 1.2-1.6 2.3-3.3 4.7-5 7-.2.2-.6.2-.8.4h-1c-7 0-14 .2-21 .2H530.7c-1 .2-1.9.4-2.9.6-2.3 0-4.3.8-6.2 2.1-1.7.8-2.9 2.3-4.3 3.5-2.5 2.3-5.2 4.5-7.6 6.8-.8.8-1 1.7-.4 2.5s.6.8 0 1.7c-.4.4-.8.8-.8 1 .4 1 .2 1.7-.2 2.5v.4c.2 1.7.6 3.3.2 5-.4 2.5 1.9 4.1 3.7 4.7.8.4 1.9.6 2.7 1 1.6 1 3.3 1.4 5.2 1.4 1 .2 1.9.4 2.7.4.2 0 .4.2.4.2 1 .4 2.1 1 3.1 1.2 2.3.2 4.3.4 6.6.4 3.1 0 6.2.2 9.5-.2 1.4-.2 2.9-.4 4.3-.4 2.5 0 5-.2 7.6-.2.6 0 .8.2.4.8-1.2 2.5-2.5 5-4.1 7.4-2.3 3.9-4.7 7.4-7.2 11.3-1.6 2.7-3.3 5.4-5 8-1 1.9-2.3 3.3-3.3 5-1.9 2.7-3.5 5.4-5.2 8-.6.8-1.2 1.7-1.4 2.5-.4 1.2-1 2.3-1.6 3.3-1.9 2.9-4.1 5.8-6.4 8.7-1.2 1.2-2.3 2.7-3.5 4.1-3.1 3.5-6.4 7.2-9.7 10.7-.2.4-.4.6-.8 1 .2 0 .2.2.2.2 1.4-1 2.7-2.5 4.3-3.1 0 .2 0 .4-.2.6-.6.4-1.2.8-1.9 1.4-.2.2-.2.6-.2.8.2.2.6.4.2.8-.4.2-.8.8-1 .8-.6-.2-.8.2-1 .4-2.1 1.9-3.9 3.7-5.8 5.6-.2.2-.4.2-.4.4l-.2-.2c0-.2.2-.4.2-.6v-.6c-.2.2-.4.2-.6.4-.2.4-.4.8-.8 1.2-2.5 2.9-5 6.2-7.8 8.7-.8.8-1.7 1.2-2.5 1.9l-.1.1c-.3-.7-.6-1.3-1-1.9-.6-1.4-1.2-3.1-2.1-4.5-.8-1.7-1.9-3.3-2.9-5-.6-1.4-1.4-2.9-2.1-4.3-1-1.9-1.9-3.7-2.9-5.6-.2-.6-.6-1.4-.6-2.1-.2-.4 0-1 .2-1 .6-.4 1.4-.8 2.3-1 .8-.4 1.9-.6 2.7-1.2 1.4-.8 2.9-2.1 4.1-3.3.6-.6 1.2-1.4 1.9-2.1 1.4-1.4 2.9-2.7 4.1-4.1 2.7-2.7 4.1-6 5.8-9.1 1-2.3 2.1-4.3 3.1-6.6.8-1.9 1.7-3.7 2.3-5.8.6-2.7 1.2-5.6 1.7-8.3.4-2.9.6-5.8.8-8.7.2-3.9 0-7.8 0-11.8 0-1.7.2-3.3 0-5-.4-2.3-1-4.5-1.9-6.8-1-3.3-2.5-6.4-4.5-9.3-2.7-3.1-5.8-5.8-9.3-7.6-1.4-.8-3.1-1.4-4.7-2.1-1.7-.6-3.5-1.2-5.4-1.7-1.7-.4-3.3-.8-5-1s-3.3-.2-4.7-.2c-1.2-.2-2.3 0-3.5-.2-.6 0-1-.2-1.7 0-.8 0-1.9.2-2.7.4-1.2.2-2.5.4-3.7.8-1.9.2-3.7.8-5.6.8h-1c-.8.2-1.7.6-2.7.2-1-.4-2-.7-3-.7l-.1-.1c-.2-.2-.4-.2-.6-.4-.8-1-1.7-2.1-2.5-3.1-.2-.2-.4-.2-.6-.2 0 .2 0 .6.2.8.2.2.2.6-.2 1-.4-.6-.6-1-.8-1.4-.6-1-.6-1-1.2-.2-.2.2-.4.6-.6.6-.6-.2-1.2-.4-1.9-.6-.4 0-1-.4-1.4-.2-.8.4-1.7.6-2.7.4-.2 0-.4.2-.6.2-.8 0-1.4.2-2.1.2h-1.4c-2.5.4-4.7.6-7 .8-2.1.2-3.9.4-5.8.4-2.1.2-3.9.6-6 .8-1.7.2-3.3.4-5.2.4 0 0-.2 0-.2.2-.8 0-1.4.4-2.3.4-2.7 0-5.4.2-8 .2-2.3.2-4.3.4-6.4.4-.4 0-1-.2-1.4 0-.8 0-1.4.2-2.3.2-1.7.2-3.5.4-5.2.4-1.4 0-1.4 0-1.6-1.4-.2-.6-.4-.8-.8-.8s-1 0-1.4-.4c-.8-1-2.3-.8-3.3-1.2l-.4-.4c-.2-.8-.2-1.4-.4-2.1-.2-.8-.4-1.7-.6-2.5-.6.4-1.2.8-1.9 1.2-1 .8-2.5 1.2-3.3 2.5h-.8c-1-.6-2.1-1-3.1-1.7l-1.9 1.9s-.4-.2-.6-.2c-.2-.2-.4-.4-.8-.4-.8 0-1.4-.2-1.9-.8-1-.8-1.9-.6-2.3.4-.2.4-.4.8-.4 1.2-.4 1-1.2 1.7-2.3 1.4-.4-.2-1-.2-1.4-.4-.4.8-.4.8-1.2 1-.9 0-1.4.5-1.3 1.4-.8-.1-1.6-.2-2.4-.2-3.9 0-7.8 0-11.8.2-2.9 0-5.8.2-8.5.4-.8 0-1.4 0-2.3.2 0 0-.2 0-.4-.2-1-.6-2.1-.6-3.1.2h-1c-.2-.2-.6-.2-.8-.2-.8.2-1.7.4-2.5.6-1 .2-2.1.6-3.1 0 0-.2-.6 0-.6 0-.6.6-1 .6-1.2.2-1.2 0-2.5.2-3.3.2-.4 0-.6-.2-1-.2s-1 .2-1.2 0c-.6-.4-1-.2-1.4.2-.2.4-.6 1-1.2.4-.2 0-.4.2-.6.4-.2 0-.4.4-.6.4-.8.2-1.4.4-2.1.4-.8.2-1.7.2-2.3.2-.4 0-1 0-1.2-.2-.6-.4-1-.2-1.7-.2-1 .2-2.1.2-3.3 0-1 0-2.1 0-3.3-.2v.4c.6.2 1.2.6 1.9.8-.2.2-.4.2-.6.2-2.5 0-5-.2-7.4-.2h-.7c.4-.3.4-.6.1-1v-.3c-.1 0-.1 0-.2.1v-.1c-.2-.4-.8-.8-1.2-1-1.2-.4-2.3-.6-3.3-1-1.4-.6-2.7-.6-4.1-.6-1 0-2.1-.2-3.1-.2-3.9 0-7.8 0-11.8.2-2.9 0-5.8.2-8.5.4-.8 0-1.4 0-2.3.2 0 0-.2 0-.4-.2-1-.6-2.1-.6-3.1.2h-1c-.2-.2-.6-.2-.8-.2-.8.2-1.7.4-2.5.6-1 .2-2.1.6-3.1 0 0-.2-.6 0-.6 0-.6.6-1 .6-1.2.2-1.2 0-2.5.2-3.3.2-.4 0-.6-.2-1-.2s-1 .2-1.2 0c-.6-.4-1-.2-1.4.2-.2.4-.6 1-1.2.4-.2 0-.4.2-.6.4-.2 0-.4.4-.6.4-.8.2-1.4.4-2.1.4-.8.2-1.7.2-2.3.2-.4 0-1 0-1.2-.2-.6-.4-1-.2-1.7-.2-1 .2-2.1.2-3.3 0-1 0-2.1 0-3.3-.2v.4c.6.2 1.2.6 1.9.8-.2.2-.4.2-.6.2-2.5 0-5-.2-7.4-.2-.6 0-1.2.2-.6-.6.2 0 0-.2 0-.6-.6.2-1 .4-1.4.4-1.4.2-2.9.4-4.3.6-1.2.2-2.7.4-3.9.6l-1.8.3c0-.4-.1-1.1-.3-1.1-.2-.2-.4-.2-.4-.2-.8.6-1.4 1-2.1 1.4-.2 0-.2.2-.4.2-1 .2-1.9.6-2.3 1.4-.1.1-.1.3-.2.4l-.9.6c.2-.5.5-1 .7-1.6l-.2-.2c-.6.8-1 1.7-2.3 1.7l-.4-.4c-.8.6-.8.6-1.7.2-.2-.2-.6-.2-.8 0-.4 0-.6.2-.8.2-.2-.2-.2-.4-.4-.6 0-.4-.2-.8-.4-1-.2 0-.6.2-1 .2-.4.2-1 .4-1.7.8 0 .2-.2.6-.6 1.2-.2-.4-.2-.6-.4-1-.6.8-.8 1.4-1.4 2.3-.2-.2-.6-.4-1-.6-.2.2-1 .4-.6 1v.2c-.4.8-.8 1.4-1 2.1h-.2c-.2 0-.4-.2-.4-.4l-1.4 1.4h-.2v2.9c.4-.6 1-1.2 1.4-1.9l.2.2c0 .4.2.8 0 1.2-.2 1-.6 1.9-1 2.9-.6 1.4-1 3.1-1.7 4.7V37.6c.4-.6.8-1.2 1-1.9.2 0 .2.2.4.2-.2.4-.2.8-.2 1-.4 1.9-.8 3.7-.8 5.6s-.8 3.5-1 5.4c-.2 1-.4 1.9-.6 2.9-.4 2.5-.8 5.2-1.2 7.8-.2 2.1-.6 4.3-1 6.6-.2 1.7-.4 3.5-.8 5.2-.2 1.7-.4 3.1-.6 4.5-.6 3.1-1 6-1.4 9.1-.2.8-.2 1.7-.4 2.5v1.2c0 1 .2 2.1.2 2.9 0 .6-.2 1-.4 1.7 0 .6 0 1.2-.2 2.1 0 .6-.4 1.4-.4 2.3-.2.2 0 .4.2.4.6.8.6 1.9 0 2.5-.2-.2-.2-.6-.2-.8-.6.8 0 2.1-1.2 2.7 0-.4-.2-.8 0-1 0-1.2.6-2.5-.4-3.5-.2 0-.2.2-.6.2 0-.4.2-.8.2-1 0-.4-.2-.6-.2-.8-.2.2-.4.2-.6.4-.2.6-.4 1.2-.6 2.1 0 .4 0 .6-.4.4-.4-.4-.4-1.2-.2-1.7l.4-.4c-.8-.2-.8-.2-1.2.6-.2.8-.6 1.4-1 2.3v.6c.2-.2.4 0 .6-.2.4 0 .8-.4 1.2-.6.2 0 .4 0 .6.2.2.6.4 1.2-.2 1.9-.2.4-.4.8-.6 1v.2c.2 0 .4.2.8.2-.4.6-.8 1.2-1 1.9.2.2.4.2.6.2-.2 1.2-.4 2.3-.4 3.3 0 .2 0 .6-.2.6-.8.2-.6 1-.6 1.7-.2 1.9-.2 3.5-1.2 5.2l.6.6c1.7-.8 2.1-2.3 2.1-3.9.2-1.7-.2-3.5.4-5.2.2 0 0-.4 0-.6 0-.4 0-.8.2-1.4h.4c.2.4.2.8.4 1.2 0 .4 0 .8.2.8.6.4.4 1 .2 1.7.5.4 1.2.9 1.1 1.5.2-.7.5-1.5.7-2.4.2 0 .4 0 .4.2v1.2h.6c-.2 1.4-.4 2.7-.6 3.9 1.2 0 0-1 .8-1.2v1c.4-.4.6-.6.6-.8.2 0 .2 0 .4.2-.2.6-.4 1.2-.8 1.9 0 .2-.2.4 0 .4.2.6 0 .8-.6 1-.4 0-.8.2-1 .6-.6.8-.8 1.7-1.4 2.5 0 0-.2 0-.4.2 0-.4-.2-1 0-1 .6-.4.4-1 .4-1.2-.2-1-.2-1.9.2-2.9.2-.2.2-.4.2-.8-.2.2-.4.2-.6.4 0-.2-.2-.4-.2-.6.2-.4.2-.6.2-1h-.2c-.4.2-.6.6-1 .8l.4.4c0 .4-.2.8-.2 1 .2.6 0 1-.4 1v1.2c-1.2.4-.6 1.7-.8 2.5.2-.2.6-.4.8-.6h.2c-.2.6-.4 1-.6 1.7-.2-.2-.4-.2-.4-.4-.2 0-.2.2-.4.2.2.4.4.8.6 1.4.2-.4.2-.6.4-.8.2-.2.6-.4.8-.6.2.2.4.6.6.8v.4c-.2 1.7-.4 3.1-.6 4.7v.8c.4 0 .6-.2.8-.2.4 1-1 6-1.7 6.6-.2-.2-.2-.4-.4-.8-.2.8-.6 1.4-.8 2.1-.4 1.7-.4 3.3-1.9 4.5 0 .2 0 .6-.2 1-.4.6-.6 1.2-1 1.9h-.2v-1c.4-.8.8-1.9 1.2-2.7 0-.4.2-.8.4-1 1-.8 1.2-1.9 1.4-3.1.2-.6.6-1.2.8-1.9 0-.6.2-1 .2-1.4.2-.4 0-.8 0-1.2 0-.2.2-.6.2-.8h-.2c-.6.8-1 1.4-1.7 2.3.2-1.7.4-3.1.4-4.5h-1v.8c0 .2.2.4 0 .6 0 .6-.2 1.2-.4 1.9-.2.6-.6 1-.8 1.7-.2 0-.4.2-.6.2 0-.2-.2-.4-.2-.6 0-.6.2-1-.6-1.2-.2 0-.4-.4-.4-.8 0-1-.2-2.3.6-3.1 0-.2.2-.4.2-.6-.6-.2-.6-.6-.6-1.2.2-1 0-2.1 0-3.1h-.2c-.2.8-.4 1.9-.6 2.9-.2 1.7-.6 3.1-.8 4.7 0 .4-.2.8-.2 1.2-.2 1.4-.6 2.7-.8 3.9-.2.6-.4 1-.8 1.4h-.2c0-1.9 1.4-3.5.8-5.4-.2.6-.4 1.2-.4 1.9-.2.8-.4 1.4-.6 2.3 0 1-.2 2.3-1 3.1-.2.2-.6.2-.6.2-.6-.6-.8-.2-1 .2 0-.8 0-1.7-.2-2.7H144c-1.2.6-1.9 2.3-3.3 2.7l.6-.6c0-.2 0-.4.2-.4-.2 0-.4-.2-.6 0-.6.6-1.2 1.4-2.1 2.1-.2.2-.4.4-.6.4-.4-.2-.6.2-.8.6-.2.2-.4.4-.6.4-.6.6-1.2.4-1.7-.4-.4.2-.6.4-.8.4-1 0-1.7 1.7-2.9.6-.4-.4-1.4 0-2.1.2h-.6c.2-.4.4-.6.6-.6 1.9-.4 3.5-.6 5.4-1 1-.2 2.1-.8 3.1-1.2v-.2h-.6c-2.1.8-4.1 1.7-6.4 1.4h-2.1c-.8.2-1.7.4-2.5.2-1.2-.2-2.7-.6-4.1-1-1.7-.6-3.1-1.4-4.5-2.3-.8-.6-1.2-1.7-1-2.7.2-.8.4-1.7 0-2.5-.2-.4 0-.6 0-1s.4-1 .2-1.4c-.6-1 .2-1.4.6-1.9.6-.4.6-.8.6-1.2.2-1.7.2-3.1.4-4.5 0-1.2.4-2.7.2-3.7-.4-1.9-.2-3.5.2-5.2 0-.4.2-1 .2-1.7.4-1.4 1-2.9 1.2-4.3.4-2.9.8-6 1.2-8.9.4-2.1.8-4.1 1.2-6.2.4-2.5.8-5 1.2-7.4.2-1.9.6-3.5.8-5.2.2-1.9.8-3.7 1-5.6.2-1.9.4-3.9.6-6 0-.8.2-1.9.4-2.7 0-1.4.2-2.9.2-4.3.2-2.3.4-4.5.6-6.8 0-.8.2-1.7 0-2.5-.4-2.1 0-3.9 0-5.8 0-.6.2-1.2.2-1.9.2-1.9.4-3.5.6-5.2 0-2.3-.2-4.5-.4-6.6-.2-.6-.6-1-.8-1.7-.4-.4-.8-.8-1-1.4-.2-.4-.4-1-.4-1.7-.2-.8-.4-1.2-1-1.7-.4 0-.6-.2-.8-.4-.6-.6-1.2-1-2.1-1v1c-1-.2-1-1-1.2-1.7 0 0-.2.2-.2.4-.2.4-.4.6-.8.4-.4 0-.6-.4-.8-.8-.2-.4-.4-.8-.6-1.4-.2.4-.4.6-.6.8-.2.2-.4.6-.4.6-.4-.2-1-.4-1.2-.8-.4-1-1.2-1.4-2.3-1.2-.6.2-1.2 0-1.7 0-.2 0-.4-.2-.4 0-1 .4-2.3 0-2.9 1.4v.2c-1 .8-2.1 1.7-3.1 2.7-.8.6-1.9 1.2-2.5 2.1-1.7 2.1-2.7 4.3-3.5 6.8-.8 3.1-.8 6.2-1 9.1 0 1 0 2.1-.2 3.1-.2 2.1-.6 3.9-.8 6-.2 2.3-.2 4.7-.2 7-.2 1.2-.4 2.3-.6 3.5-.2 1.7-.4 3.1-.8 4.7-.2 2.3-.4 4.7-.8 7-.5 3-1.2 5.9-1.9 8.8-.1 0-.2-.1-.3-.1-1.4-.2-3.1-1-4.7-.2-1.2.4-2.7.6-3.9.6-1.9.2-3.7.2-5.6.4h-.2c-.4 0-.8-.2-1.2 0-.8.8-1.7.6-2.7.8-1.7.4-3.5.4-5.2.8-1.9.2-3.5.4-5.4.6h-1c-1.4.4-2.9.8-4.3 1.2-1 .2-2.1.4-3.1.8-1 .2-1.9.4-2.7.6-1 .4-1.9.6-2.9 1-.6.4-1.4.8-2.3 1.2-.4.2-1 .4-1.4.6.2.4.4.6.8.8.6.4.6.6-.2 1l-1.2.6s0 .2.2.2c.6.2 1.4.4 2.3.4-.4.2-.8.4-1.4.6.8.6.8.4.2 1-.6.4-1.4.6-1 1.4l-.6.6c0 .2.2.4.4.4.4.2.8.2 1.2 0 .8-.6 1.7-.6 2.7-.8.6 0 1.4-.2 2.1-.2 1-.2 1-.6.4-1.2 1.2-.2 2.3-.4 3.3-.6v.2c-.4.2-.8.2-1.2.4-.6 0-1 .2-1 1 .8-.2 1.7-.4 2.3-.6 0 .2 0 .2.2.4-.8.6-1.7.4-2.5.6-.4 0-.8 0-1.2.2-.4 0-.6.2-.8.2-1 0-1.7.4-2.3 1 0 .4-.4.4-.6.6 0-.2-.2-.2-.2-.2.2-.2.4-.6.4-.8-.2 0-.6 0-.8.2-.4.6-.8 1.2-2.1 1 .8 1 1.9.4 2.5.6-1 .6-2.1 1-3.3 1.7.2 0 .2.2.2.2 1-.2 2.3-.4 3.5-.6v.2c-1 .4-2.3.6-3.3 1 .6.4 1.2.6 1.9.6 1.4-.2 2.9-.4 4.3-.6 1.2-.2 2.5-.6 3.5-.8.4-.2.8 0 1.2 0v.2c-.6 0-1.2.2-1.9.2-.6.2-1.4.2-2.1.4-1.2.4-2.5.6-3.7 1-.8.2-1.4.6-2.3.8v.2c.6 0 1.2.2 1.7 0 .8-.4 1.4.2 2.1.6-.8.2-1.7.4-2.1 1.2-.4.4-1 .8-1.7 1.4 3.3.4 6.2.8 9.3.8-.2 1-.4 1.9-.4 2.7-.2 1.2-.2 2.5-.4 3.7-.2 1-.4 2.1-.8 3.1-.2.6-.2 1.2-.4 1.9-.4.6-.6 1.4-1 2.3 0 .4-.2 1-.4 1.7-.6 1.2-1 2.3-1.9 3.5-1.2 1.9-2.5 3.9-4.3 5.6-.6.6-1.4 1-2.5.8-1 0-1.9-.2-2.7-.2-1.9 0-3.3-.4-5-1-.8-.2-1.7-1.2-1.7-1.7.2-1.9.4-3.7.6-5.6.2-1.9.4-3.9.6-5.8 0-1.2 0-2.5.2-3.7.2-2.1.6-4.1.8-6.2l1.2-8.7c0-.8.2-1.4.4-2.5 0-.4-.2-1.2 0-1.9.4-3.1 1-6.4 1.7-9.5.2-1.7.6-3.3 1-5 .2-1.9.6-3.5.8-5.2.8-3.3 1.7-6.6 2.5-9.9.8-4.1 1.7-8 3.7-11.8.8-1.9 1.7-3.7 2.7-5.4.6-1.4 1.9-2.9 3.5-3.3 2.5-.6 4.7-1.7 6.6-2.9.4-.4.8-.4 1.2 0 .4 1 1 1.9 1.4 2.9 1 1.9 2.1 3.7 3.3 5.4.6.6 1.7.8 2.5.4.2 0 .6-.2 1-.2 1.4.2 2.7-.2 3.7-1.2.6-.6 1.4-1 2.3-.6h.4c-.2-.8-.4-1.4-.6-2.1-.6.2-1 .4-1.4.6 0-.2-.2-.2-.2-.2.2-.4.2-.6.4-.8 1.2-.4 1.9-.8 1.7-2.1 1 0 1.4.4 1 1.2 0 .2 0 .4-.1.5.2.4.4.7.4 1.1.2.2.2.6.4.6.2.4.6.4 1 .6v-1.4c.4.4.8.6 1 .8 0 0-.2.2 0 .2.6 1 1.2 1.9 1.9 2.7v.6c.4.2.8.2 1.2.2.2.2.4.2.6.4.4.8 1.2.8 2.1 1.2 0 .2 0 .4.2.8.2-.2.6-.4.8-.6 1.2-1.7 2.1-3.3 2.9-5.4.8-1.9 1.2-4.1 1.2-6.2.2-1.7 0-3.1-.2-4.5-.4-2.1-.8-4.1-1.4-6.2-.4-1.2-1.2-2.3-1.9-3.3-1-2.3-2.3-4.3-3.9-6-1.2-1.2-2.3-2.5-3.7-3.3-2.5-1.7-5.2-3.1-7.6-4.5h-.6c-1.4 0-3.1 0-4.5-.4-1.9-.4-3.7-.4-5.6-.4-1.4 0-3.1.2-4.7.2-.6.2-1.4.4-2.1.4-1.4.2-2.3 1.7-3.7 1.2-.8 0-1.7.8-2.5 1.2-.8.2-1.7.4-2.3.4-.8.2-1.4 0-2.1 0-1.7.4-3.3.8-5.2 1.4-1 .2-2.3.6-3.5 1-2.3 1-4.1 2.7-6.2 4.3-1 .8-2.3 1.9-3.1 3.1-1.4 1.9-2.7 3.9-3.9 6-1.4 2.3-2.3 4.7-3.1 7-1 3.1-2.3 5.8-3.3 8.9-1 2.5-1.9 5-2.5 7.6-1 4.5-1.9 8.9-2.7 13.4-.4 1.9-.8 3.7-1.4 5.6-.4 2.3-1 4.1-1.4 6.4-.8 4.3-1.4 8.7-2.1 13-.6 2.7-.8 5.4-1.4 8-.8 5-1.7 9.9-2.5 14.9-.4 2.5-.6 4.7-1 7.2-.2 1.7-.2 3.1-.4 4.7v5.2c0 2.1-.2 4.1.2 6.2.2 2.1 1 3.9 1.7 5.8.4 1.2 1 2.7 1.9 3.7.8 1.6 2.1 3.1 3.1 4.3.8 1.2 1.9 2.5 2.9 3.3 2.7 1.9 5.6 3.1 8.5 4.3 1.7.6 3.1 1.7 4.7 1.7h.2c1.4.4 3.1 1 4.5 1.4 2.1.2 4.1.4 6 .6.6 0 1 .4 1.7.6.2.2.6.2 1 .2s.8-.2 1.2 0c.8 0 1.9.4 2.9.4h8.9c.4 0 .8-.2 1.2-.2H53c.2 0 .6 0 .8-.2.8-.2 1.7-.4 2.5-.6.8 0 1.9 0 2.9-.2 1.2-.2 2.5-.6 3.9-1 .6-.2 1.2-.8 1.9-.8 1.2 0 2.3-.2 3.3-1 1.2-.6 2.7-1.2 3.7-2.1 1.4-1.2 2.7-2.5 4.1-3.7 2.1-2.1 4.3-4.3 5.6-7.2.8-1.6 1.7-3.5 2.7-5.2.6-1.4 1.4-2.7 2.1-4.1.4-.6.6-1.4 1-2.1.1-.3.3-.5.5-.8.4 2.4 1.2 4.8 2.2 7 1 2.3 2.7 4.5 4.1 6.8 2.3 3.5 5.6 6.2 8.7 9.1.8 1 1.9 1.4 2.9 2.3.4.4.6.8 1.2 1.2.4.4 1 .6 1.7.8.8.4 1.7.8 2.3 1 1.2.2 2.5.4 3.7.6 2.3.8 4.5 1.2 6.8 1.2 1 0 2.1 0 2.9.2 1 0 2.1.2 3.1.4 2.3 0 4.3-.2 6.4-.6 1.7-.2 3.5-.2 5.2-.2.4-.2.6 0 1-.2 1.7-.2 3.3-.6 5-1 1.4-.4 3.1-.8 4.3-1.6 1.7-.8 3.1-1.9 4.7-2.9 2.1-1 3.9-2.5 6-3.3 2.5-1 3.7-3.1 5.2-5 1.4-2.3 2.7-4.5 3.9-7 1-1.7 1.7-3.3 2.5-5.2.4-.6.4-1.2.8-1.9 1-1.4 1.4-3.1 1.9-4.7.4-1.7.8-3.5 2.3-5 2.5-2.3 3.9-5.2 4.7-8.3.8-2.3 1.4-4.7 1.9-7.2.4-1.2.8-2.7 1-4.1.4-2.5.8-4.7 1.2-7 .2-2.9.6-5.8 1-8.5.2-2.9.6-5.8 1-8.7.2-1.9.4-3.9.8-5.8.2-1.9.4-3.5.6-5.4.6-3.1 1-6.2 1.4-9.1.4-2.9.6-5.8 1-8.5 0-2.1.2-4.3.2-6.4.2-1 .2-2.1.2-3.1.1-1 .3-2 .5-3 1.3.1 2.7.3 4.1.3 1 0 2.1-.2 3.1-.2 1.2 0 2.5-.2 3.5-.2 1.9-.2 3.7-.4 5.6-.4 2.9-.2 5.8-.2 8.7-.2.8-.2.8.2.8.8 0 1.2-.2 2.3-.4 3.5-.2 1.7-.6 3.1-.8 4.7-.2 2.1-.6 4.1-.8 6.4-.4 1.9-.6 3.7-.8 5.6-.2 1.4-.4 2.9-.6 4.3-.2 2.1-.4 4.1-.8 6.2-.2 1.9-.4 3.7-.4 5.6-.4 2.7-1.2 5.2-2.1 7.8-1 2.5-1.4 5.2-1.9 7.8-.4 1.9-.8 3.9-1.2 6-.2 1.2-.6 2.3-.8 3.5-.4 1.9-.8 3.7-1.2 5.6-.4 1.4-.8 2.9-.8 4.3-.4 1.9-.4 3.7-.6 5.6-.4 2.9-1 5.8-.8 8.7 0 1.2 0 2.5-.4 3.7-.6 1.9-.8 3.9-.6 6 .2 2.3.2 4.5.4 6.6.2 1.6.4 3.3.6 4.7.6 1.9.2 3.1-1.2 4.1-.8.4-.8.4 0 1l.4.4c-.6.2-.8.4-1.2.4.8.4 1.4.6 2.1.8.8.2 1.4.6 2.1.6.8 0 1.7.2 2.7.4.4.2 1 .2 1.4.4 1 .8 1.9 1.7 2.9 2.5.4.4 1 .6 1.7.8l.2-.2c-.2 0-.2-.2-.4-.4.6.2 1.7-.6 1.7.8 0 .2.4.2.4.4.2.2.4.6.8 1 .2.2.4.8.6.8.8 0 .8.4.8.8.6.2 1 .2 1.7.4h.6c.4-.8.6-1.9.8-2.9-.2.2-.4.2-.6.4-.2-1 0-1 1-.8v-1h.2v2c.2.6.6.6.8.2.4-.6.8-1.2 1-1.9.2-1.2.4-2.7.4-3.9.2-1.4.2-1.7 1.7-1.7-.2.6-.2 1-.2 1.9.2-.6.6-.8.8-1.2h.2c-.2.8-.4 1.7.2 2.5l1.9-1.9c.8-.8 1.7-1.7 2.3-2.5.4-.4.8-.8.4-1.6s-.6-1.9-1.7-2.1c.4-.8.8-1.4 1.4-2.1.2-.4.6-.8.8-1.2.2-.2.2-.6.2-.8h-.2l-.8.8v-.2c-.2 0-.6 0-.8.2-.4.4-.6.8-1 1.2l-.6.6c.2-1 .2-2.1.2-3.1-.4 0-.8-.2-1 0-.4.2-.4.6-.8 1 0-.4-.2-.8 0-1 0-.6.2-1 .4-1.7.4-1.4.6-3.1 1.2-4.5 1-2.7 2.3-5.4 3.3-8.3 0 0 .2 0 .2-.2.2-.2.4-.2.4-.4-.2-1.2.2-2.1.6-3.1 0-.4.2-.6.4-1 .6-.6.8-1.4.8-2.5v-.8c.4-1.9.8-3.9 1.2-5.8.4-2.9 1-5.8 1.7-8.7.2-1.7.6-3.3.8-5 .2-1.9.6-3.7.8-5.8.2-2.1.4-4.3.6-6.4.2-2.1 0-4.1.2-6.4v-2.3c.2-1.2.4-2.3.4-3.5.2-1.4.4-2.9.6-4.5.2-1.9.2-3.9.4-5.8.2-1.4.4-2.9.6-4.3.4-1.7.6-3.3.8-5 .2-1.9.2-3.9.4-5.8.4-2.9 1-6 1.4-8.9.4-1.9.8-3.7 1.2-5.4 0-.6.2-1.2 1-1.2 1.4 0 2.7-.2 4.1-.2h2.7l.6 1.2 1.2.6c2.1 1 4.3 1.7 6.6 1.9 1.9 0 3.7.2 5.8.4 1.7 0 3.5.4 5.4.4 1 0 2.1-.2 3.1-.2 1.2 0 2.5-.2 3.5-.2 1.9-.2 3.7-.4 5.6-.4 2.9-.2 5.8-.2 8.7-.2.8-.2.8.2.8.8 0 1.2-.2 2.3-.4 3.5-.2 1.7-.6 3.1-.8 4.7-.2 2.1-.6 4.1-.8 6.4-.4 1.9-.6 3.7-.8 5.6-.2 1.4-.4 2.9-.6 4.3-.2 2.1-.4 4.1-.8 6.2-.2 1.9-.4 3.7-.4 5.6-.4 2.7-1.2 5.2-2.1 7.8-1 2.5-1.4 5.2-1.9 7.8-.4 1.9-.8 3.9-1.2 6-.2 1.2-.6 2.3-.8 3.5-.4 1.9-.8 3.7-1.2 5.6-.4 1.4-.8 2.9-.8 4.3-.4 1.9-.4 3.7-.6 5.6-.4 2.9-1 5.8-.8 8.7 0 1.2 0 2.5-.4 3.7-.6 1.9-.8 3.9-.6 6 .2 2.3.2 4.5.4 6.6.2 1.6.4 3.3.6 4.7.6 1.9.2 3.1-1.2 4.1-.8.4-.8.4 0 1l.4.4c-.6.2-.8.4-1.2.4.8.4 1.4.6 2.1.8.8.2 1.4.6 2.1.6.8 0 1.7.2 2.7.4.4.2 1 .2 1.4.4 1 .8 1.9 1.7 2.9 2.5.4.4 1 .6 1.7.8l.2-.2c-.2 0-.2-.2-.4-.4.6.2 1.7-.6 1.7.8 0 .2.4.2.4.4.2.2.4.6.8 1 .2.2.4.8.6.8.8 0 .8.4.8.8.6.2 1 .2 1.7.4h.6c.4-.8.6-1.9.8-2.9-.2.2-.4.2-.6.4-.2-1 0-1 1-.8v-1h.2v2c.2.6.6.6.8.2.4-.6.8-1.2 1-1.9.2-1.2.4-2.7.4-3.9.2-1.4.2-1.7 1.7-1.7-.2.6-.2 1-.2 1.9.2-.6.6-.8.8-1.2h.2c-.2.8-.4 1.7.2 2.5l1.9-1.9c.8-.8 1.7-1.7 2.3-2.5.4-.4.8-.8.4-1.6s-.6-1.9-1.7-2.1c.4-.8.8-1.4 1.4-2.1.2-.4.6-.8.8-1.2.2-.2.2-.6.2-.8h-.2l-.8.8v-.2c-.2 0-.6 0-.8.2-.4.4-.6.8-1 1.2l-.6.6c.2-1 .2-2.1.2-3.1-.4 0-.8-.2-1 0-.4.2-.4.6-.8 1 0-.4-.2-.8 0-1 0-.6.2-1 .4-1.7.4-1.4.6-3.1 1.2-4.5 1-2.7 2.3-5.4 3.3-8.3 0 0 .2 0 .2-.2.2-.2.4-.2.4-.4-.2-1.2.2-2.1.6-3.1 0-.4.2-.6.4-1 .6-.6.8-1.4.8-2.5v-.8c.4-1.9.8-3.9 1.2-5.8.4-2.9 1-5.8 1.7-8.7.2-1.7.6-3.3.8-5 .2-1.9.6-3.7.8-5.8.2-2.1.4-4.3.6-6.4.2-2.1 0-4.1.2-6.4V84c.2-1.2.4-2.3.4-3.5.2-1.4.4-2.9.6-4.5.2-1.9.2-3.9.4-5.8.2-1.4.4-2.9.6-4.3.4-1.7.6-3.3.8-5 .2-1.9.2-3.9.4-5.8.4-2.9 1-6 1.4-8.9.4-1.9.8-3.7 1.2-5.4 0-.6.2-1.2 1-1.2 1.4 0 2.7-.2 4.1-.2h4.7c3.5-.2 7.2-.2 10.7-.2l-1.2 7.2c-.6 3.3-1.2 6.4-1.9 9.7-.8 3.3-1.4 6.4-2.1 9.5-.4 1.2-.4 2.5-.8 3.9-.2 1.2-.6 2.5-.2 3.7.2 1.7 0 3.1-.8 4.5-.2.6-.4 1.2-.6 1.9-.2.4-.2.8-.6 1-.6.4-.4.6 0 .8.4.4.4 1 .2 1.2-.8.8-1.4 1.7-1.4 2.7-.2.4-.2.6-.2 1 .4 1 .8 2.3 0 3.3-.4.4-.2.6.2 1 .2.4.2.8.2 1-.6 3.3-1 6.4-1.7 9.7-.8 3.7-1 7.4-2.1 11.1-.6 2.7-.6 5.4-1 7.8-.4 2.1-.6 3.9-1.2 6-.4 1.9-1 3.7-1.2 5.8 0 .6-.2 1.2-.6 1.7-1.2 1.7-1.9 3.3-1.9 5.4 0 .2-.2.4-.2.6-.8 1.4-.6 2.7 0 3.9.4.8 1 1.6.4 2.5-.2.4 0 .8.2 1.2.4 1 1.2 1.9 1.4 3.1 0 .4.4.6.8 1 0 .2.2.4.4.6-.2.2-.4.4-.8.6.2.4.6.8.8 1.2.6.8.6.8-.2 1.2-.2.2-.6.4-.2.8.2.4.4.6 1 .2 0 0 .6.2.8.2.2.2.4.6.6.8.2.2.2.4.4.6-.2 0-.4 0-.4.2-.6.2-1 .4-1.4.8-.2 0 .2.6.4 1v.2c.2.8.6 1.4 1.4 1.2.2 0 .4.2.6.4l.6.6c1.4.2 2.7 1 3.9 1.9.6.4 1.4.8 2.3 1.2h1.7c.2 0 .6-.2.8-.2 1.4-.2 2.9 0 4.3-.2 1.2-.2 2.7-.4 4.1-.2.4 0 .8-.2 1.4-.2 1.2-.4 2.5-.6 3.7-.8 1.4-.2 2.9-.4 4.1-.6h.8c1.4-.2 2.9-.4 4.3-.6.8 0 1.6.2 2.3 0 1.6 0 3.1-.4 4.5-.6.8 0 1.9 0 2.9-.2l-.2-.2c.4-.2.6-.6.8-.6 1.2-.2 2.5-.4 3.5-.4h.6c1.4-.2 2.9-.4 4.3-.6h5.4c.4 0 1 .2 1.4.4.6.2 1 .4 1.6.2.8-.4 1.7-.4 2.5-.6.8-.2 1.9-.2 2.9-.4v-.2c-.8-.2-1.4-.4-2.1-.4-1.9.2-3.9.4-5.8.4-.8 0-1.4-.2-2.3-.2-1.4-.2-2.7-.2-4.1-.2h-.6v-.2h3.5v-.2c-.8-.2-1.6-.4-2.5-.4h-2.7c-.6-.2-1.4-.2-2.1-.4h-2.3v-.2c1.4-.2 2.9-.2 4.3-.4v-.2h-4.1c-.2 0-.4 0-.4-.2-.6-.8-1.4-.4-2.1-.4-3.3-.2-6.6 0-9.9 0h-1.2c.4-.4.8-.6 1.2-.6.8-.2 1.9-.6 2.9-.6.8 0 1.7-.6 2.5.2.4.2 1.2 0 1.6-.2.6-.4 1-.4 1.7-.4 1 .4 1.9.4 2.9-.2 1.2-.8 2.9-.8 4.5-1 1.7 0 3.5-.2 5.2-.2 0 0 .2-.2.4-.2-2.3-.2-4.1-.4-6.2-.4v-.2c.8-.2 1.6-.4 2.5-.6h-.2c-.6-.2-1.2-.4-1.9-.6.6-.4 1.2-.6 1.9-.6.8-.4 1.9-.6 2.9-.8.6 0 .8-.2 1-1-1.6.2-2.9.4-4.3.4-2.3 0-4.3-.2-6.6.2-.8.2-1.6.2-2.7.4h-1c5.2-1.2 10.3-1.4 15.5-3.1-.4 0-.6 0-1-.2v3.6c1.9-.4 3.9-.6 5.8-.8-.4-.8-.8-1-1.9-.8-.4.2-1 .2-1.4.2 0 0-.2 0-.2-.2l1.2-.6c-1.2-.4-2.3-.8-3.5-1.2v-.2c.6-.2 1.2-.4 2.1-.6v.2c-.2.2-.2.4-.4.6 1.6-.4 3.5-.6 5.2-1 .2 0 .6-.4.8-.4 0-.2-.2-.2-.2-.2-.6 0-1.2.2-2.1.2.2-.2.4-.4.8-.6 1.4-.4 2.9-.8 4.5-1 .4-.2 1-.4 1.4-.4.4 0 .8.2 1.2.2.4 0 .8 0 1 .2.4.2.8.4 1.4.6-.2.2-.2.6-.2.8-.2.2-.6.2-.8.4v.2c1.6-.6 3.1.2 4.5.8-.8 0-1.7.2-2.5 0-.6-.4-.8-.6-1.4 0 .8.2 1.7.6 2.5.6.4 0 1.2 0 1.6-.4.6-.6 1-.6 1.7 0-1.7.8-3.5 1.7-5.2 2.5 1 .2 2.1.6 3.1 1l-1.2.6c0 .4.2.6.2 1l-.6 1.2c.4-.2.6-.2.6-.2.2 0 .2 0 .2.2-.4.2-.8.6-1 .8 0 .2.2.4 0 .6 0 .2-.2.6-.2.6.2.4.6.6 1 .8.4 0 .8-.2 1.4-.2-.2 1-.8 1.7-1.6 1.7l-1.7 1.7c-.4 0-.6.2-.8.2-.2.2-.4.2-.6.2-1 0-2.1-.2-3.1-.2-.2 0-.4 0-.4.2v.2c1 0 2.3.2 3.5.4 0 0 0 .2-.2.6 1.4-.4 2.5-.8 3.7-1 0 .4-.2.8-.2 1.2h-.6v.4c1-.2 2.1-.2 3.1-.4 0 .4-.2.6-.4.8 0 .2 0 .6-.2.8.2 0 .6.2.8.2.6-.2 1-.4 1.4-.6.4-.2.6-.2 1.2-.4-.2.4-.4.6-.4.8.8.2 2.3-.2 2.3-.8 0-.6.2-1 .6-1.2.2-.2.6-.2.8-.4l.2-.4c-.2-.2-.4-.2-.6-.2-.2 0-.4 0-.8.2v-.2c.2-.2.6-.4 1-.8H408c-.2-.4-.4-.6-.6-1 .8-.4 1.4-.6 2.1-.8v-.4c-.8.2-1.4.2-2.1.2h-.6c.2-.2.2-.6.4-.6.8-.4 1.6-.4 2.5-.8h.4c.6-.2 1-.6 1.4-.8.2 0 .2-.2.4-.2-.6-.2-1-.4-1.4-.4.2-.6 1 0 1-.8-.6-.2-1.2-.2-1.9-.4-.6 0-1.4-.2-2.1-.2-.2 0-.4-.2-.6-.2h-1.2c-.2 0-.6 0-1 .2v-.4c1-.2 1.9-.2 3.1-.4-.2-.2-.4-.2-.6-.4v-.2c.6 0 1 .2 1.4.2h.6c0-.2 0-.4-.2-.6.2 0 .4-.2.6-.4-1.4-.2-2.7.4-3.9 1-.2-1.2-.2-1.2.8-1.4.4 0 .8 0 1.2-.2v-.2c-1.6.2-3.1 0-4.7-.4.4-.6.6-.8 1.2-.4.4.2 1 .4 1.4.4 1.2 0 2.3.2 3.5-.6-.4 0-.8-.4-.8-.2-1 .6-1.9-.2-2.9-.2.2-.2.2-.2.4-.2 1.4.2 2.5-.8 3.7-1 .2 0 .2-.4.4-.4 0-.2 0-.4-.2-.4-.4 0-.8-.2-1.2-.2-.2 0-.4.2-.6.4 0-.2-.2-.4-.4-.4-.4 0-.6.2-1 .2s-.6-.2-.8-.4c.2 0 .4-.2.8-.2h1.4v-.2c-.6 0-1.4-.2-2.3-.2 1.2-1 2.5-.4 3.7-.6-.4-1.2-1.9-.6-2.5-1.2.6-.6 1.9-.2 1.9-1.4-.4 0-.6 0-1.2-.2v-1.9c1.4-.4 3.9 0 4.1.8-.4.4-1 .6-1.4.8l.2.2c.8-.2 1.9 0 2.5-.8.2 0 .6 0 .8.2.4 0 .6.4.8.4.4.2 1 .4 1.4.6 0 0 .2-.2.4-.6-1.2-.6-2.5-1.2-3.7-1.9-1.2-.6-2.5-1-3.9-1.4-.8-.4-1.6-1-2.7-.6-.2 0-.4-.2-.8-.2-.6-.2-1.4-.4-2.3-.4-1 0-2.1.2-3.3.2-.2 0-.6.2-.8.2-1.2.4-2.3 1.2-3.3 1.2-2.5.4-5 .6-7.4.8-.6 0-1-.2-1.7 0-1.2 0-2.7.4-4.1.4-1.6.4-3.5.6-5.4.8-1.9.2-3.9.4-5.8.4-1.9.2-3.7.4-5.8.4 0 0-.2 0-.4.2-.8.2-1.9.2-2.9 0-.2-.2-.6 0-.8 0-1.7 0-3.1.2-4.5.4-.2 0-.6-.4-.6-.6-.2-1-.2-2.3 0-3.3.2-3.7.8-7.2 1.2-10.7.2-1.7.4-3.3.6-5 .4-2.5.6-5 1-7.4s.6-5.2 1-7.8c0-.2.4-.4.6-.4 1.2-.4 2.3-.6 3.5-.6 2.5-.4 5-.8 7.2-1 1.9-.2 3.9-.4 5.8-.6s3.7-.4 5.6-.6c2.3-.2 4.5-.2 6.8-.4.2 0 .6 0 .8-.2.8-.4 1.7-.8 2.5-1.2.2-.2.4-.2.6-.4 1.4 0 2.7-.2 4.1-.2.4-.2 1-.2 1.4-.2 1.4 0 2.9-.2 4.3 0 2.3.4 4.3-.4 6.4-.2.2.8-1 1-1.4 2.1.4-.2.8-.4 1-.4 1.4-.6 2.9-1 4.3-1.7 1-.2 2.1-.6 3.1-1 .2 0 .6-.2.8-.4.4-.2.8-.4 1-.8.2-.2.2-.8.2-1.2v-.2h-.4c-.8.2-1.9.4-2.7.4h-.4v-.4c.2-.6 1.2-.8 1.7-.6.8.2 1.4 0 1.9-.4-.4-.2-.6-.2-1-.4.4 0 .6-.2.8-.2-.4-.2-1-.4-1.6-.8h1.9v-.2c-.4-.2-.6-.4-1-.6.4-.8 1.2 0 1.9-.6h-2.1l.6-.6c-.4-.2-.8-.4-1.4-.6.8-.2 1.4-.4 2.3-.4-.4-.4-.4-.8-.8-.8-.8-.4-1.6-.6-2.5-.8v-.2h1.2v-.2c-.8-.4-1.4-.6-2.3-.8-.2 0-.2-.2-.4-.2-.8.2-1.4-.4-2.1-.6-.6-.4-1-.4-1.2.2l-.4.4c0-.4-.2-.6-.2-.8-.4-.2-.8-.2-1.2-.4-.2.2-.2.4-.4.4-.8-.2-1.6-.4-2.5-.6-.4-.2-.8.4-.6.8.4.8 0 1.4-.2 2.3 0 .2-.4.2-.8.2-.4.2-1 .2-1.2.8 1 .2 2.1.4 2.9.8.2 0 .2 0 .2.2 0 0 0 .2-.2.2 0 .2-.2.2-.4.2v.2c.4 0 1-.2 1.4-.2.6 0 1.2 0 1.9.2.6 0 1.2 0 1.9.2.4.2 1 .4 1.7.6-.2.8-.8 0-1.2 0-.8 0-1.6-.2-2.5-.2-1.2.2-2.5.4-3.9.6l-.2.2c.4 0 .8.2 1.2.2-.2.2-.4.4-.6.4-2.5 1-5 1-7.4 1-.8 0-1.4.2-2.3.6 3.5 0 7.2-.2 10.9.6-.4 0-.6.2-.8.2-1.2.4-2.5.6-3.7.8-.4.2-.8.2-1 .2-.6-.4-1.2-.2-1.4 0-.4.8-1.4.4-1.9 1.2 0 .2-.8 0-1.2 0-.4 0-.8-.2-1.2-.2-1.2-.2-2.7-.4-4.1-.4-1 0-2.1.2-3.1.4-.2 0-.4 0-.4.2-.4.2-.8.4-1 0 0-.2.2-.4.2-.8 0 0 0-.2.2-.2-1.9.2-3.7.2-5.4.4 0-.2 0-.2-.2-.2.6-.2 1.2-.2 1.9-.4.4 0 .6-.4.8-.4-.2-.2-.6-.4-.8-.4-1.4-.2-2.7-.2-4.1-.2V97h-3.7c-.2 0-.4-.2-.6-.2.2-.2.4-.2.6-.2.6-.2 1.2-.2 2.1-.4.2 0 .4-.2.6-.4l-.2-.2h-1.7s0-.2-.2-.2c3.5-1.2 7.4-1 10.9-2.3-.8 0-1.7.2-2.3.2-.8 0-1.4 0-2.3-.2V92c.8-.2 1.4-.4 2.1-.6H383c-.6.4-1.2 0-1.9-.2.2-.4.4-.6.8-1 .4-.2 1-.4 1.7-.8.6-.2 0-.4-.2-.6 1-.4 2.1-.6 2.9-.8v-.4c-.8 0-1.6.2-2.5.2 0-.4.4-.6 1.2-.8.4 0 .8 0 1.2-.2.4 0 .4-.2.6-.6.8-.2 1.6-.2 2.5-.4.8 0 1-.4.6-.8.4-.4 1-.8 1.6-1.2.4-.2 1.2 0 1.4-1-2.5.6-5 1.4-7.6 1.7v-.2c0-.2.2-.4.4-.4 2.5-.6 4.9-1 7.2-1.7.8-.2 1.7-.6 2.5-.6 1-1 2.3-.6 3.5-1 .4-.4 1.2-.4 1.9-.4 1.4-.2 2.9-.2 4.3-.4.4 0 .8-.2 1.2-.2.8 0 1.9 0 2.7.2.4.2.6.6 1 1l-.2.4h-.6c-.6-.4-1-.6-1.6-.8 0 0 0 .2-.2.2.4.2.6.4 1 .6.2.2.4.6.6.8-.6.2-1 .4-1.4.4-.2 0-.4-.4-.6-.4-.2 0-.8.2-.6.2 0 1-.8 1-1.4 1.2-.8.2-1.4.8-1.9 1.4.8-.2 1.6-.2 2.3-.2v.4c.2 0 .4.2.6.4h.4c.8 1.2 1.9.8 2.9 1 1.2 0 2.3 0 3.3.6.4.2.8.2 1.4.4.2.2.2.4.4.6.6-.2 1.4 0 1.6-.8 0 0 .2-.2.4-.2l1.2.6c.6.4 1.4.6 2.1.2-.6-.2-1.2-.6-2.1-.8l.8-.4c-.6-.2-.8-.4-1.2-.4-.4.2-.8.2-1.4.4.2-.8 0-1-.4-1-.6-.2-1-.4-1.4-.8v-.2c.6 0 1 .2 1.4.2.4 0 .6 0 1-.2v.2l.8-.8c-.4-.6-1.7 0-1.7-1 .4-.2.8-.4 1.2-.4v-.4c.4.4.8.6 1.4.8.4.4.8.6 1.2.8.2 0 .2-.2.2-.2-.8-.6-1.4-1.2-2.3-1.9v-.2c.6.2 1.2.6 1.9.8.2 0 .4-.2.8-.2-.2-.2-.2-.4-.4-.6-.2-.2-.6-.4-1-.6 0 0-.2-.2-.2-.4.8.2 1.4.4 2.1.4v-.8c-.4-.2-.6-.2-1-.4-.2 0-.6-.2-.6-.6-.2-.2-.2-.6-.2-1.2.4.2.8.6 1.4 1 1-1 1.7.6 2.5.6-.2-1.4-1.4-2.3-2.3-2.9-1.2-1-2.3-1.9-3.5-2.7-.4-.4-1-.6-1.6-.6 0 0-.4.2-.4.4 0 .4-.4.6-.8.4-1-.4-1.9-.2-2.9 0-.4 0-1 .2-1.4.4-.8.2-1.9.2-2.7.6-1 .6-2.1.8-3.3.4-.2-.2-.2-.2-.4 0-1.2 0-2.5.2-3.7.4-.2 0-.2.2-.4.2.8 0 1.7.2 2.3.2.2 0 .4.2.8.4-.6.2-1.2.2-1.4.4-.8.6-1.7.2-2.5.6.4-1 1.7-.2 2.3-1.2h-3.3c.4-.4.6-.6.8-.6v-.2h-.8c-1.7.8-3.5.8-5.4.8-.4 0-.6-.2-1-.2-1.4.2-2.9.6-4.3.8-1.6.2-3.3.4-5 .6-2.1.2-3.9.4-6 .6-2.1.2-4.1.4-6 .6-1.2 0-2.5-.2-3.7-.2-.8 0-.8-.2-.6-1 .4-2.3.8-4.5 1.2-7 .2-1.4.6-2.9 1-4.1.2-1 .6-1.9.6-2.9-.2-.8 0-1.7.2-2.5.6-1.9 1-3.9 1.7-6 .8-3.1 1.4-6.2 2.5-9.3 0-.2.4-.4.6-.6.6-.2 1.4-.2 2.1-.2 2.1-.4 3.9-.6 5.8-1 1.7-.2 3.3-.4 5-.4 3.1-.4 6-.8 8.9-1 2.9-.2 5.6-.4 8.3-.6 1.9-.2 3.7-.4 5.6-.6 2.7-.2 5.2-.4 7.8-.6h4.5c.6 0 1.4 0 2.3-.2 1-.2 1.9-.2 2.9.4h.8c-.1.1-.1.3-.2.4.4.4.6.8 1 1 .4.6-.2.8-.4 1.2-.2.6.2 1.4 1 1.4s1.4.2 2.5.4c-.2 0-.2.2-.2.2-.2.4-.6.6-.8.8-.6.6-.6 1.4 0 1.9.6.4.6.8.6 1.4-.2 1.9-.4 3.7-.6 5.4-.4 2.9-.8 5.8-1 8.5-.2 2.1-.2 4.3-.4 6.4-.4 4.7-.8 9.3-1.2 14v1.4c0 .4.2 1 0 1.4 0 1.2 0 2.5-.2 3.7v2.1c-.2 1.9-.2 3.7-.4 5.6 0 1.4-.2 2.9-.4 4.1-.2 1.4-.4 2.9-.6 4.1-.2 1.7-.6 3.1-.8 4.5-.4 1.7-.6 3.1-1 4.5-.2 1.9-.4 3.7-.8 5.6-.2 1.7-.4 3.3-.6 5-.4 2.3-1 4.5-1.4 6.8-.4 2.3-.8 4.5-1.2 6.8-.4 1.6-.8 3.5-1 5.2 0 .2 0 .4-.1.6-.6-.1-1.2-.2-1.8-.4-.2 0-.6.4-.8.6l.6.6c.4.2.6.2.8-.2 0-.4.2-.4.6-.2.2.2.4.3.5.3-.1 1.2-.1 2.3-.3 3.4-.2.8 0 1.7-.4 1.9-.4.4-.4.6-.4 1 .1.4.3.8.4 1.2-.5 0-1 .1-1.4.2-.2 0-.2.2-.4.4h2c.2.6.6 1.4.6 2.3.2 1.9.6 3.5 1.6 5.2.4.4.6 1.2 1.4 1.2.2-.6.2-1 .4-1.7 0-.4 0-1 .2-1.4 0-.2.2-.4.4-.4s.6 0 1 .2v.4h-.4c-.2 0-.4-.2-.6-.4 0 .4-.2.6-.2.8.4.2.6.2 1 .4 0-.2.2-.4.2-.4.2.4.4.6.6 1-.4 1.4-.4 1.6 0 2.3.4-.4.8-.6 1-.8.2-.2.6-.2.6 0 .2.6 1.2 1 .6 1.9-.2 0 0 .2 0 .4h.2c0-.2.2-.6.2-.8 0-.8-.2-1.4-.2-2.3 0-.4 0-1 .2-1 .8-.6.2-1.2 0-1.9l-1 1c-.4.2-.8.2-1.4.4.2-.6.8-.8 1.4-1 .2-.4.2-1 .2-1.4.2.2.2.2.4.2.2-.4.2-.6.4-.8h.2c-.2 1 .4 1.9 1 2.7 0-1 .2-2.1.2-3.1.4.2.4.4.6.4-.6.4-.6 1.4 0 1.9.2 0 .2.2.4.4v.8h.2c.2-.4.2-.6.2-.8.2 0 .2 0 .4.2 0-.2.2-.6.2-.6-.4-.4-.2-.8-.2-1.2.2-.4.2-.8.2-1.2h-.2c-.2 0-.4-.2-.6-.4v-.2c.2 0 .6-.2.8-.2h-.2c.2-.8.4-1.7.6-2.7 0 1 .2 1.6.2 2.3h.2c0-.2.2-.4.2-.6.6.4.8 1 .6 1.9-.2.2-.2.6-.2.8v.8c-.2 1.2-.2 2.5-.4 3.7 0 .2.2.2.2.6.4-.6.6-1.2.8-1.7.4.2.8.4 1.2.4 0 .2-.2.6-.2.8 0 .2 0 .6.2.8h.2c.2-1 .4-1.9.6-2.9.2-.8.6-1.6 1-2.5.2.4.2.8.6 1.2.2-.6.6-1 .6-1.2-.6-1-.2-1.9-.2-2.7 0-.4.2-.6.2-.8h1.4v.6l-.6 1.2c.2 0 .4 0 .4.2.4.6.6 1.4.8 2.1.2-.2.4-.2.6-.4l.2.2-.6 1.2c-.8-1-1.9-1.9-1.4-3.3-.4.4-.6.8-.4 1.4v1.9h-.2c0-.2-.2-.4-.2-.6-.2.2-.6.2-.8.4-.2.2-.2.4-.2.6h.4c.6 0 1-.4 1.4 0-.8.8-1 1.7-.6 2.5.2-.6.6-1 .8-1.7h.2c0 .2.2.6.2.8.2.4.4.8.4 1.4.2.8.6 1.9.6 2.9s-.2 2.1-.4 3.3c.6 0 1-.2 1.2-.8.6-1 1-2.3 1.4-3.5.4-1.2 1.2-2.3 2.1-3.3.6-.8 1.4-1.4 2.1-2.5 1.4-1.7 2.3-3.5 2.3-5.8-.2-1.2-.4-2.3-.2-3.5.4-3.5.8-7.2 1.2-10.7.4-2.3.6-4.5 1-6.8 0-1.4.2-2.9.4-4.1.2-1.9.4-3.9.8-5.8.2-1.7.6-3.5.8-5.4.2-.6.4-.8 1-.8s1.2 0 1.9-.2c.6-.4.8-.2 1 .4.8 2.3 1.7 4.7 2.5 7 1.6 3.7 3.1 7.4 4.5 10.9 1 2.3 2.3 4.5 2.7 6.8 0 .2 0 .2.2.4.4 1 1 2.1 1.4 3.1.8 1.6 1.7 3.3 2.5 5 1 1.6 1.9 3.5 3.5 4.7 1.4 1.7 2.9 3.3 4.3 4.7l1.2 1.2c1 .8 2.1 1.9 3.1 2.7.8.6 1.9 1 2.9 1.4.3.2.7.4 1 .5-.1.4-.3.7-.6 1v.2h1c-.2.2-.2.4-.4.6-.2.4-.6.8-.8 1.2v.6c0 .2.4.2.4.2.4-.2 1-.4 1.2-.8 1-.8 2.1-1.2 3.1-1.2 1.6-.2 3.1-.4 4.5-.4 1.9-.2 3.5-.2 5.4-.4h.4c.8 0 1.7-.2 2.5-.2v.2c-1.2 1-2.5 2.1-3.9 3.1l.2.2c1-.2 2.3-.2 3.1-.8.4-.4.8-.6 1.2-.8 1.7-.6 3.1-1.4 4.5-2.3.8-.2 1.4-.6 2.1-.8 2.1-.6 4.1-.6 6-.8 2.3-.2 4.5-.2 6.6-.2 2.7.2 5.4.4 8 .4 4.1 0 8.3-.2 12.4-.2 3.5-.2 7-.2 10.5-.4 2.3 0 4.5-.2 6.8-.2 4.1 0 8 .2 12.2.2.6 0 1.2.4 1.9.4.4.2 1.2.4 1.7.2.8-.4 1.9-.6 2.9-1 2.1-.6 3.9-1.4 5.8-2.3 1.4-.4 2.1-1.7 2.7-2.7.4-.4.2-.8-.4-.8-.8 0-1.7 0-2.3-.4l.6-.6c-.8-.4-1.4-.8-2.3-1.2l1.2-.6c.2-.2.6-.2.6-.6.2-.2.4-.6 1-.6.2 0 .6-.2.6-.6-.4-1 0-1.9.6-2.5.4-.2.6-.2.4-.6-.2-.4 0-.6.2-1 0-.2.2-.6.2-1 0-.2-.2-.4-.2-.6-.2-.6-.2-1.2-.4-2.1 0 0 .2 0 0-.2v-.8c-.4-.6-1-1.4-.4-2.3 0-.2 0-.6-.2-.8-.2-.6-.2-1.2.4-1.9.4-.2.6-.4.8-.6.2-.2.4-.6.4-1-.4-.8-.8-2.1-1.4-2.7-2.3-2.9-5.6-4.5-8.9-5.8-1-.4-2.3-.8-3.5-1-1-.2-2.1-.4-2.9-.4-1.2 0-2.5.2-3.7.2h-1c-1.4.2-3.1.6-4.5.6h-7.6c-4.1 0-8-.2-12-.2-1.4-.2-2.9 0-4.1-.2-.2 0-.6 0-.8-.2 0-.2.2-.6.4-.8.2-.4.6-.8.8-1.2 1.7-2.3 3.3-4.3 4.7-6.6 1.9-2.5 3.5-5 5.2-7.4 1.4-2.1 2.9-4.1 4.1-6.2 1.4-2.3 2.9-4.5 4.3-6.6 1.6-2.7 3.3-5.4 5-7.8 1-1.4 2.1-2.9 3.1-4.3 2.7-3.9 5.2-7.8 7.6-11.8 2.1-3.1 3.9-6.2 5.8-9.3 1.6-2.5 2.9-5.2 4.5-7.8 3.1-4.5 6-9.1 9.1-13.6 1.2-2.3 2.5-4.5 3.9-6.6 1.7-2.7 3.3-5.2 5-7.6 1.4-2.5 2.5-5 3.3-7.6.6-1.9 1.2-3.7 1.4-5.8 1.2-1.3.6-1.8-.2-2.2zm-485.8 91.6c0 .2.2.2.2.2 0 .8-.2 1.7-.2 2.5-.8-.4-.8-1.6 0-2.7zM77.8 48.5l.4-.4v.6c0 .2-.2.6-.2.8h-.2v-1zm6.6 39.2c.6-.2 1.4-.2 2.1-.4 1.2-.2 2.3-.4 3.3-.6h.2c.6.4 1.4.6 2.3.6l.2.2c0 .2-.2.4-.2.6-.4.2-1 0-1 .6h-.4c-1 .4-1.9.6-3.1 1 1.2.8 1.9-.8 2.9-.2 0 1-1.2.8-1.7 1.4.6 0 1-.2 1.4-.4.6-.4.8.2 1.2.4-.6.4-1.2.6-1.7.8s-.8.2-1 0c-.2-.6-.6-.6-1.2-.4 0 0-.2-.2-.6-.2.6-.2.8-.4 1.2-.6v-.2c-1.2.2-2.3.4-3.5.6.4-1.2 1.7-1 2.3-1.2-.2-.4-.2-.8-.4-1-.4-.2-.6-.4-1-.4-.4-.2-.8-.2-1.2-.4v-.2zm-2.3 3.7c.4-.2.8-.2 1.2-.4v.4c-.4 0-.8.2-1.2.2v-.2zm-6.3 7.8c-.4.8-1.2 1-2.5.6.8-.2 1.4-.4 2.5-.6zm-15.7 24.2c.2-1.2.4-2.3.6-3.3 0-.8.6-1.2 1.2-1.4.2 1 .4 1.9.4 2.9.2 1.7.2 3.3-.4 5-.2 1-.8 2.3-.4 3.7.2.4-.2.8-.2 1.4-.2-.2-.2-.2-.4-.2v-4.9c-.2-.8-.6-1.7-.8-2.5v-.7zm-2.9-26.7c-.4 1.2-1.9 1.9-3.7 1.7 1.2-.6 2.5-1 3.7-1.7zm-.8 2.5c-.8.8-2.3.6-3.3.8 1-.6 2-1 3.3-.8zm-7.3 2.7v-.2c.8-.2 1.9-.4 2.7-.6 1.2-.4 2.5-.8 3.9-1 0 0 .4.2.6.2 0 .2-.2.4-.2.4-2.2.4-4.7.8-7 1.2zm2.9 3.5v-.4c1.2-.2 2.5-.2 3.7-.4v.4c-1.2 0-2.4.2-3.7.4zm-1 41.7c-.2 0-.4-.2-.6-.2v-.2c.4 0 .8-.2 1.2-.2.4-1.4 2.1-1.6 3.1-2.5 0 .8-3.7 3.9-5 3.9.5-.4.9-.6 1.3-.8zm-8.7 3.7c-.2.2-.2.4-.4.4-.4 0-1 .2-1.4-.4h1.8zM37 150c1.2-.2 2.3.2 2.7 1.4-.4-.2-.8-.2-1.2-.4v-.4c-.6-.2-1-.4-1.7-.4l.2-.2zm19.8 9.5c-.6 0-1-.2-1.7-.2v-.4c.6 0 1.2.2 1.7.2v.4zm19.8-12.6c-.8 1-1.9 1.9-2.7 2.7-.8 1-1.7 1.9-2.3 2.9-.2 0-.4.2-.4.4.6 1-.6 1.2-1 1.9-.2 0-.4.2-.6.4l-.2-.2c.6-.8 1.2-1.9 1.9-2.9v-.2l-.8.8c-.2 0-.2.2-.2.2-.4.8-.8.8-1.7.2.8-.4 1.7-1 2.5-1.4.6-.4.8-1.2.6-1.9-.4.4-.4 1.2-1.2.8 0-.2 0-.2.2-.4l3.1-3.1c0-.2.2-.4.2-.4.2-.2.6-.4.8-.4 0 0 .2.2.2.4-.6.4-1.2.8-1.9 1.2l.4.4c1.4-1.2 3.1-2.5 4.7-3.7-.4.8-1 1.6-1.6 2.3zm-9.9 6.2c.4-1.2 1-1.7 2.7-1.9v.2c-.9.4-1.7 1-2.7 1.7zm5.3-5.4v-.4c0-.6.6-.6 1-.8.2 0 .2 0 .2.2-.3.2-.7.6-1.2 1zm17.4-41.3c-.2 2.3-.2 4.5-.4 6.8-.1.6-.1 1.2-.1 1.8l-.9 4.8c0 .6-.4 1.2-.6 1.9-.2.6-.6 1-.2 1.7 0 .2-.2.4-.2.6-.6.8-1 1.7-1.4 2.5-.2.2-.2.4-.2.6.2-.2.6-.2 1-.4-1.4 6.4-4.5 11.8-7.6 17.3-.2-.2-.4-.4-.4-.8-.2.2-.6.4-.8.6l-1.9 1.9c-.2.2-.8 0-1.2 0 .8-1.4 1.9-2.7 2.1-4.3 0-.2-.2-.2-.2-.2-.2.4-.4 1-.8 1.2-.2.4-.8.6-1.2.8.2 0 .4.2.4.2-.8 1.4-2.1 2.7-3.5 3.7-.2 0-.4 0-.4.2-.2.2-.2.4-.2.6.2 0 .4.2.6.2.2 0 .2-.2.4-.2-.2 1-4.3 3.7-5.8 4.1 0-.6-.2-.8-.8-.6-.2.2-.4 0-.6.2-.8.6-1.9 1.2-2.9 1.9v.2c.6-.2 1.2-.4 2.1-.4.2.8-.6.4-.8.8-.2.2-.8.2-1 .4v.2c.6 0 1.2-.2 1.7-.2.4.6 0 1.2-.6 1.4-.4.2-1 .4-1.7.6 1.2 1 2.5.6 3.7 0 .8-.2 1.7-.4 2.5-.6.4 0 .6 0 1.2-.2-.2.2-.2.4-.4.6-.8.6-1.7 1.2-2.7 1.9-1 .4-2.1 1-3.1 1.4-.4.2-1 .2-1.7.2-.8.2-1.7.4-2.5.4-.2 0-.2-.2-.2-.2 1.4-.4 2.7-.8 4.1-1.2 0 0 0-.2-.2-.2h-1.2l1.2-.6v-.2c-.8.2-1.4.2-2.3.2-.6.2-1 .4-1.7.4h-.8c0-.2.2-.6.2-.8 0 0 0-.2.2-.2-.4 0-.6-.2-.8-.2.6-.8 1.2-.4 1.9-.6.6-.2 1-.2 1.7-.2.2-.2.2-.4.4-.6-.2 0-.2 0-.2-.2-2.1.4-4.1.6-6.4 1 .2 0 .2.2.2.2.4 0 1 .2 1.7.2v.2h-1c-.6 0-1 .2-1.4.8-.4.6-1.2.8-1.9 1-.4.2-.8.2-1.2.2l1.2-.6c-.2 0-.2-.2-.2-.2-.8.2-1.4.2-2.5.4.2.4.2.6.2.8-.2 0-.6 0-1 .2.4.6 1 .8 1.7.8h2.9c.6 0 1 .2 1.4.2-.2.4-.4 1-.8 1-.8.2-1.4.6-2.1 1.2-.4.2-1 0-1.4 0-.4-.2-.6-.4-.8-.6-.6-.2-1.2-.2-1.9-.6.6-.2 1.2-.2 2.1-.4v-.2c-.2 0-.6-.2-.8-.2H47c-1.7-.2-3.3-.4-5-.4-.8 0-1.9.2-2.7.2-.6 0-1-.4-1.4-.6 0-.2 0-.4.2-.4.4-.2.6-.2 1-.2-.8-.8-1.9-.6-2.9-.8.2-.6.6-.6 1-.6.8 0 1.4.2 2.1-.4-.8-.6-1.4-.8-2.3 0h-.6c-1-.2-1.9-.8-2.7-1.4-.4-.2-1-.6-1.4-.8-1 .4-1.7-.2-2.5-.6-1.2-.4-2.3-.8-3.5-1.4-.8-.4-1.7-.8-2.5-1.4-.2-.2-.6-.4-1-.6 0 0 0-.2.2-.2 0 0 .2 0 .4.2 1 .6 2.1 1.2 3.3 1.7.4.2 1 .2 1.4.4 1.4.2 2.7.4 4.1.6 1 .2 1.9.4 2.9.6 1 .2 2.1.2 3.1.4.6-1 1-1.2 2.1-.8.2 0 .4 0 .6.2.6 0 1.2.2 1.9.2.8-.4 1.4.2 2.3 0l.2-.2c.4-.4.8-.8 1.4-1 .8-.2 1.9-.2 2.9-.2h.8c-.2-.6-.4-1-.6-1.2-.6-.6-1.2-.8-2.1-.8-.4.2-1 0-1.4 0v-.2c.2 0 .4-.2.6-.2 1.7-.4 3.3-.6 5-1 .8-.4 1.4-1 2.3-1.7 1.4-.8 2.7-1.9 4.1-2.9.6-.4 1.2-1 2.1-1.7-1-.6-1-1-.6-1.9.6-.8 1-1.9 1.4-2.7 0-.2 0-.2-.2-.6-1 1.6-1.7 3.5-3.1 4.7.2-.6.4-1.2.6-1.9v-.8c-.2.2-.6.2-.8.4-.2.4-.2.6-.4.8-.4.4-.8.6-1.4.8 1-2.1 1.9-3.9 2.9-6h.2c-.2.8-.2 1.7-.2 2.5v.2c.2-.2.4-.4.4-.6.4-1.2.8-2.3 1.2-3.3.2-.4.6-.6.8-.8 0-.2.2-.6 0-.8-.4-.8.2-1 .6-1.2.2-.4.4-.6.6-1 .6-1.2 1-2.5 1.4-3.7.4-1.4.6-2.9.2-4.5-.2.2-.2.4-.4.4 0 0-.2-.2-.2-.4.2-.8.2-1.9.4-2.9.2-1.2.4-2.3.6-3.5 0-1.4-.2-2.9-.8-4.1H63v1.4c.2.2.2.6.2.6-1 .8-.4 2.1-.8 3.1h-.2c0-1.4-.4-2.9-.2-4.3.4-1.2.4-2.7.6-3.9 0-.2.2-.4.2-.6.2.2.4.4.4.6.2.8.4 1.7.6 2.7 0 .2 0 .4.2.6v-2.9c-.2-.2-.2-.6-.2-.8 0-.2.2-.4.2-.6.2.2.4.4.4.6.2.8.2 1.9.2 2.7 0 .2 0 .2.2.4.2-.8.2-1.4.4-2.3v-.8c0-.6.2-.8.6-.8.6 0 .6.4.6.8.4 1.4.6 3.1.8 4.5l.4.4c0-.6.6-1 .2-1.9-.2-.8-.2-1.7-.2-2.7v-1.4c.6 0 1-.2 1.7-.2.2 0 .6.4.6.6v3.3c0 .8.2 1.9.2 2.7h.4l.6-1.2c.2-1 .2-1.9.2-2.7 0-.8 0-1.4-.6-2.1-.2 0-.2-.8.2-.6.8 0 1.4-.4 2.1-.4 1.7-.2 3.3-.2 5-.4.4 0 .6 0 1 .2 0 .8-.2 1.9-.4 2.7 1-.6.8-1.7 1.2-2.7 0-.4.2-.6.6-.2h.6c.4 0 .8-.4 1.2-.4.2 0 .4.2.6.6v1.2c.8-1 .8.2 1.2.4 0-.6.2-1.2.2-1.9.2-.6.4-.8 1-.6h.6c.2.2.4.2.4.4.4-.2.6-.6 1-.8.2.6.2.8.4 1.4.4-.8.4-1.4 1.2-1.2h.2c.4-.1.4 0 .4 0zm-12.8-5.7v-1.2c.2-.2.6-.2 1.2-.2-.4.7-.6 1.2-1.2 1.4zM78 99c1.4.2 3.1-.8 4.5.2.2-1.2.4-1.2 1.7-.6-.4 1-1.2 1.4-2.3 1.2-.8-.2-1.7-.4-2.5.4-.3.5-1.2-.2-1.4-1.2zm6.8.6c0-.8.2-1 1-.6-.4.2-.6.4-1 .6zm1.7-.2v-.2c.2-.2.4-.4.6-.8l.2.2c0 .2.2.6 0 .6-.2.2-.4.2-.8.2zm3.5-.6h-1.4v-.4c.4 0 1-.2 1.4-.2l.2.2c0 .2-.2.4-.2.4zm1.6-3.9c0 .2 0 .4-.2.6 0 .2-.2.4-.2.6-.6.6-2.1.6-2.7 0 .6-.8 1.7-.6 2.5-1h-2.5s-.2.4-.2.8c-.2.2 0 .6-.2.6-.2.2-.6.2-1 .2-.2 0-.2-.2-.4 0-.6.4-1.4.2-2.1.2-1 0-2.1.2-3.1.4-2.1 0-4.3 0-6.4.2 0 0-.2-.2-.4-.2 1.7-.4 3.3-.6 4.7-.8v-.2h-2.9v-.2c1.2-.6 2.5-1 3.7-.8 1.4.2 2.7-.6 4.1-.4.2 0 .4-.2.6-.2 2.1 0 4.1-.2 6.2-.4h.8c-.1.2-.1.4-.3.6zm1.1-1.9c-.5.3-1 .4-1.3.4h-5c-.8.2-1.7.2-2.3.2h-4.3c.4-.2.6-.4.8-.4 1.4-.2 3.1-.6 4.5-.2.8.2 1.7-.2 2.5-.4-.4 0-.8 0-1.2-.2.6-.8 1.4-.2 2.3-.6v.8c.8-.2 1.7 0 2.1-.8.2-.2 1-.2 1.4 0 .2.1.3.2.5.3.1.3 0 .6 0 .9zm.1-2.5c-.2 0-.4-.1-.6-.1-.2 0-.6-.2-.8-.2-.4-.2-.4-.6 0-.8.6-.2 1-.1 1.5-.2 0 .4 0 .8-.1 1.3zm.1-2-.1-.2h.1v.2zm19.2 34.4c.2-.6.6-1 .8-1.7 0-.2.2-.4.4-.6-.2 1.4-.4 2.9-.6 4.3-.2-.6-.6-1-.6-1.4-.2-.1 0-.4 0-.6zm2 18-2.3-2.3h.2c.4 0 .8.2 1.2.4-.2-.2-.4-.6-.8-.8-.6-.8-.4-1.9-.6-2.7 0-.2 0-.4-.2-.6h-.2c0 .2 0 .6.2.8-.8-.2-.8-.8-.4-2.1.4 1 1.7 1.4 1.7 2.7 0 .2.4.4.6.6.2 0 .4.2.6.4 0 .2-.2.4-.4.4v1.2h-.4c.2.4.4.6.8.8.4.6.4.8 0 1.2zm35.7-5.4c.4-1 .6-1.9 1-2.9 0-.2.2-.2.4-.4 0 .2.2.4.2.6-.4 1.2-1 2.5-1.4 3.5h-.4c0-.4.2-.6.2-.8zm-19.2 8.7c-.4 0-.8-.2-1-.2-.2 0-.2-.2-.2-.2 1.9 0 3.7 0 5.6-.8h-5.8v-.2c1 0 2.3-.2 3.3-.2.6 0 .8-.2 1.2-.6.2-.2.8-.2 1.2-.4 1.2-.4 2.5-.6 3.7-1.2 1-.4 2.5-.2 3.3-1.4h.4c0 .2-.2.4-.2.8.4-.2.8-.2 1-.4 0 .4-.2.6-.4.8-.4.6-.8 1.2-1.9 1.4-.6.2-1 1-1.7 1.6 0 0 .2 0 .2.2 1-.6 2.1-1.2 3.1-1.7.8-.4 1.4-1.2 2.7-1-.4.4-.8.8-1 1.2-.2-.2-.4-.2-.8-.4-1.2 2.1-3.3 2.3-5.2 3.1-.8.4-1.9.2-2.9.4-.6.2-1.2.2-1.9.4-1.9.4-3.5.4-5.4 0-.4-.2-.8 0-1.2 0-1-.2-2.1-.4-3.1-.8 2.5 0 4.8.4 7-.4zm-13.4 15.9c.8-.4 1 .2 1.2.6-.8.4-1 .2-1.2-.6zm6-1.3c-1 0-1.9 0-2.7-.2-.6 0-1-.4-1.7-.6-.6-.4-1.4-.8-2.3-1.4.2-.2.2-.4.2-.4 2.3.4 4.3.8 6.4 1.4-.2 0-.2 0-.2.2h-1.2c.5.6 1.7.2 1.5 1zm2.5 1.5h1.4c-.4.6-.8.6-1.4 0zm5.3 1c-1-.2-2.1-.2-3.1-.4v-.4c1 .2 2.1.2 3.1.4v.4zm.4-5.6c-.6-.4-1.2 0-1.7.2-1 .6-2.1.8-3.1.4-.6-.2-1.2-.4-1.9-.4-.8-.2-1.4-.6-2.1-.8-.4 0-.6-.2-.8 0 .6 1 2.1.6 2.7 1.7-.4.6-1 .2-1.7 0-.4-.2-1.4-.2-1.4-1.2-1.9 0-2.9-1.4-4.3-2.3.2 0 .2 0 .2-.2 1.7.2 3.3.4 5.2.6-.8-.8-2.1-.8-2.7-2.1.8.2 1.4.4 2.1.6v-.2c-.4-.4-.8-.8-1.4-1.2.2 0 .2 0 .2-.2.4.2.8.2 1.4.4v-.6c1.2 0 2.5.2 3.7.2 1.2 0 2.3 0 3.5.2.8.2 1.7.2 2.5-.2.4-.2 1 0 1.7 0v.4c-.4.8-.4.8.6.8h2.9c.2 0 .4.4.8.4-.4.2-.6.4-.8.6-.2 0-.4.2-.8.2-.6.2-1.2.4-2.1.6.8.4 1.7 0 2.3.6-.8.2-1.9.4-2.7.4-.2 0-.2.2-.2.2.2.2.6.4.8.4.6-.2 1.2-.2 1.9-.2.2 0 .4 0 .6.2-.2 0-.4.2-.4.2-1 0-2.3 0-3.3.2h-1c-.2.1-.4.3-.7.1zm8.5 4.2h-2.1c.9-.4 1.5-.9 2.1 0zm-.6 1.8c-.6.2-1.4.2-2.1.4h-2.9c-.6-.4-1-.6-1.7-.8v-.2c.6.2 1.4.2 2.1.2 0-.2 0-.4-.2-.8 1.4.2 2.9-.2 4.3.4h.4c.2 0 .6.2.8.2-.1.2-.3.4-.7.6zm-.6-14c-.8.2-1.7.4-2.5.8-.2 0-.2.2-.4.2v.2c1.2 0 2.5-.2 3.7-.4l.2.2c-.8.2-1.7.4-2.3.8.4 0 1 .2 1.7.2-1 .2-2.3.4-3.7.6.2-.4.2-.4.6-.8-.8.2-1.7.2-2.3.4h-.8c-.8 0-1.4.2-2.1.2h-.4c-1.2 0-2.5-.2-3.7-.4h5.8v-.4h-1c-.6 0-1.2 0-1.9-.6-.6-.4-1.7-.4-2.5-.6-.8-.2-1.7-.2-2.3-.4v-.2c.6 0 1.4.2 2.1.2.6.2 1 .2 1.4-.4-1.4 0-3.1-.4-4.3-.6v-.4c.4.2.8.2 1.2.2h4.7c1 .2 2.3.4 3.3.4 1-.2 2.1-.4 3.3-.6-.2-.2-.2-.4-.4-.6h.8c.6.4 1 0 1.4-.2.4-.2.8-.2 1-.2.8.2 1.2-.2 1.2-.6 1.4-.4 2.9-.8 4.3-1.4-.2 1.2-1.4 1.7-2.3 2.3l.2.2c.2-.2.6-.2 1-.4v.2l-.8.8c-.2 0-.4.2-.6.4l-.2.2c-1.2-.8-2.2.3-3.4.7zm2.9 8.2c.8-.4 1.4-.6 2.1-.8 0 0 .2.2.4.2-.8.4-1.7.6-2.3.8l-.2-.2zm2.4 1.9s0-.2-.2-.2c.6-.2 1-.4 1.4-.4l.2.2c-.5.2-1 .4-1.4.4zm8.1-6.6c-1.4 1-3.1 2.1-4.5 3.1-.6.4-1.2.6-1.9 1-.2 0-.6-.2-.8-.4v-.2c.4-.2.8-.4 1.2-.4.8-.2 1.4-1 2.1-1.4 1.2-.8 2.3-1.7 3.5-2.5.2-.2.6-.2 1-.4 0 0 0 .2.2.2-.4.4-.6.6-.8 1zm24.5-60.9c.5.9.4 1.7 0 2v-2zm-4.1-60.4c.2-.2.2-.8.4-1 0-.2.2-.4.2-.6.2 0 .2.2.2.2 0 .8 0 1.9-.8 2.7-.2.2-.2.6-.4.8-.2.4-.4.4-.6.6 0-.2-.2-.4-.2-.6.2-.9.4-1.7 1.2-2.1zm.6 1.5s0 .2.2.2c-.2.4-.2 1-.4 1.7-.8-.9-.2-1.3.2-1.9zm-.4 2.8c0 .6-.2 1-.4 1.7-.2-.2-.4-.2-.4-.4 0-.6 0-1.2.2-1.9h.2c.2.2.4.4.4.6zm-11.3 71.6c-.4.6-.4 1.4-.8 1.9-.2 0-.2-.2-.4-.2.4-.8.6-1.4 1-2.3h.2v.6zm.4-3.7h-.4V99.4s0-.2.2-.2c1.2-1.4.8-3.3 1.7-5-.5 2.7-.7 5.4-1.5 7.9zm0 18.8s.4-.2.6-.2v.2c-.2.4-.2.8-.4 1h-.4c0-.4 0-.6.2-1zm-4.6 27.2c0-1.2 1-3.1 1.9-3.1-.6 1-1.2 1.9-1.9 3.1zm5.4-6c-.4.4-.8.8-1.4 1-.2.2-.6.4-.8.6-.4.2-.6.6-1.2.6.8-1.4 1.7-3.1 2.5-4.7 0 .4.2.4.2.8.4-.4.6-.8.6-1h.4c-.2.4-.2 1-.2 1.4.2 0 .4 0 .6-.2.1.9-.3 1.1-.7 1.5zm2.3-8.2c-.2 0-.2 0-.4-.2v-.8c.2-.6.2-1.2.4-1.9.2 0 .4-.2.4-.4l.4.4c-.2 1-.6 1.8-.8 2.9zm.4-3.7c0-.2-.2-.6-.2-.6.8-1 0-2.1.4-3.1-.4 1.4-1 2.7-1.4 4.1-.2.4-.4 1-.6 1.7l-.6 1.2c.2-.8.4-1.9.4-2.7-.4.8-.6 1.4-.8 2.3-.4 1-.8 2.1-1.2 3.1-.2.8-.8 1.7-1 2.3h.6c.6-1.4 1.2-2.9 1.9-4.3-.2 1-.4 1.9-.6 2.9-.4 1-.8 2.1-1.2 3.1-.2.4-.4.6-.6 1l-.2-.2c0-.4.2-.8.2-1 0 0 0-.2-.2-.2-2.1 3.1-3.7 6.4-6.2 9.3h-.2c.2-.2.2-.6.2-.6 1.9-2.3 3.1-4.7 4.5-7.4.4-.8 1.2-1.6 1.9-2.5 0-.4-.2-.8 0-1 .6-2.1 1.4-3.9 2.1-5.8.2-.4.2-.6.2-1.2l-.6 1.2c0-.2-.2-.4-.2-.8-.8 2.1-1.7 4.1-2.5 6.2-.2-.2-.4-.2-.4-.2v-.6c.6-1.9 1.4-3.7 2.1-5.6v-1h-.2l-.6 1.2c-.4 1.7-1 3.1-1.4 4.7-.2.4-.4.8-.2 1.4.2.6.2 1-.2 1.6-.4.2-.4.8-.6 1.4-1 .4-1.2.6-.6 1 0 .2-.2.4-.2.4-.2 0-.2-.2-.2-.4-1 .8-1.9 1.9-2.7 2.7v-.2c0-.2 0-.4.2-.6.8-1.7 1.7-3.5 2.5-5.2.8-1.4 1.4-2.9 2.1-4.5v-.4c.2-1.2.4-2.5 1-3.7v-.2c-.6-.6 0-1.2 0-1.7.4-1 .6-2.1.8-2.9 0-.8-.4-.8-1-.8.2-.6.2-1 .4-1.2h.2c.2.2.2.4.2.4.8.4 1.4.6 2.1 1 .2-.4.4-1 .8-1.7v-.2c-.6-.8 0-1.2.4-1.9.2.6.6 1 0 1.7-.2.4-.2.8-.4 1.2-.2 1-.2 2.3-.4 3.5.6-.6 1-1 1.4-1.2-.2 1.2-.4 2.3-.8 3.5.8-.8 1.7-2.9 1.4-3.9h-.8c.2-.6.4-1 .4-1.7.4.4 1.9.8 2.5.8-.2.4-.4 1-.4 1.7-.2.2-.2.6-.2 1 .6 1-.2 2.1-.4 3.1-.5.3-.7.3-.9.5zm-2.5-13.9c.2-.6.4-1.2.4-2.1.6.6.4.8-.2 2.3l-.2-.2zm3.1-3.7c.6 1.2-.2 2.1-.6 3.1-1 0-1.2-.2-.6-1.2.2-.2.2-.2.2-.4-.2-.9.4-1.1 1-1.5zm.4 19.6c-.4-1 0-1.9.6-1.9-.2.7-.4 1.3-.6 1.9zm0-2.5.6-1.2c.4.8.4 1-.6 1.2zm.2-8.8c.4-.8.8-1.4 1.2-1.9.3.4-.2 1.5-1.2 1.9zm1.9-3.3c-.2.2-.6.2-.8.2 0-.2 0-.4.2-.6.2-.4.4-1 .6-1.4 0-.2.2-.4.4-.6l.2.2c-.2.7-.4 1.4-.6 2.2zm9.5-18.2c0 .8-.2 1.7-.2 2.5-.2.8-.2 1.7-.2 2.5-.2.8 0 1.7 0 2.5h-.4c-.2-.4-.2-.6-.4-1-.2-.2-.4-.2-.6-.4-.4 0-.6-.2-.8-.4-.2.2-.4.8-.6 1-.6 0-.6-1.2-1-.2h-1.2c0-.6.2-1.7-.8-2.1 0 .2-.2.4-.2.6 0 .8-.6.6-1 .8-.4 0-.8-.4-.8-1 0-.4-.2-.8-.2-1.4h-.5c0 .2-.2.6-.2.8 0 .6 0 1.2-.8 1.9-.4.4-.6 1.4-1 2.1 0-1 .2-2.1.2-3.3-.4.2-.6.4-.8.4h-.2c.4-.8.6-1.9-.2-2.7-.2.8-.4 1.7-.4 2.5h-.2c-.2-.4-.4-.8-.6-1-.4.2-.6.4-1 .8v-.8c.4-.4.2-1 0-1.7-.2-.2-.2-.6-.2-1-.2.6-.4 1-.6 1.7-.2-1-.4-1.7.4-2.5 0 .4 0 .6.2.8 0-.2 0-.4.2-.6 0-.4.2-.6.4-1 0 .6.2 1 .8 1.2.4-1.2.6-2.3.8-3.3h.4v1.4c.6-.8 1.2-1.7.6-2.7-.2-.4 0-.8.2-1 .4-1.7.6-3.1 1.2-4.5.4-1 .2-2.3.6-3.1.4-.8.6-1.4.8-2.3.4.8-.6 1.7.4 2.3 0 .4-.2 1-.2 1.4 0 0 .2 0 .2.2.2-.6.2-1 .4-1.4.2-.2.2-.8.8-.6l.4-.4c0-.2 0-.4.2-.6 0 .4 0 1 .2 1.9.2-.4.4-.6.6-1 .2 1 .2 1.9.2 2.9.2-.4.4-.8.4-1 .6 3.7.2 7.4 0 11.3.6-1.9 1.2-3.9 2.1-5.8h.2c.2.4.4.8.4 1 .2-.7.4-1.5.6-2.2.9 1.4.9 2.9.5 4.5-.2.4 0 .8 0 1.4.4-.6.6-1 .8-1.7.2.2.2.2.4.2-.1.7-.1 1.3-.3 2.1zm37.7 54.5h.2c0 .2.2.4.2.6v1c-.6 0-.6-.4-.4-1.6zm1 9.3c-.6-.4-1-.8-.6-1.6.2.5.8.7.6 1.6zm3.1-.2-.6-1.2c.8-.1.8.1.6 1.2zm-.2-3.8c-.2.2-.2.6-.2 1-.2 1-1 2.1-1.9 1.9-.2 0-.6-.4-.6-.6-.2-.8-.6-1-1.2-1.4-.6-.4-1.2-.8-2.1-.8-.2-.2-.4-.6-.4-.8v-2.1c-.2-.6.6-2.1 1-2.3-.2 1.2-.4 2.5-.6 3.7h.4c.2-.4.2-1 .4-1.6.2.4.4 1 .6 1.4.2-.2.4-.2.6-.4v.8c-.2.4-.2.8.4 1 .6.2.8-.4 1-.8.2-.4.2-.8.2-1.2.2 0 .2 0 .4.2 0 .2 0 .4.2.8 0-.2.2-.2.4-.4 0 .8 0 1.4.2 2.1h.2c0-.2.2-.6.4-.8.2-.8.2-1.7.4-2.5 0-.2.2-.2.2-.4.2.2.4.2.4.4.2 1 .2 2-.4 2.8zm3.3 3.3c-.4-1.4 0-3.1.6-3.9h.2c-.2 1.3-.4 2.7-.8 3.9zm6.2-85.6v1.9c-.4-.4-.4-.8 0-1.9zm-1 4.4c.2.2.2.4.2.6-.2 1-.6 1.9-.8 2.9-.2 1-.6 1.9-.8 2.9h-.2c0-.6.2-1.2.4-1.9v-1h.6c-.2-.4-.2-1-.8-1.4 0-.2-.2-.6-.4-1 0-.2 0-.4.2-.6 0-.4.4-.6.4-1s0-.8.4-1c.2 0 .4-.4.4-.8.2-.2.2-.4.4-.6l.2.2c0 .2-.2.4-.2.6-.2.6-.4 1.2 0 2.1zm1.6 3.7c-.4-.8.2-1.7-.6-2.3 0 .4-.2.8-.2 1.2h-.2c-.2-1-.2-1.9-.2-3.1.2.2.6.2 1 .4 0 0 .2-.2.8-.4-.2 1.5-.4 2.7-.6 4.2zm1.1-10.5c.6.8.2 1-.2 2.3-.2-.7-.2-1.7.2-2.3zm.6 10.1c-.2-.2-.2-.2-.4-.2.2-.8.6-1.9.8-2.9.6.8.4 1.8-.4 3.1zm.2-5.8c.2-.4.4-.8.6-1h.2c-.2-.2-.2-.4-.2-.6s0-.2.2-.2c0 .2.2.2.2.2 0 .8-.4 1.4-1 1.6zm61.5 75.1h.2c0 .2.2.4.2.6v1c-.6 0-.6-.4-.4-1.6zm1 9.3c-.6-.4-1-.8-.6-1.6.2.5.8.7.6 1.6zm3.1-.2-.6-1.2c.8-.1.8.1.6 1.2zm-.2-3.8c-.2.2-.2.6-.2 1-.2 1-1 2.1-1.9 1.9-.2 0-.6-.4-.6-.6-.2-.8-.6-1-1.2-1.4-.6-.4-1.2-.8-2.1-.8-.2-.2-.4-.6-.4-.8v-2.1c-.2-.6.6-2.1 1-2.3-.2 1.2-.4 2.5-.6 3.7h.4c.2-.4.2-1 .4-1.6.2.4.4 1 .6 1.4.2-.2.4-.2.6-.4v.8c-.2.4-.2.8.4 1 .6.2.8-.4 1-.8.2-.4.2-.8.2-1.2.2 0 .2 0 .4.2 0 .2 0 .4.2.8 0-.2.2-.2.4-.4 0 .8 0 1.4.2 2.1h.2c0-.2.2-.6.4-.8.2-.8.2-1.7.4-2.5 0-.2.2-.2.2-.4.2.2.4.2.4.4.2 1 .2 2-.4 2.8zm1.5-42.2h-.2c.2.2.2.4.2.6s0 .2-.2.2c0-.2-.2-.2-.2-.2 0-.8.4-1.4 1-1.7-.2.5-.4.9-.6 1.1zm.4-3.7c-.6-.8-.4-1.9.4-3.1.2.2.2.2.4.2-.2.8-.6 1.9-.8 2.9zm1.1 7c-.6-.8-.2-1 .2-2.3.2.7.2 1.7-.2 2.3zm.3 42.2c-.4-1.4 0-3.1.6-3.9h.2c-.2 1.3-.4 2.7-.8 3.9zm1.3-44.7v-1.9c.4.5.4.9 0 1.9zm-.4-4.3s-.2.2-.8.4c.2-1.4.4-2.7.6-4.1.4.8-.2 1.7.6 2.3 0-.4.2-.8.2-1.2h.2c.2 1 .2 1.9.2 3.1-.2-.3-.6-.3-1-.5zm3.1-.4c0 .4-.4.6-.4 1s0 .8-.4 1c-.2 0-.4.4-.4.8-.2.2-.2.4-.4.6l-.2-.2c0-.2.2-.4.2-.6.2-.8.4-1.4 0-2.3-.2-.2-.2-.4-.2-.6.2-1 .6-1.9.8-2.9.2-1 .6-1.9.8-2.9h.2c0 .6-.2 1.2-.4 1.9v1h-.6c.2.4.2 1 .8 1.4 0 .2.2.6.4 1 0 .4 0 .6-.2.8zm101.6 39.1h1.6v.2h-1.6v-.2zm1.6-11.1c0 .6-.4 1-1.2 1 0-.6.6-.6 1.2-1zm-.4-50.5.2-.4c.6-.2 1 0 1.4 0-.1.4-1.4.8-1.6.4zm6.4 3c.4-.2.8-.4 1.4-.4.6 0 1.4.2 2.3.4-.4.6-.8 1-1.4.6-.6-.2-.6-.2-1 .2 0 .4-.6.4-1 .4-.2.2-.6-.2-.6-.4-.1-.1.1-.8.3-.8zm-6.6 3.6c.6-.2 1.4-.2 2.1-.4v.2c-.2.2-.6.4-1.2.8-.2-.2-.4-.2-.8-.4v-.2zm-1.4-13.7c.6-.2 1-.4 1.7-.6.6-.2 1.2-.4 1.4.6 0 .2.2.4.4.6-.8.5-2.9.1-3.5-.6zm7.4 0c0 .2-.2.2-.6.4l-.4-.4c.2-.2.4-.2.6-.2.2 0 .4 0 .4.2zm-.6-.8c-.4.2-.8.2-1.2.2.8-.8.8-.8 1.2-.2zm-.6 2.7c-.6-.2-1-.2-1.6-.4 0 0-.2-.2-.2-.4.2-.2.4-.4.4-.8.2.2.4.2.6.4.1.4.4.8.8 1.2zm.2-59.2c.8-.2 1.9-.4 2.7-.4 1-.2 1.9-.2 2.9-.4.2.8 1 1.2 1.9.8.4-.2.8-.2 1.2-.4l-.4-.4c.2 0 .4-.2.6-.4 1 0 2.1-.2 3.3-.2.6-.2 1.4-.2 2.1-.2.2 0 .4 0 .6.2v.2h-.6c-1.4 0-2.9.6-4.3 1.2-.6.2-1.4.2-2.1.4-.2 0-.4.2-.4.2v.2h.4c.6 0 1.2-.2 2.1-.2.2 0 .4 0 .6-.2.4-.6.8-.6 1.7-.6.2 0 .4-.2.6-.2.2 0 .6.2.8.4-.2 0-.4.2-.6.4-.4.2-.8.4-1.4.6h-.2c-1 0-2.1.4-3.1.2-1.4-.2-2.7.4-3.9.4h-1c0-.2 0-.2-.2-.2.4-.2.6-.4.8-.4.8-.2 1.6-.2 2.5-.2v-.4c-.8 0-1.7.2-2.5.2s-1.7.2-2.3.2v-.4c.2 0 .6 0 .8-.2v-.2c-.4 0-.8.2-1.2.2-.4 0-.8.2-1.2.2-.2 0-.2-.2-.2-.4zm13.8 1.6v.2c-1 .2-2.1.4-3.1.4V28c1 .1 2.1-.2 3.1-.2zm-4.8.3c-2.1.2-4.1.6-6.2.8.5-.4 5.2-1.3 6.2-.8zm-4.9 3.7c-.2 0-.2-.2-.2-.2h-1.4c-.8 0-1.4.2-1.6-1 .2 0 .4-.2.6-.2 1.2-.2 2.3-.6 3.5-.8.2 0 .6 0 1 .2 0 0 .2.2.2.6h.2c1.4-1.2 3.3-1 5-1.2 1-.2 2.1-.4 2.9-.6.6-.2.8-.2 1.2 0 .4.2.6.2.8.4 0 .4 0 .4-.6.4-.4 0-.8 0-1.2-.2h-1v.2h.8v.6c.4 0 .6 0 1 .2h.6c-.2.2-.2.4-.4.6-.2 0-.8.2-1 .2-1.4-.4-2.5.2-3.7.6-1 .4-1.9.6-2.9.8-3.5 1.2-7 .6-10.5.8h-1c2.3-1 5-1.4 7.7-1.4zm10.3 1.4c-.6 0-1-.2-.8-1 0 0-.2 0-.2-.2-.4.6-1 1-1.6 1.7 1.2.2 2.1.4 3.1.4.2 0 .6 0 .6.6v.2c0 .1-.1.2-.2.4-.1.1-.1.2-.2.2-1.2.8-2.3 1.7-3.9 1.4-1.2-.2-2.7.2-4.1.2h-.6c-1.4-1-3.1-.6-4.7-.6-1.9.2-3.7.2-5.4.8-1.7.6-3.3.6-5 .8-.2 0-.4 0-.8-.2 0-.6.2-1.2 1-1.4 1.4-.4 3.1-.6 4.7-1-.2.4-.2.4-.2.8 1.2-.2 2.3-.4 3.5-.4v-.2h-2.1v-.2c2.5-.6 5-.6 7.4-.6v-.2h-3.9c.6-.8 1.4-1 2.3-1 1 0 2.1-.4 3.3-.4.4-.2.8.2 1.4.2 1.2-.2 2.3-.2 3.7-.4 0-.2-.2-.4-.2-.8 1-.4 2.4-.5 3.8-.3 0 .1 0 .3.1.5.4.2.8.2 1.2.4h.1c-.8 0-1.5.2-2.3.3zm3.5-10.5c-.4 0-.6 0-1-.2v-.2h1.2c0 .2-.2.6-.2.4zm0-1.5c-1.2.4-2.5.6-3.7 1 .2.2.2.6.2.8-1.7.6-1.9.6-2.9-.2 2.3-.8 4.5-1.7 6.6-2.3l.2.2c-.2.3-.2.5-.4.5zm-4.9 138.3c-.2-.2-.4-.2-.8-.4v-.2c.4 0 .6-.2.8 0 .2 0 .2.4.2.6h-.2zm3.3-2.3c-.2-.4-.4-.4-.4-.6-.2.2-.4.4-.6.8-.2-.4-.4-.4-.4-.6.2-.2.4-.4.6-.4h.2c.2-.2.4-.2.6-.4v1.2zm4.3-3.1c0 .2-.2.2-.2.4-.2-.2-.4-.2-.2-.4v-1.2h.4v1.2zm2.9-5.4.2-.2h.4c0 .8 0 1.7.2 2.7 0 .2-.2.4-.4.6l-.2.2c-.2-.2-.2-.2-.2-.4v-2.9zm.4 7.9c0-.6-.6-1.2.2-1.7.2 0 .2-.4.2-.8h.2c0 .2.2.6.2.8-.2.4-.6 1-.8 1.7zm2.1-2.9c0 .2-.2.2-.2.4-.2-.2-.2-.4-.2-.4 0-.4.2-1 .4-1.4h.2c0 .6-.2 1-.2 1.4zm3.1 6.6c0-.6.2-1 .4-1.7h.2c0 .6 0 1 .2 1.7h-.8zm2.4-19.6c-.2-.4-.4-.8-.8-1.4-.2 1-.2 1.6.4 2.3v.4c0 1.4-.2 2.9-.4 4.3.2 0 .4.2.4.2.2.4.2.8.2 1.2 0 .4-.2.8-.4 1.2-.2.4-.8.6-1.2.8-.2 0-.6-.2-.6-.4 0-.4 0-.8-.2-1-.4-.2-.8-.2-1.4-.4.2-.2.2-.4.2-.6-.2 0-.4.2-.8.2h-.8c0-.2 0-.6.2-.8-.8 0-1.4 0-2.1.2v-2.7h.2c.2.6.4 1 .6 1.9v-1.2c.2-.8.4-.8 1.2-.4 0 .2.2.2.2.2.6-.8.4-1.4-.2-2.3.4 0 .6 0 .8.2 0-1.4.2-3.1.8-4.3.8.4.2 1 .2 1.4 0 .8-.2 1.6-.4 2.3 0 .2-.2.4 0 .4.2.6-.8 1-.2 1.4.4.2.8.4 1.7.6-.8-1.2-.8-2.7-.6-4.1.2.4.4.4.4.6.2 0 .2-.2.2-.2 0-.8.2-1.4.6-2.3.4-.6.4-1.4.8-2.1.2-.6.4-1.4 1-1.4.2.4.2 1 .2 1.4 0 1.5 0 2.9-.2 4.4zm38.8-1.9c1 1.2 1.9 2.4 2.9 3.7.1.8.3 1.6.4 2.3-.4-.5-.8-1.1-1.2-1.6-.2-.2-.2-.6-.2-1 0-.6-.6-1.2-1-1.7-.4-.6-.8-1-1-1.4-.1-.1-.1-.1.1-.3zm.6 3.5c.7 1.4 1.7 2.5 2.8 3.5.1.3.2.5.2.8 0 .2.2.6.2 1v.6c-.1.1-.1.3-.2.4-1.3-1.7-2.4-3.6-3.7-5.4l-.2-.2c-.2-.8-.4-1.4-.6-2.1.7.6 1.3.8 1.5 1.4zm-3.5-15.6H478c.4.6.6.8 1 1.2 0 0-.2.2-.4.6-.4-1-.8-1.9-1.4-2.7-.2 0-.6-.2-.4-.8.2-.4 0-.8 0-1.2 1.2.6 1.4 1.8 2.4 2.9zm17.6-81.9h.2c.2.8.4 1.7.4 2.5-.9-.9-.6-1.7-.6-2.5zm-1.7-1.3c.2 1 .4 1.9-.2 2.9-.2-1-.4-2.1.2-2.9zm-.8 7.2c.4-1 .6-1.9.4-2.9V47c.2 0 .2-.2.2-.2.4.8.8 1.9 1.2 2.7h.4c0 .2 0 .6.2 1 0-1 0-1.9.2-3.1.8 1.2.4 2.3.8 3.1v-.6c.6 2.1.4 4.1-1 6-.2-1-.4-1.9-.4-2.5-.6 0-1 0-1.4.2l-1-1h-.2c.2-.6.2-1.2.6-1.9zm-5.2-.4c.6 1.2.6 4.1 0 4.7 0-1 .2-1.7.2-2.5s-.2-1.3-.2-2.2zm.4 8.7s.2-.2.4-.2c-.2-1-.2-2.1-.2-2.9 0-.2 0-.2.2-.2v3.1c-.2.8-.2 1.9-.4 2.9 0 .2 0 .6-.4.8.2-1 .2-2.3.4-3.5zm-7.8 2.3c-.2-.2-.4-.4-.4-.6.4-1.4.6-2.7.8-4.1.2-.6 0-1.2 0-1.9.2-1.4.2-2.7.4-3.9 0-.2 0-.4.2-.6h.2v2.3c-.2 1.9-.4 3.5-.4 5.2-.2 1.2-.2 2.5-.6 3.5v2.5c0 .4-.2.8-.8.4-.2.4-.6 1-.8 1.4l-.2-.2c.4-1.4 1-2.6 1.6-4zm-2.9 6.4c.2-.2.2-.4.4-.4 0 .2 0 .4-.2.8.2 0 .2 0 .4.2.6-1.2 1.4-2.5 2.1-3.5.2-.2.4-.2.6-.2.4.4-1 .6-.2 1.2.2-.2.4-.4.4-.6.2-.8.2-1.9.4-2.9.2-.8.2-1.7.4-2.5h.2v.8c-.2.8-.2.8.4 1.2-.6.8-.6 1.7-.4 2.5 0 .6-.6 1.2-.8 1.9 0 .4-.2.8-.4 1.2.2.2.2.2.4.2.4-1 .6-2.3 1.4-3.1.8-.8.6-1.9.8-2.7.2-1.4.6-2.9.8-4.3v-.4c-.6.2-1 .4-1.7.8 0 .2-.2.6-.4 1.2-.4-.4-.4-1.9 0-3.9l.6 1.2h.2c0-.4.2-.8.2-1 .2-1 .4-1.9.6-2.9v-.4c-.2-.8-.2-1.7-.2-2.7-.2-1.4-.2-2.7-.4-4.1v-2.1h.4c.2.2.4.4.4.6 0 1.4 0 2.7.2 4.1 0 .4.4.8.6 1.4-.6 0-.4.8-.6 1.2-.2.4-.4 1-.4 1.4.6 0 .4.4.4.8 0 .6-.2 1.2 0 2.1.2-1 .6-1.9.8-2.9h.2v2.7h.2c0-1.4.2-2.7.4-4.1h.2c-.2 5.6-.4 10.9-1.9 16.3h.2c.2-.2.2-.2.4-.2v.8c-1.2 1-1.6 2.7-2.3 4.1-.2.6-.6 1-1 1.4 0 .4 0 .8-.2 1.2v.8c-.8 1.7-1.4 3.3-2.5 5-.2.8-1 1.2-1.4 1.9-.2.2-.2.4-.2.4-.2 1.2-.6 2.1-1.4 2.9-.2.2-.2.2-.2.6.2-.2.4-.4.8-.4-.2.8-1 .8-1.4 1.2-1.2.8-2.7 1.4-3.9 2.3-1.4 1-2.9 2.1-4.3 3.1h-.2c-.4-.4-.6-.8-.8-1.2 0-.2.2-.2.6-.4 1-.6 2.1-1.2 3.1-1.7 1-.2 1.9-1 2.7-1.4.4 0 .6-.4.8-.8-1.4.8-2.7 1.4-4.1 2.3v-.2c.2-.2.2-.4.4-.6-.8-.2-2.5.6-2.7 1.2-.4-.2-.8-.4-1.2-.8h.8v-.4c-.2.2-.4 0-.8.2-.2 0-.4.2-.8.2v-.2c.6-.4 1.2-.6 2.1-1-.6 0-1 0-1.4-.2-1.2 1.2-2.7.6-4.1 1 .4-.4.6-.8 1.4-.6s1.7-.4 2.3-.8c.8-.6 1.7-1.2 2.5-1.7.2 0 .2.2.2.2l-.6.6v.4c.4-.2 1-.2 1.4-.4.2 0 .2-.2.4-.2 1.9.4 1.9-1.4 3.1-2.1-.4-.4-1.2 1-1.2-.6-.4.6-1 1-1.4 1.4 0-.2-.2-.2-.2-.2 0-.2.2-.4.4-.6-.6-.4-.4-.6.2-1 .6-.4 1.2-.8 1.9-1.2h.4c-.2.4-.4.6-.6 1 .2.2.2.2.4.2 0 0 0-.2.2-.4.2-.6 1-.8 1.7-1.2.4 0 .8-.2.6-.8 0-.2.2-.4.2-.4.2-.4.4-.8.6-1l-.2-.2c-.6.2-1 .4-1.9.8.6-1 1-2.1 1.6-2.9 1.2-1.7 1.9-3.7 2.3-5.8.4-1.1.6-1.9.8-2.7zm5.4-6.2c.2.6.6 1.4-.4 2.1.2-.9.4-1.5.4-2.1zm3.1 6.4c-.2 1-.4 2.1-.8 3.1-.4-1 0-2.1.6-3.1h.2zm-1.5 1.6c0 1.7-.2 3.3-1.7 4.5 0-.4-.4-.6.2-1 .4 0 .4-.6.6-1 .2-.6.2-1.2.4-2.1.1-.2.3-.2.5-.4zm-4.1 12.2c-.4 1-1 2.3-1.6 3.3-.2.6-.6 1.2-1.2 1.9 0 .2-.4.8-.8.2 0 0-.2 0-.2.2-.6.4-1 .8-1 1.9-.2.4-1 1.2-1.7 1.4-.6.4-1.2 1.2-2.3 1-.2 0-.4.2-.4.4-.6.4-1.2.8-1.7 1.2-.2 0-.2-.2-.2-.2.2-.2.4-.4.4-.6-.4-.6-.4-.8.2-1 .8-.4 1.7-.4 1.4-1.4 0-.2.2-.2.4-.2 1-.8 2.1-1.7 3.3-2.5v.8l1-1c1.9-1.4 2.7-3.5 3.7-5.4.4-.6.8-1 1.2-1.7l.2.2c-.1.5-.5.9-.7 1.5zm.8.6c-.4.4-.6.8-1 1.4 0-.2-.2-.2-.2-.2.4-.4.6-1 1-1.4 0 0 0 .2.2.2zm-26.4.4c.2-1 .4-2.3.6-3.5.2-1.9.4-3.7.6-5.6 0-1.2.2-2.3.2-3.5.4-3.9.8-7.8 1.2-12 0-1.7.4-3.3.6-5.2.2-2.1.6-4.3.8-6.4.2-1.4.4-2.9.6-4.1 0-.2.4-.6.8-.6.8-.2 1.6-.6 2.5-.6 2.3-.2 4.7-.4 7-.4 1 .2 2.3.6 3.3 1 .6.2 1 1 1.2 1.7.4 1.2.6 2.7.8 4.1.2 1.7.2 3.3.2 4.7-.2 3.1-.4 6.2-.8 9.1-.2 2.1-.8 4.1-1.2 6.2-.2 1.9-.6 3.7-1.4 5.4-1.2 2.5-2.7 5-4.7 6.8-1.6 1.4-3.1 3.3-5.4 4.1-1.9.8-3.7 1.7-5.8 2.5-.4.2-.8.4-1.7.4.4-1.4.6-2.6.6-4.1zm3.3 9.5c-.2 0-.6.2-1 .2 0 .2-.2.4-.2.4-.4.2-.6.2-1 .2 0 0-.2 0-.2-.2-.6.2-.6.2-.8 0-.2 0-.4 0-.6.2v-1c.4 0 .8-.2 1-.2.2 0 .2.2.2.4 1-.2 1.9-.8 2.7-.4-.1.2-.1.2-.1.4zm-.8-1c0-.2.2-.4.2-.6-1 .2-2.1.4-3.1.8.2-.8 2.9-1.7 4.3-1.7-.4.4-.8.6-1.2 1h1.9c0-.4-.2-.4-.2-.6.8-.2 1.6.2 1.6 1-1 .1-2.3.1-3.5.1zm7.2 35.5c-.2-.4-.4-1-.8-1.4 0-.4-.2-.6-.4-.8-.8-.4-.2-.8.2-1.2.6 1 1.2 2.3 1.2 3.5h-.2zm-1-36.4c-.4.2-.8.2-1.2.4-.6.4-.8.2-1.2-.4 1.4.2 2.5-1.2 4.1-.8-.7.2-1.1.6-1.7.8zm4.3 41.3h-.4c0-.4-.2-1-.4-1.4-.8-1-.6-2.5-1.7-3.5v-.6h.4c.2.4.2.6.4 1 .4.6.6 1 .8 1.7.4.8.6 1.7.8 2.5.1-.1.1.1.1.3zm5.6-34.2c-.6.4-1 .2-1.2-.4.6 0 1.2-.2 2.1-.4-.4-.2-.4-.4-.6-.4.4-.4.8-.6 1.2-.8.2 0 .2 0 .2.2-.2.2-.6.4-.8.6 0 .4 1-.4.6.4.2 0 .4 0 .4-.2.2-.4.4-.8.8-1.2.2-.4.6-.8 1.2-1-.4-.2-.4-.4-.6-.4.4-.6 1.4-.6 1.4-1.9-1.6 1-2.9 2.1-4.1 2.9-.4.2-.6.2-1 .4-.4 0-.8.2-1.2.6-.4.2-.6.4-1 .6s-.8.4-1 .6c-.2 0-.2-.2-.2-.2 1-.8 1.9-1.4 2.9-2.1 1.6-1 3.3-2.3 5-3.5.8-.6 1.4-1.7 2.1-2.5.8-1 1.4-2.1 2.3-3.1V85c-3.7 4.5-8 8.5-13.4 10.9-.2 0-.2-.2-.2-.2.4-.4.6-.8 1.2-1 1.9-.8 3.5-2.1 5-3.7.4-.4 1.2-.8 1.6-1.2.4-.4.8-1 1.2-1.4.6-.4 1.2-.8 1.7-1.2.8-1 1.4-2.1 2.1-3.1.2-.2.2-.6.4-.8 1.4-1.2 1.9-3.3 2.7-5 1-1.7 1.4-3.5 2.3-5.2 0 .6 0 1.2-.2 1.9-.8 1.9-1.4 3.7-2.3 5.6-.2.6-.6 1-.8 1.7-.2.2-.2.4-.2.8h.2c.4-.6.8-1.2 1.2-1.7 0-.4.2-.6.4-.8.6-.6 1-1.2 1.4-1.7.4-.8 1-1.7 1.4-2.5 0-.2 0-.6-.2-.8v-.8c.2-.6.4-1.2.8-2.1 0 .8.2 1.4.2 2.1h.2c1-.8 1-2.5 1.9-3.5 0 .4 0 1 .2 1.4 1 0 .6-.8.8-1.4.2-1.9.6-3.7 1.2-5.6.4.6.2 1.2.2 1.9-.4 1.2-.6 2.7-1 3.9-.4.8-.6 1.7-.2 2.7.4.2.8.2 1.2.4.2-1.7.4-3.3.6-5 .4 1 .2 2.1 0 3.1-.2.4 0 .8 0 1.2h.2c0-.2.2-.6.2-.8h.2c0 .6 0 1.4-.2 2.1-.4 1.7-.8 3.3-1.4 5-.4 1.7-.8 3.1-1.4 4.7-.2 1.2-.6 2.5-1 3.7v.6c.6.8.2 1.2-.2 1.7-.8 1.2-1.4 2.5-2.3 3.5h-.8c0 .2.2.4.2.6v.8c-.4.6-.8 1.2-1.4 1.7-1.2 1-2.5 2.3-3.9 3.3-1.7 1-3.3 2.3-5 3.3-1 .4-1.7 1.2-2.5 1.9-.6.2-1 .2-1.2-.4-.6-.8-1-1.7-1.7-2.5.4-.4 1-.8 1.7-1.2-.6-.2-1-.4-1.2.2-.4.4-.8.4-1.2-.2 0-.2-.4-.4-.4-.8-.2-.2-.4-.4-.6-.8.8-.2 1.4-.4 2.3-.6 0 0 .2 0 .2-.2 1-.8 2.1-1.7 3.1-2.7-.8-.1-1.2.4-1.8.6zm-1 26.6c.8.8 1.2 1.7 1.4 2.7-.6-.4-1-.6-1.4-1-.2-.2-.4-.4 0-.8.2-.1 0-.5 0-.9zm1-.2h.4c0 .4.2.8.4 1.2-.2 0-.2 0-.4.2-.2-.6-.2-1-.4-1.4zm-2.3 24.1c-.2-.6-.4-1.2-.6-1.9-.2-.4-.2-1-.6-1.7 1 .7 1.4 2.4 1.2 3.6zM485 157c0 .2-.4.4-.6.8.2 0 .4 0 .6.2-.6.2-1 .2-1.4.2-.4-.4-.8-1-1.4-1.4 0 .2-.2.2-.2.2.4.4.6.8 1 1.2.2 0 .2.2.2.4h-.6c-.6-.8-1.2-1.6-1.9-2.3l-1.2-1.2c-.4-.4-.8-1-1.2-1.4-.4-.6-.8-1.4-1-2.1-.2 0-.2.2-.2.2 0 .4.2 1.2.4 1.7.6 1 1.4 1.9 2.3 2.9 0 0 0 .2.2.4l-.2.2c-.6-.6-1.2-1.4-1.9-2.1 0 0-.2 0-.2.2.2.2.4.6.6 1h-.3c-.4-.4-1-.8-.8-1.7 0-.4-.2-.8-.4-1-.6-1.2-1.2-2.3-1.9-3.3-.4-.6-.8-1.2-1-1.9-.2-.2-.2-.2-.2-.4.6-1-.2-1.9-.4-2.9 0-.2-.2-.2-.4-.2-.2-.2-.4-.4-.4-.6-.4-1.2-.8-2.5-1-3.7 0-.8-.2-1.9.8-2.5.4.8.8 1.7 1.2 2.5.2.4.4.6.6 1 .2.2.2.6.2 1 1.7.4 1.7 2.3 2.9 3.3 0-.6-.2-1-.2-1.7l.6.6c.6.6 1.2 1.4 1.9 2.3.6.4 1.2.4 1.7.8.4.2.8.6 1.2 1 .4.4.6.8 1 1.2v-.6c.2 0 .2 0 .2.2.3.3.6.5.9.8-.4.5-.3.9-.1 1.3.2.6.4 1.2.8 1.9.2.3.3.8.6 1.1-.1.1-.1.2-.2.4.1-.1.3-.2.4-.2l.2.2c-.6.3-1.2 1-1.2 2zm.8-.6c.2 0 .3 0 .5.2-.4.3-.4.5-.2 1-.3 0-.5-.1-.7-.2 0-.2.2-.6.4-1zm.9 4c-.2-.1-.3-.3-.5-.3-.2-.2-.2-.3-.2-.5.3.2.6.5.7.8zm.1 3.2c-.1.2-.1.3-.2.5-.4-.3-.7-.6-1-.9 0-.2 0-.3.1-.5.2.1.5.2.7.3l.4-.4h.5c0 .1.1.1.1.2-.1.2-.6.6-.6.8zm-.4-16.1c-.1-.2-.1-.5-.1-.9.1.1.2.1.3.1-.1-.2-.2-.3-.3-.5.1-.5.2-.9.4-1.5.3.4.6.7.9 1.1-.3.6-.7 1.1-1.2 1.7zm1.9 13.6h-.4c.1-.1.2-.1.4-.2v.2zm9.1-27.2c0-.6.6-1.2 2.3-1.7-.5.8-1.7 1.1-2.3 1.7zm5.1-5c-.2-.8 1.2-2.3 2.5-2.3-.8.7-1.6 1.5-2.5 2.3zm35.7-15.7c.2.2.2.2.4.2.6-.6 1.2-1.4 1.9-2.1.2 0 .2 0 .4.2-.6 1.4-1 3.1-2.1 4.5.2 0 .2 0 .4.2 1-1.2 2.3-2.5 3.3-3.7l.2.2c0 .2 0 .6-.2.8-.6 1-1.2 2.1-1.9 3.1-.8 1-1.4 1.9-2.3 2.9-.4.8-.8 1.4-1.2 2.3-.4.6-.8 1.2-1.2 1.9-.4.8-1 1.2-.8 2.3 0 .4-.4.8-.8 1.2h-.6c-1 .6-2.3.4-2.5-.4-.4.2-.8.4-1.2.4-.2.2-.6 0-1 0-4.1.2-8.5.2-12.6.2h-1.2c-.8-.2-1.7-.2-2.3.2-.6.2-1.2.2-1.9.2 0-.2.2-.4.4-.6 0-.2.2-.2.2-.4v-.2c-.6.2-1 .4-1.4.8-.4.2-.6.4-1 .6-.2.2-.4.6-.8.2-.2 0-.4.2-.4.2-1 .4-2.3 1-3.3 1.4-.2.2-.4.2-.8.2 1.2-1.2 2.3-2.3 3.5-3.1.2-.2.4-.2.8-.4l.6-.6c0-.2-.2-.4-.4-.6 0 0-.2 0-.6-.2 1-.6 1.9-1.4 2.7-2.1l.2.2c-.2.4-.4.6-.6 1v.2c.2-.2.6-.2.8-.4l1.2-1.2c.2-.2.4-.2.6-.2-.8 1-1.9 2.1-2.7 3.1l.2.2c1-1 2.1-2.1 3.3-2.9 1-1 1.7-2.5 3.3-2.9-1 1.4-2.5 2.7-3.5 3.9 0 .2 0 .2.2.2.8-.8 1.9-1.9 2.9-2.7 0 0 .2 0 .2.2-.6.8-1.4 1.9-2.3 2.9.2 0 .4 0 .6-.2.6-.6 1-1 1.6-1.7 1-.8 2.1-1.7 2.9-2.5.6-.4 1.2-.8 1.2-1.7 0-.2.2-.4.2-.6.8-.6 1.6-1.4 2.3-2.3.2 0 .4-.2.8 0-1.9 2.1-2.7 4.7-5.6 6 0 0 .2 0 .2.2.2-.2.4-.2.6-.4l.2.2c-1 1-1.9 2.1-2.7 3.1l.2.2c0-.2.2-.2.4-.2l4.1-4.1c1-1 1.7-2.3 2.7-3.3 1.9-1.9 3.7-3.5 5.6-5.2.2-.4.4-.8.6-1 1.4-1.2 2.7-2.5 4.1-3.7.2-.2.4 0 .6-.2v.2c2.3-2.3 4.3-4.5 6.4-6.8 0 0 .2 0 .2.2-.4.6-.8 1-1.2 1.7-.2.4-.2.8-.2 1-.2.4-.2.6-.4 1 0 .2-.2.4-.2.6h.2c.4-.4.8-1.2 1.4-1.7.6-.2 1.4-.2 2.3-.4-1.2 1.9-2.5 3.7-3.7 5.4 0 .2 0 .2.2.2 1.4-1.9 3.1-3.7 4.5-5.6.2 0 .2 0 .4.2-1.8 3.7-4.3 6.7-6.6 10z"/></svg>