<?xml version="1.0" standalone="no"?>
<!DOCTYPE svg PUBLIC "-//W3C//DTD SVG 20010904//EN"
 "http://www.w3.org/TR/2001/REC-SVG-20010904/DTD/svg10.dtd">
<svg version="1.0" xmlns="http://www.w3.org/2000/svg"
 width="4167.000000pt" height="4167.000000pt" viewBox="0 0 4167.000000 4167.000000"
 preserveAspectRatio="xMidYMid meet">
<metadata>
Created by potrace 1.14, written by Peter Selinger 2001-2017
</metadata>
<g transform="translate(0.000000,4167.000000) scale(0.100000,-0.100000)"
fill="#000000" stroke="none">
<path d="M23007 40113 c-1 0 -78 -4 -172 -8 -93 -3 -186 -8 -205 -10 -122 -11
-350 -23 -570 -30 -152 -6 -188 -10 -280 -36 -58 -16 -118 -32 -135 -35 -16
-3 -49 -9 -73 -15 -24 -5 -75 -12 -115 -15 -40 -3 -87 -7 -104 -10 -18 -3 -34
-5 -35 -4 -2 0 -28 -8 -60 -19 -73 -25 -170 -74 -286 -145 -127 -78 -215 -121
-290 -141 -61 -17 -103 -17 -250 -1 -80 9 -183 -36 -392 -171 -204 -132 -217
-138 -350 -168 -166 -38 -296 -61 -400 -70 -30 -2 -77 -9 -104 -14 -54 -10
-221 -8 -336 4 -102 11 -141 9 -205 -12 -11 -4 -24 -8 -30 -9 -11 -2 -404
-104 -500 -129 -33 -9 -98 -27 -145 -41 -47 -14 -94 -27 -105 -30 -11 -2 -99
-29 -195 -59 -96 -31 -238 -71 -315 -91 -319 -80 -835 -246 -890 -285 -5 -4
-54 -30 -108 -59 -179 -93 -416 -250 -652 -428 -126 -96 -385 -301 -406 -321
-9 -9 -31 -27 -49 -41 -18 -14 -86 -68 -150 -120 -64 -52 -136 -111 -160 -130
-304 -242 -499 -442 -726 -746 -295 -394 -486 -686 -899 -1369 -192 -316 -224
-373 -329 -590 -125 -254 -226 -498 -365 -880 -35 -93 -76 -206 -93 -250 -16
-44 -31 -87 -33 -95 -5 -18 -67 -198 -124 -355 -75 -209 -113 -308 -366 -955
-128 -329 -251 -657 -311 -835 -24 -71 -48 -139 -54 -150 -5 -11 -19 -45 -30
-75 -12 -30 -27 -68 -34 -85 -7 -16 -28 -68 -46 -115 -17 -47 -36 -94 -41
-105 -60 -139 -338 -998 -364 -1130 -3 -11 -18 -74 -35 -140 -17 -66 -47 -190
-66 -275 -20 -85 -37 -162 -39 -170 -10 -40 -188 -868 -191 -885 -1 -11 -19
-99 -39 -195 -19 -96 -37 -186 -40 -199 -2 -14 -9 -47 -14 -75 -6 -28 -13 -62
-15 -76 -3 -14 -19 -95 -36 -180 -16 -85 -32 -166 -35 -179 -2 -14 -9 -47 -14
-75 -6 -28 -13 -62 -15 -76 -18 -94 -66 -349 -70 -366 -2 -12 -7 -37 -10 -55
-3 -19 -7 -43 -10 -54 -13 -68 -46 -246 -52 -280 -3 -22 -9 -58 -14 -80 -5
-22 -12 -56 -15 -75 -3 -19 -14 -82 -25 -140 -11 -58 -22 -118 -24 -135 -3
-16 -17 -82 -32 -145 -14 -63 -27 -122 -29 -130 -2 -8 -15 -63 -29 -123 -14
-59 -28 -118 -30 -130 -8 -34 -12 -54 -41 -167 -14 -58 -28 -116 -31 -130 -2
-14 -9 -36 -14 -50 -4 -14 -29 -99 -54 -190 -25 -91 -57 -199 -71 -240 -14
-41 -44 -163 -66 -270 -23 -107 -42 -202 -44 -210 -2 -8 -29 -118 -60 -245
-62 -251 -58 -237 -78 -315 -20 -76 -68 -280 -74 -310 -2 -14 -8 -41 -13 -60
-20 -77 -161 -826 -184 -980 -3 -19 -8 -44 -10 -56 -5 -24 -46 -269 -51 -299
-1 -11 -5 -36 -9 -55 -3 -19 -8 -51 -11 -70 -2 -19 -6 -44 -9 -55 -4 -19 -32
-198 -41 -260 -2 -16 -11 -70 -19 -120 -17 -103 -23 -142 -37 -239 -5 -38 -11
-78 -14 -90 -2 -12 -7 -41 -10 -66 -3 -25 -7 -56 -9 -70 -3 -14 -7 -43 -11
-65 -14 -97 -34 -234 -40 -275 -3 -25 -8 -58 -11 -75 -8 -52 -14 -94 -19 -128
-8 -61 -16 -114 -19 -138 -3 -13 -7 -46 -11 -72 -4 -27 -8 -58 -11 -70 -2 -11
-6 -43 -9 -71 -3 -28 -12 -91 -20 -141 -7 -49 -16 -112 -20 -139 -3 -27 -8
-52 -10 -55 -4 -7 -62 -292 -71 -347 -3 -21 -14 -84 -24 -139 -11 -55 -24
-131 -30 -170 -6 -38 -13 -81 -15 -95 -2 -14 -6 -43 -10 -65 -3 -23 -7 -50 -9
-61 -2 -12 -7 -45 -11 -75 -4 -30 -8 -56 -10 -59 -1 -3 -6 -30 -9 -61 -4 -31
-9 -67 -11 -80 -12 -59 -29 -161 -40 -244 -3 -16 -7 -41 -10 -55 -3 -14 -12
-65 -21 -115 -8 -49 -22 -120 -30 -157 -7 -37 -16 -80 -19 -95 -3 -16 -7 -37
-9 -48 -23 -110 -48 -237 -51 -265 -3 -19 -7 -46 -10 -60 -2 -13 -7 -42 -10
-65 -4 -22 -9 -53 -12 -70 -3 -16 -7 -40 -8 -52 -2 -12 -6 -34 -9 -50 -8 -39
-17 -91 -22 -133 -4 -33 -18 -114 -29 -170 -3 -14 -8 -45 -11 -70 -6 -45 -9
-63 -19 -110 -5 -29 -12 -69 -20 -125 -3 -22 -10 -65 -16 -95 -14 -82 -17
-101 -23 -140 -3 -19 -7 -44 -10 -55 -2 -11 -13 -78 -25 -150 -12 -71 -23
-141 -26 -155 -3 -14 -7 -42 -10 -63 -3 -21 -7 -48 -10 -60 -2 -12 -7 -40 -10
-62 -3 -22 -7 -47 -10 -55 -4 -14 -6 -30 -21 -127 -5 -41 -21 -133 -29 -173
-3 -13 -7 -42 -10 -65 -3 -22 -12 -76 -20 -120 -8 -44 -17 -96 -19 -115 -3
-19 -8 -46 -10 -60 -5 -26 -24 -141 -32 -195 -3 -16 -10 -57 -16 -90 -13 -75
-15 -91 -22 -135 -3 -19 -8 -46 -11 -60 -2 -13 -7 -40 -10 -60 -3 -20 -7 -45
-9 -57 -3 -11 -7 -38 -10 -59 -4 -22 -16 -93 -27 -159 -11 -66 -22 -131 -24
-145 -4 -29 -13 -83 -20 -120 -3 -14 -7 -38 -9 -55 -3 -16 -14 -86 -25 -155
-11 -69 -23 -145 -26 -170 -3 -25 -8 -57 -11 -71 -2 -15 -6 -47 -9 -70 -3 -24
-7 -51 -10 -59 -2 -8 -7 -44 -10 -80 -4 -36 -8 -67 -10 -70 -1 -3 -6 -36 -10
-73 -3 -37 -8 -76 -10 -85 -1 -9 -6 -46 -11 -82 -4 -36 -8 -67 -9 -70 -1 -3
-5 -34 -9 -70 -5 -36 -10 -72 -11 -80 -2 -8 -6 -37 -9 -65 -3 -27 -11 -81 -16
-120 -5 -38 -12 -90 -15 -115 -4 -25 -8 -57 -11 -72 -2 -16 -6 -40 -8 -55 -3
-16 -8 -47 -11 -70 -11 -80 -14 -98 -18 -118 -3 -11 -8 -47 -12 -80 -4 -32 -8
-66 -10 -75 -2 -8 -6 -46 -9 -85 -4 -38 -9 -88 -11 -110 -5 -44 -16 -185 -20
-255 -11 -177 -17 -270 -20 -300 -2 -19 -6 -73 -10 -120 -4 -47 -8 -96 -10
-110 -14 -106 -17 -255 -21 -1057 -2 -500 -5 -1014 -6 -1143 -1 -214 4 -380
16 -485 3 -22 7 -62 11 -90 3 -27 7 -62 10 -78 3 -15 10 -55 16 -89 6 -34 12
-80 14 -102 4 -43 9 -78 25 -161 10 -51 12 -64 30 -150 29 -140 129 -454 275
-865 21 -58 53 -148 71 -200 98 -286 188 -497 294 -685 31 -56 143 -227 161
-245 8 -8 23 -33 35 -55 139 -264 298 -493 615 -882 90 -111 199 -250 242
-310 164 -228 239 -318 436 -513 185 -184 305 -267 741 -518 239 -136 741
-385 1030 -509 19 -8 58 -25 85 -38 28 -12 95 -42 150 -65 55 -23 118 -50 140
-60 22 -10 105 -45 185 -78 80 -33 181 -77 225 -97 44 -21 114 -53 155 -72 41
-19 111 -51 155 -70 44 -19 94 -40 110 -48 162 -71 347 -112 535 -120 48 -2
121 -21 285 -74 121 -39 225 -73 230 -75 6 -2 17 -6 25 -9 21 -8 360 -118 500
-162 63 -20 135 -38 160 -40 25 -3 63 -7 85 -9 22 -3 69 -8 105 -11 36 -3 81
-8 100 -10 48 -6 122 -13 200 -20 36 -3 76 -7 90 -10 14 -2 57 -7 95 -10 39
-3 81 -8 95 -10 14 -2 57 -6 95 -10 70 -6 86 -8 200 -20 33 -4 78 -8 100 -11
202 -18 411 -46 437 -58 18 -7 104 -48 192 -91 87 -42 170 -79 185 -82 46 -9
194 -9 246 -1 85 14 156 16 189 6 17 -5 51 -11 76 -13 72 -6 160 -20 220 -35
19 -5 52 -11 74 -14 21 -4 41 -8 45 -10 3 -2 24 -7 46 -11 195 -33 213 -34
1400 -34 1131 0 1183 1 1253 19 114 30 144 32 517 34 l350 1 58 29 c49 24 111
43 201 61 10 3 42 11 70 19 28 8 62 17 76 19 14 3 88 21 165 40 132 34 152 36
350 41 241 6 364 17 490 42 11 2 34 7 50 10 17 3 64 12 105 20 41 9 83 18 92
19 37 8 260 69 408 112 413 120 386 111 559 210 141 82 180 95 296 99 123 5
217 12 236 18 8 3 32 7 54 10 22 3 56 10 75 16 19 6 44 13 55 15 65 14 273
121 320 166 17 15 202 110 495 253 30 15 62 31 70 36 8 5 53 30 100 56 93 51
202 121 265 169 32 24 245 207 291 250 6 5 55 51 110 100 54 50 110 101 125
115 14 14 70 66 125 115 54 50 111 101 125 115 14 14 59 54 100 90 225 199
382 353 673 660 309 326 588 692 763 1001 57 101 75 135 163 324 73 155 417
846 468 940 69 129 110 202 152 270 20 33 85 157 143 275 59 118 136 269 172
335 74 136 375 742 395 795 13 34 82 170 132 260 14 25 38 68 53 95 15 28 51
91 80 140 28 50 51 92 51 95 0 3 14 35 32 72 17 37 45 111 61 165 16 54 47
136 69 183 62 134 145 366 217 605 36 121 91 299 122 395 31 96 57 180 59 185
1 6 18 62 37 125 35 113 91 316 102 375 3 17 8 44 11 60 5 25 34 149 49 205 3
8 25 92 51 185 25 94 47 177 48 185 2 8 6 26 10 40 16 62 105 438 109 460 3
14 22 90 42 170 20 80 38 152 41 160 12 49 58 217 79 285 29 99 84 301 91 335
3 14 9 39 15 56 5 17 12 41 14 54 2 12 11 46 19 74 8 28 22 85 31 126 9 41 18
82 20 90 2 8 13 58 25 110 12 52 23 102 25 110 6 24 76 363 81 390 3 14 12 63
20 110 9 47 17 92 19 100 1 8 6 35 10 60 4 25 9 54 11 65 2 11 6 34 9 50 3 17
10 53 15 80 5 28 12 70 15 95 3 25 10 70 15 100 17 99 19 114 25 160 5 39 27
177 41 250 2 14 7 41 9 60 3 19 10 55 15 80 5 25 12 61 15 80 17 104 77 346
121 484 35 113 90 368 110 511 3 28 8 59 10 70 27 148 22 632 -7 687 -18 33
-6 112 22 146 33 40 63 58 209 120 69 29 139 59 155 66 36 16 203 82 405 161
80 31 154 60 165 65 11 4 85 34 165 65 80 31 213 85 295 120 83 34 200 83 260
107 61 25 175 72 255 104 80 32 153 68 163 79 64 73 76 199 23 254 -32 33
-159 121 -241 167 -358 198 -460 263 -461 295 0 13 3 29 7 34 4 6 17 42 28 81
33 107 15 135 -105 163 -77 18 -84 19 -144 20 l-55 1 -34 56 c-88 147 -263
286 -431 340 -54 17 -99 55 -101 84 -8 132 -29 173 -99 190 -25 6 -69 8 -99 5
-42 -4 -76 2 -155 26 -56 17 -108 32 -116 34 -100 23 -152 31 -265 40 -16 2
-34 3 -38 4 -5 0 -7 11 -5 23 3 20 13 25 68 35 36 6 94 15 130 19 36 3 73 8
82 9 9 2 48 7 85 10 37 4 79 8 93 10 14 2 54 7 90 10 36 4 72 8 80 10 9 2 41
6 73 10 63 8 80 20 45 31 -26 8 -86 52 -140 102 l-36 34 -33 -23 c-18 -13 -51
-31 -72 -40 -68 -27 -164 -1 -270 73 -53 38 -110 44 -389 43 -148 0 -268 2
-269 5 0 3 -2 13 -4 23 -4 23 39 50 125 77 127 40 188 44 610 41 102 -1 194 0
206 3 12 2 45 7 75 11 30 4 57 9 62 12 4 2 18 6 32 9 13 2 37 9 52 15 l28 11
-50 23 c-152 68 -272 88 -520 87 -104 -1 -209 -3 -232 -5 -61 -5 -72 6 -37 37
70 63 72 64 384 64 345 -1 414 11 494 81 25 21 53 85 61 137 l6 41 -53 -2
c-29 -2 -84 -6 -123 -10 -122 -13 -168 -12 -235 1 -36 7 -126 25 -200 39 -74
15 -142 28 -150 30 -356 81 -615 133 -746 151 -23 3 -86 20 -140 37 -112 37
-140 62 -136 124 4 47 45 86 110 103 26 7 99 14 162 16 114 4 163 9 191 18 8
3 26 8 42 10 39 7 129 51 165 81 22 18 28 31 25 49 -5 25 -6 25 -132 28 -118
3 -126 4 -126 23 0 30 44 45 147 49 101 4 142 12 173 32 11 7 39 17 62 22 67
15 109 -18 146 -119 20 -53 52 -87 87 -92 30 -5 97 19 126 45 40 36 74 37 120
5 56 -40 107 -45 172 -17 29 12 52 26 52 31 0 4 8 10 18 14 26 8 87 62 71 62
-8 0 -39 5 -69 11 -30 7 -68 14 -85 16 -55 8 -110 16 -150 21 -135 16 -145 18
-205 30 -14 2 -38 7 -55 10 -16 2 -35 13 -42 22 -7 10 -16 22 -21 28 -9 10 77
55 104 55 23 0 16 17 -23 62 -77 84 -152 93 -280 33 -43 -20 -96 -41 -120 -48
-80 -21 -162 22 -98 51 14 7 37 12 50 12 13 0 54 14 92 31 94 43 172 68 209
69 17 0 138 43 270 96 332 134 426 165 629 210 17 3 97 8 178 9 97 2 153 8
162 15 8 7 15 9 15 4 -1 -25 -203 -193 -287 -240 -49 -27 -66 -44 -43 -44 5 0
18 -9 28 -20 17 -18 20 -19 32 -5 23 27 74 46 194 71 120 24 156 87 118 210
-14 48 -22 59 -45 65 -15 4 -47 17 -70 28 -24 12 -48 21 -55 21 -6 0 -113 62
-239 138 -355 215 -466 266 -668 308 -41 8 -103 14 -200 19 -123 6 -138 8
-305 52 -74 19 -196 47 -270 63 -150 32 -222 48 -354 80 -134 32 -278 48 -401
45 -122 -3 -196 -20 -330 -72 -49 -19 -97 -37 -105 -39 -8 -2 -40 -10 -70 -19
-30 -8 -68 -18 -85 -21 -16 -3 -55 -11 -85 -19 -30 -8 -73 -16 -95 -20 -23 -3
-51 -7 -64 -10 -13 -2 -42 -6 -65 -9 -22 -3 -57 -7 -76 -10 -57 -8 -157 -15
-285 -21 -66 -3 -139 -8 -162 -10 -24 -3 -73 -7 -110 -10 -38 -3 -90 -7 -118
-10 -27 -3 -99 -7 -160 -10 -60 -3 -141 -8 -180 -10 -38 -3 -115 -7 -170 -10
-55 -2 -129 -7 -165 -10 -36 -3 -92 -7 -125 -10 -33 -2 -96 -8 -140 -12 -74
-7 -124 -7 -392 0 l-98 2 -58 -48 c-70 -57 -138 -92 -217 -113 -80 -20 -88
-22 -167 -29 -132 -12 -258 -31 -318 -47 -45 -11 -36 -10 -200 -37 -66 -11
-142 -22 -170 -26 -67 -8 -123 -14 -165 -20 -19 -3 -62 -8 -95 -11 -33 -3 -68
-8 -79 -10 -10 -2 -44 -6 -75 -9 -65 -8 -110 -14 -131 -20 -8 -2 -35 -6 -60
-9 -25 -3 -56 -8 -70 -11 -14 -3 -38 -8 -55 -11 -16 -3 -50 -10 -75 -15 -25
-6 -61 -13 -80 -15 -19 -2 -48 -6 -65 -8 -16 -3 -61 -8 -100 -11 -38 -4 -78
-9 -87 -11 -9 -1 -48 -5 -85 -9 -37 -3 -79 -8 -93 -10 -14 -3 -43 -7 -65 -9
-22 -3 -60 -7 -85 -10 -53 -7 -90 -11 -225 -26 -55 -6 -111 -13 -125 -15 -44
-6 -123 -16 -175 -21 -27 -2 -63 -7 -80 -9 -16 -3 -111 -7 -210 -9 -175 -5
-185 -6 -320 -46 -77 -22 -149 -43 -160 -45 -11 -3 -49 -14 -85 -25 -127 -38
-705 -202 -730 -206 -21 -4 -279 -58 -329 -69 -66 -15 -222 -62 -301 -90 -95
-34 -151 -50 -202 -59 -36 -6 -122 -26 -333 -76 -93 -23 -177 -43 -186 -45
-33 -7 -86 -24 -169 -55 -47 -17 -175 -62 -285 -100 -255 -86 -312 -108 -355
-135 -185 -116 -546 -300 -735 -375 -44 -17 -101 -41 -127 -52 l-47 -21 22
-41 c30 -54 105 -127 163 -156 61 -32 134 -103 134 -131 0 -41 -72 -92 -273
-193 -108 -54 -197 -103 -197 -110 1 -27 24 -39 136 -70 168 -47 247 -62 379
-72 44 -4 81 -7 83 -9 5 -4 -167 -84 -252 -116 l-88 -33 23 -18 c96 -73 133
-105 137 -116 5 -16 -113 -132 -159 -156 -185 -94 -245 -159 -234 -253 3 -25
11 -53 17 -60 9 -11 -5 -31 -70 -96 -80 -81 -81 -82 -68 -112 18 -41 32 -51
117 -81 82 -29 163 -34 225 -14 37 12 103 47 114 60 6 7 121 62 165 78 76 28
389 87 515 97 97 7 139 12 246 30 11 2 52 6 90 10 139 13 160 16 194 25 56 15
126 65 134 94 10 42 -10 99 -54 149 -22 25 -37 48 -33 50 5 3 26 8 48 11 22 3
76 13 120 21 44 8 95 17 114 20 19 3 100 19 180 35 185 36 198 39 241 46 19 3
49 9 67 14 35 9 43 5 43 -21 0 -22 -42 -41 -163 -73 -54 -15 -110 -32 -125
-38 -15 -6 -45 -12 -67 -14 -105 -10 -171 -52 -199 -129 -14 -36 -19 -125 -8
-125 9 0 133 29 192 45 8 2 74 20 145 39 72 19 150 42 174 50 54 20 53 20 48
-1 -2 -10 8 -33 21 -52 25 -33 25 -34 6 -49 -67 -51 -214 -95 -354 -106 -123
-10 -195 -18 -204 -24 -5 -3 -43 -6 -83 -8 -106 -3 -171 -13 -228 -35 -27 -11
-59 -19 -71 -19 -11 0 -52 -11 -90 -24 -41 -14 -105 -26 -157 -30 -48 -3 -98
-11 -110 -18 -12 -6 -23 -11 -25 -10 -7 6 -63 -14 -112 -38 -103 -52 -250
-176 -250 -211 0 -25 -34 -63 -77 -84 -21 -11 -46 -26 -55 -34 -12 -9 -18 -10
-18 -3 0 6 -9 20 -20 30 -19 18 -19 18 6 55 30 45 64 122 64 147 0 17 -6 18
-52 14 -121 -11 -130 -17 -213 -131 -24 -34 -70 -82 -101 -107 -76 -59 -141
-79 -263 -78 l-96 1 50 -46 c60 -55 135 -90 213 -100 31 -4 59 -7 62 -6 3 1
62 4 132 8 83 5 133 3 145 -4 10 -6 12 -11 6 -11 -7 0 -36 -15 -65 -34 -49
-31 -301 -157 -478 -239 -129 -59 -255 -120 -259 -124 -3 -2 5 -10 17 -19 12
-8 22 -22 22 -30 0 -8 3 -13 8 -10 4 2 26 7 48 10 22 4 51 9 64 11 74 16 124
25 167 31 26 3 50 8 53 9 3 2 24 6 46 9 22 4 51 8 64 11 13 3 40 7 60 10 20 3
47 8 60 10 14 3 66 12 115 20 50 8 102 17 118 20 83 15 78 16 75 -12 -4 -32
-45 -48 -308 -123 -274 -78 -279 -79 -398 -118 -62 -20 -111 -41 -109 -47 5
-15 179 -101 240 -119 102 -29 199 -39 269 -26 24 5 68 11 98 15 30 3 62 8 70
10 8 2 39 7 69 10 30 4 62 8 71 10 9 2 41 6 70 10 29 4 60 8 69 10 9 1 39 6
66 9 52 7 182 25 225 31 95 15 160 25 195 29 173 22 250 39 695 151 168 42
312 80 320 85 16 8 136 5 180 -4 13 -3 39 -7 56 -8 22 -1 34 -8 37 -20 6 -23
-9 -32 -52 -34 -31 -2 -97 -9 -151 -18 -103 -17 -173 -27 -220 -31 -31 -2 -82
-11 -113 -19 -32 -8 -84 -18 -115 -22 -31 -3 -59 -8 -62 -9 -3 -2 -30 -6 -60
-10 -77 -9 -172 -31 -261 -60 -41 -14 -84 -27 -95 -30 -10 -2 -44 -11 -74 -20
-30 -9 -62 -18 -70 -20 -15 -3 -131 -32 -160 -39 -191 -47 -420 -110 -455
-125 -11 -5 -42 -15 -70 -22 -27 -7 -93 -30 -145 -51 -210 -87 -292 -119 -335
-130 -36 -10 -45 -16 -45 -34 0 -13 3 -25 8 -27 14 -9 177 -22 277 -22 75 0
108 4 134 17 57 30 130 39 195 26 71 -16 125 -45 283 -157 26 -18 29 -31 9
-31 -39 0 -222 -61 -276 -91 -8 -5 -24 -13 -36 -18 -35 -15 -131 -109 -157
-154 -30 -49 -44 -63 -237 -224 -80 -66 -158 -135 -174 -152 l-30 -31 37 -1
c20 -1 40 -2 45 -3 9 -2 139 -19 167 -21 21 -2 111 -14 155 -20 14 -2 66 -9
115 -15 50 -6 107 -13 128 -15 92 -12 170 -21 247 -30 30 -3 71 -8 90 -10 19
-2 58 -7 85 -10 28 -2 68 -7 90 -9 22 -3 69 -7 105 -11 36 -3 85 -8 110 -10
25 -3 79 -7 120 -11 41 -3 91 -7 110 -9 33 -3 249 -15 370 -20 30 -2 122 -4
204 -5 l148 -3 -6 -41 c-8 -57 -15 -95 -26 -136 -5 -19 -12 -53 -15 -75 -4
-22 -10 -56 -15 -75 -5 -19 -11 -57 -15 -85 -3 -27 -8 -63 -11 -80 -2 -16 -6
-68 -9 -115 -2 -47 -6 -94 -9 -106 -2 -12 -7 -45 -11 -75 -3 -30 -8 -70 -10
-89 -5 -39 -11 -111 -20 -215 -3 -38 -8 -88 -10 -110 -2 -22 -6 -76 -10 -120
-7 -83 -43 -333 -50 -344 -2 -4 -6 -27 -10 -51 -4 -25 -22 -110 -41 -190 -20
-80 -37 -152 -39 -160 -8 -34 -75 -240 -98 -301 -23 -60 -41 -137 -52 -225 -9
-67 -45 -216 -58 -243 -65 -123 -94 -187 -150 -328 -36 -88 -74 -178 -85 -200
-11 -21 -22 -63 -25 -93 -15 -130 -78 -319 -174 -520 -197 -409 -248 -502
-412 -752 -64 -98 -123 -189 -131 -202 -106 -174 -409 -597 -539 -751 -119
-142 -120 -143 -231 -255 -222 -223 -316 -295 -445 -340 -103 -36 -166 -40
-355 -26 -47 3 -118 8 -159 11 -41 3 -88 7 -105 10 -17 2 -56 7 -86 10 -30 4
-71 8 -90 11 -19 2 -98 6 -175 9 -343 12 -490 30 -736 90 -201 50 -561 169
-648 215 -95 51 -242 203 -287 299 -19 39 -20 61 -10 151 4 36 9 85 12 110 2
25 6 56 9 70 2 14 7 54 10 90 3 36 8 81 11 100 2 19 6 60 9 90 3 30 7 70 9 90
3 19 8 60 11 90 3 30 8 71 10 90 2 19 7 60 10 90 3 30 8 71 10 90 2 19 7 60
10 90 6 57 11 98 19 165 3 22 8 71 12 110 3 38 7 76 9 85 1 8 6 44 9 80 4 36
9 81 11 100 2 19 6 58 9 85 3 28 8 70 11 95 2 25 7 72 10 105 3 33 8 71 10 85
2 14 6 59 10 100 3 41 8 86 10 100 2 14 7 54 10 90 3 36 8 81 10 100 5 43 13
118 21 190 7 74 12 115 20 175 3 28 7 142 9 255 3 220 13 469 19 510 3 14 7
54 10 90 4 36 8 75 10 85 3 18 8 51 21 165 5 36 11 87 20 175 4 28 10 75 15
105 5 30 12 78 15 105 11 89 15 118 20 144 5 33 22 144 30 196 3 23 7 50 9 61
2 12 7 45 11 74 4 29 8 61 10 70 2 9 6 41 10 71 3 30 8 61 10 69 2 8 6 36 9
63 13 109 18 143 21 167 2 14 7 54 10 90 3 36 8 76 10 90 2 14 6 45 10 70 13
86 14 95 25 175 6 44 12 91 14 105 2 14 7 46 10 71 4 25 9 57 11 70 2 13 6 47
10 74 3 28 8 57 10 65 2 8 6 38 10 65 7 58 24 179 30 215 2 14 7 45 10 70 3
25 8 56 10 70 2 14 9 61 15 105 6 44 13 91 15 105 2 14 6 45 9 70 3 25 7 54
10 65 2 11 7 45 11 75 4 30 9 62 10 70 2 8 6 38 9 65 4 28 9 61 11 75 6 42 16
113 20 140 10 72 27 188 30 210 11 73 15 112 20 185 3 44 7 96 10 115 6 46 42
231 49 250 3 8 7 26 10 40 3 14 11 60 20 102 8 43 13 86 12 95 -7 36 -20 199
-21 260 0 34 7 101 16 149 10 48 20 113 23 143 4 31 8 67 10 81 3 14 7 43 10
65 4 22 8 51 11 65 2 14 7 45 10 70 2 25 7 56 10 70 2 13 7 42 10 65 3 22 8
51 10 65 3 14 7 40 10 58 3 17 7 46 10 62 8 48 14 83 20 120 3 19 10 60 15 90
5 30 12 73 15 95 4 22 8 47 10 55 2 8 7 31 10 50 3 19 10 58 15 85 10 50 12
65 25 140 3 22 10 60 15 85 6 25 12 56 14 70 3 21 24 131 82 440 3 14 23 113
44 221 22 107 42 215 45 240 3 24 10 69 15 99 5 30 12 71 14 90 6 42 41 227
55 290 5 25 13 61 16 80 6 35 46 210 65 285 6 22 13 49 15 60 2 11 12 49 20
85 9 36 18 72 20 80 2 8 10 40 18 72 9 31 18 80 22 110 10 85 15 127 30 223 8
50 16 106 19 125 3 19 12 71 20 115 9 44 18 96 21 115 3 19 12 69 20 110 18
92 18 93 54 315 16 99 32 198 35 220 2 22 9 53 15 68 6 15 8 27 6 27 -2 0 0
11 5 25 5 14 12 36 14 48 2 12 12 51 21 87 9 36 18 72 20 80 2 8 44 179 95
380 50 201 93 373 96 383 2 9 6 26 9 37 3 11 7 28 9 38 2 9 70 280 151 602 80
322 148 593 151 603 2 9 6 26 9 37 3 11 7 28 9 38 5 19 36 165 42 197 2 11 11
54 19 95 8 41 17 84 19 95 2 11 12 54 21 95 16 76 22 102 29 143 2 12 10 45
16 72 6 28 14 61 16 75 5 27 68 292 90 380 8 30 17 66 20 80 2 14 8 34 11 45
4 11 8 25 9 30 19 94 183 640 214 710 5 11 27 72 51 135 73 200 178 437 303
685 115 228 136 272 187 390 112 261 353 746 470 945 40 69 99 175 130 237
140 272 308 469 516 605 127 84 200 113 458 183 224 61 487 153 700 245 305
131 661 325 820 446 106 80 153 91 230 54 41 -19 85 -53 85 -65 0 -13 115
-242 173 -344 33 -58 93 -173 133 -256 40 -82 92 -186 117 -230 24 -44 57
-102 72 -130 32 -57 210 -367 234 -406 9 -15 32 -53 50 -85 19 -33 67 -108
106 -169 39 -60 80 -125 90 -142 11 -18 23 -33 27 -33 4 0 8 -4 8 -10 0 -18
167 -245 208 -282 120 -109 337 -155 501 -107 36 11 104 31 151 45 93 27 151
38 190 36 253 -13 366 -4 500 40 159 52 288 132 430 268 91 86 200 156 283
182 56 17 84 20 148 15 43 -4 92 -13 108 -22 31 -15 126 -21 134 -7 7 11 -129
471 -149 504 -7 12 -101 -24 -257 -96 l-97 -45 -25 25 c-14 14 -25 28 -25 31
0 4 12 36 26 72 38 97 62 123 130 145 82 26 191 81 242 123 85 70 121 161 116
295 l-2 77 46 -4 c122 -12 198 -45 228 -100 20 -38 15 -125 -10 -177 -9 -17
-16 -45 -16 -63 0 -37 -18 -95 -30 -95 -5 0 -11 6 -13 13 -3 6 -6 0 -6 -15 -1
-18 3 -26 12 -23 7 3 21 -17 36 -51 27 -61 62 -180 55 -187 -2 -2 9 -30 26
-63 16 -32 30 -64 30 -71 0 -7 13 -22 30 -35 16 -12 32 -29 35 -37 8 -25 66
-60 152 -92 43 -16 81 -29 85 -29 3 0 6 66 6 148 0 81 1 160 1 177 l1 29 38
-36 c20 -19 73 -62 117 -94 93 -67 97 -72 83 -97 -8 -15 -7 -22 5 -28 8 -5 36
-44 63 -86 69 -112 161 -245 295 -429 l118 -161 3 -79 3 -79 52 -17 c59 -20
102 -26 188 -29 45 -2 70 -9 114 -35 86 -50 98 -61 132 -112 51 -78 128 -129
274 -181 50 -18 118 -44 153 -58 59 -25 62 -28 62 -60 0 -18 0 -35 0 -38 1 -5
22 -65 39 -108 l11 -28 57 41 c32 22 67 46 77 53 47 31 81 65 129 131 65 88
173 251 218 329 19 32 49 84 67 115 67 117 202 393 277 567 42 99 81 189 85
200 100 231 162 413 215 625 18 74 36 151 39 170 3 19 8 47 11 63 11 62 24
145 29 182 3 22 10 76 15 120 12 94 21 221 26 360 1 55 6 141 11 190 14 154 7
547 -11 645 -2 8 -6 49 -10 90 -3 41 -8 82 -10 90 -3 8 -7 35 -10 60 -12 99
-17 130 -40 250 -14 69 -27 134 -29 145 -3 11 -14 67 -26 125 -11 58 -23 116
-26 130 -5 25 -31 140 -44 200 -4 19 -13 58 -19 85 -16 74 -17 81 -46 200 -15
61 -28 117 -30 125 -18 83 -121 445 -146 511 -52 137 -151 313 -351 620 -41
63 -129 224 -195 359 -134 269 -241 458 -370 653 -70 105 -181 259 -225 312
-4 5 -18 21 -29 35 -85 103 -116 138 -209 234 -225 234 -549 556 -620 618 -96
83 -187 152 -275 207 -39 24 -102 66 -142 93 -39 26 -76 48 -82 48 -6 0 -11 4
-11 8 0 5 -15 16 -32 25 -18 10 -45 25 -60 35 -67 43 -459 283 -508 311 -30
18 -62 36 -70 41 -35 22 -203 120 -205 120 -1 0 -64 36 -140 80 -76 44 -139
80 -140 80 -2 0 -36 19 -77 43 -40 24 -95 56 -123 71 -27 16 -128 74 -224 129
l-175 101 -250 2 c-242 2 -483 10 -556 18 -19 3 -62 7 -95 11 -87 9 -181 24
-251 40 -34 8 -73 17 -85 20 -101 23 -159 35 -189 40 -19 3 -42 7 -50 10 -8 2
-37 6 -65 10 -27 3 -63 8 -80 10 -65 10 -113 15 -190 20 -44 4 -93 8 -110 10
-65 8 -831 25 -838 18z m4356 -8267 c-1 -43 -11 -108 -23 -148 -32 -107 -37
-117 -57 -114 -16 3 -18 16 -19 130 l-2 128 47 48 c25 26 48 44 51 39 3 -4 5
-42 3 -83z m3025 -9607 c48 -22 96 -45 107 -50 44 -20 186 -49 265 -55 121 -9
117 -8 145 -34 27 -26 27 -31 -8 -108 -12 -26 -20 -52 -19 -59 3 -12 -41 -27
-112 -39 -21 -3 -47 -7 -57 -9 -48 -9 -89 -52 -89 -92 0 -15 -6 -23 -17 -24
-71 -2 -112 -8 -131 -18 -13 -7 -31 -14 -40 -17 -9 -2 -96 -30 -192 -63 -96
-32 -222 -73 -280 -91 -58 -18 -132 -41 -164 -53 l-60 -21 60 -29 c53 -25 67
-28 136 -24 68 3 88 9 190 59 62 31 128 62 147 69 44 17 122 14 160 -6 37 -19
40 -46 11 -114 -25 -57 -59 -81 -210 -146 -104 -45 -203 -112 -170 -116 73 -7
187 24 319 86 114 53 118 55 158 42 22 -6 62 -31 89 -55 26 -24 57 -50 68 -58
l21 -15 -25 -19 c-25 -19 -182 -99 -270 -138 -25 -11 -67 -30 -95 -42 -151
-67 -247 -58 -287 27 -41 88 -122 117 -238 86 -48 -12 -58 -12 -80 0 -14 8
-45 21 -70 27 -25 7 -38 15 -30 17 35 11 91 39 183 91 87 50 97 59 97 85 0 15
-4 26 -8 23 -5 -3 -31 -8 -58 -11 -27 -4 -56 -8 -64 -10 -8 -2 -67 -13 -130
-25 -63 -11 -126 -22 -140 -25 -14 -3 -38 -7 -55 -10 -16 -3 -43 -7 -60 -10
-16 -3 -55 -10 -85 -15 -30 -6 -66 -12 -80 -15 -14 -3 -41 -8 -60 -11 -19 -2
-57 -9 -84 -15 -27 -5 -50 -8 -52 -6 -7 7 46 104 72 132 82 86 152 115 374
150 123 20 123 20 111 43 -15 29 -27 64 -50 137 -12 39 -27 77 -34 86 -21 28
-182 109 -228 115 -24 3 -58 12 -76 19 -18 8 -76 26 -130 40 -125 34 -150 47
-148 77 2 25 43 41 137 53 29 4 55 8 58 10 3 2 30 6 60 10 30 3 62 8 70 10 8
3 31 7 51 9 20 3 63 12 95 20 56 14 79 19 157 31 17 3 43 8 57 10 43 9 73 15
135 26 33 6 125 23 205 39 80 15 161 31 180 34 19 3 49 9 65 14 72 20 113 14
203 -29z m-1733 -1100 c0 -39 -2 -45 -20 -44 -16 2 -70 -9 -150 -29 -5 -2 -28
-6 -50 -10 -22 -4 -50 -9 -62 -12 -20 -4 -23 0 -23 24 0 27 5 31 58 49 31 11
89 28 127 38 39 10 77 22 85 26 26 14 35 4 35 -42z m2162 -128 c51 -14 363
-168 363 -179 0 -12 -70 -76 -123 -111 -83 -56 -222 -113 -320 -132 -27 -5
-335 -9 -685 -9 -499 -1 -649 -4 -694 -15 -141 -33 -247 -37 -928 -37 -338 0
-622 1 -630 1 -9 1 -5 6 10 15 14 7 54 29 90 49 43 23 85 38 120 42 30 3 62 8
70 10 8 2 35 7 60 10 25 3 56 8 70 10 151 25 229 37 264 40 277 30 440 24 626
-21 145 -36 234 -22 595 90 l39 12 -74 2 c-41 1 -88 4 -105 7 -53 11 -125 36
-125 44 0 16 53 60 95 81 54 26 82 30 230 31 84 1 137 6 176 18 l56 18 1 -76
c0 -42 1 -88 1 -102 l1 -26 73 13 c39 6 110 17 156 24 47 6 108 20 137 31 52
20 128 84 138 117 8 23 43 44 86 53 50 9 177 4 227 -10z m-15 -668 c-52 -77
-79 -134 -84 -175 -3 -26 -14 -59 -25 -75 -11 -15 -24 -39 -28 -53 -8 -26 -38
-98 -57 -137 -15 -30 -120 -80 -204 -98 -83 -17 -208 -13 -283 9 -56 17 -145
62 -162 82 -15 19 62 92 135 127 47 23 170 59 256 73 14 3 33 7 42 10 9 3 27
7 39 9 40 8 119 36 119 43 0 4 -135 7 -300 7 -256 0 -302 -2 -310 -15 -14 -21
-38 -108 -43 -150 -2 -19 -9 -45 -16 -58 -7 -13 -12 -45 -13 -72 0 -44 -4 -53
-30 -72 -17 -12 -54 -27 -82 -33 -65 -15 -200 -13 -220 4 -12 10 -21 8 -53
-13 -79 -52 -148 -67 -293 -64 -304 6 -433 2 -565 -17 -121 -17 -173 -26 -195
-30 -14 -4 -38 -8 -55 -11 -16 -3 -63 -12 -104 -20 -56 -11 -181 -16 -520 -19
-245 -3 -495 -7 -556 -9 -150 -6 -343 -16 -385 -21 -19 -2 -76 -6 -125 -10
-84 -6 -94 -4 -134 19 l-44 24 39 10 c21 6 53 13 69 18 17 4 39 9 50 11 11 2
63 12 115 23 129 26 388 70 500 85 25 3 72 10 105 15 33 5 78 12 100 15 22 3
54 7 70 10 17 3 48 7 70 11 50 8 54 10 50 32 -2 9 -4 19 -4 22 -1 3 -157 5
-348 4 -192 0 -354 2 -360 4 -21 7 -14 41 12 58 45 29 257 114 373 150 175 53
363 71 509 48 110 -16 277 -8 413 21 14 3 34 7 45 9 11 2 38 9 60 14 22 6 51
13 65 16 14 2 57 11 95 20 105 22 150 26 265 25 58 0 114 -1 124 0 11 0 45 11
75 25 46 20 72 24 146 24 91 -1 403 10 485 17 25 2 92 6 150 10 58 4 121 8
140 10 19 2 73 6 120 10 46 3 96 7 110 9 14 3 59 7 101 11 42 4 94 8 115 10
22 2 75 7 119 10 44 4 81 9 83 10 2 2 60 4 128 4 l125 2 -19 -28z m-8724 -630
c-7 -16 -29 -53 -49 -84 -132 -198 -397 -306 -731 -297 -70 2 -128 4 -128 6 0
2 34 18 75 37 41 19 109 51 151 70 42 19 77 35 79 35 4 0 68 27 304 127 46 20
132 57 190 84 58 27 109 49 113 49 4 0 2 -12 -4 -27z m6587 -340 c19 -5 186
-82 193 -88 11 -10 -71 -137 -118 -186 -122 -125 -281 -160 -493 -110 -262 63
-398 40 -551 -92 -52 -46 -63 -51 -105 -51 -99 0 -205 112 -260 276 l-19 56
86 -1 c84 -1 216 9 230 17 4 2 32 7 62 10 30 4 109 15 175 25 109 16 279 20
330 8 11 -3 34 -8 50 -12 45 -10 131 -48 177 -79 l26 -17 12 58 c36 182 80
222 205 186z m1673 -16 l27 -27 -24 -45 c-13 -25 -27 -46 -30 -46 -3 -1 -86
-2 -183 -3 l-178 -2 0 52 0 51 58 6 c31 4 68 9 82 12 32 7 64 13 115 21 22 3
41 7 43 9 12 12 67 -6 90 -28z m-720 -52 c22 -27 46 -133 36 -159 -3 -9 -12
-16 -20 -16 -8 0 -14 -4 -14 -8 0 -16 -53 -33 -120 -38 -66 -6 -67 -5 -67 19
0 15 17 44 43 73 25 27 59 73 77 102 17 28 35 52 39 52 3 0 15 -11 26 -25z
m-428 -88 c8 -2 30 -10 48 -17 l33 -12 -88 -57 c-48 -31 -105 -67 -126 -80
l-39 -24 3 54 c2 62 22 118 47 137 16 12 83 12 122 -1z m-7341 -83 l34 -6 -29
-23 c-74 -61 -211 -114 -336 -129 -24 -3 -59 -8 -78 -10 -37 -5 -134 -13 -240
-21 -36 -3 -78 -8 -95 -11 l-30 -6 23 17 c62 45 328 159 402 171 14 3 31 7 38
9 8 3 44 8 80 11 37 4 68 7 69 8 4 3 129 -4 162 -10z m4881 -15 c0 -17 -39
-71 -74 -102 -69 -62 -153 -90 -267 -89 -63 1 -233 32 -247 46 -4 4 23 14 56
21 11 2 69 17 128 33 104 28 158 42 169 43 3 0 26 6 52 14 27 8 60 16 76 19
70 15 82 18 86 22 8 8 21 4 21 -7z m520 4 c0 -12 -60 -129 -93 -180 -41 -64
-84 -109 -132 -137 -74 -44 -74 -46 -73 123 0 147 0 150 24 166 13 8 41 19 61
23 54 11 213 15 213 5z m-5469 -223 c24 -11 54 -20 67 -20 31 0 37 -22 17 -63
-19 -40 -40 -50 -145 -67 -41 -6 -108 -18 -149 -27 -40 -8 -87 -16 -105 -18
-17 -2 -69 -11 -116 -20 -47 -9 -96 -19 -110 -21 -45 -6 -85 -13 -110 -18 -14
-3 -41 -8 -60 -10 -19 -3 -87 -15 -150 -26 -63 -12 -131 -24 -150 -26 -19 -2
-48 -7 -65 -11 -40 -9 -34 -8 -86 -16 -73 -12 -232 -40 -289 -51 -51 -10 -216
-38 -230 -40 -22 -2 -25 41 -3 48 28 8 228 55 333 77 202 43 311 72 460 121
85 28 160 51 165 52 6 2 43 13 84 25 41 13 81 24 90 27 9 2 68 17 132 33 104
27 184 43 274 58 17 3 32 7 34 9 11 11 73 2 112 -16z m-53 -1167 l-3 -47 -66
-2 c-83 -2 -253 -13 -299 -19 -19 -3 -55 -7 -79 -10 -24 -3 -58 -7 -75 -10
-17 -2 -49 -7 -71 -10 -22 -3 -51 -7 -65 -10 -14 -2 -43 -7 -65 -10 -22 -3
-73 -10 -112 -16 -40 -7 -76 -11 -80 -10 -10 1 -14 90 -4 95 5 3 66 12 156 22
17 2 48 5 70 8 40 4 128 12 240 21 87 7 160 14 208 19 23 3 69 8 102 12 33 3
61 7 62 8 1 1 21 3 43 4 l41 3 -3 -48z m7981 -380 c11 -38 31 -113 46 -168 29
-107 40 -130 51 -99 4 10 29 68 56 128 70 159 87 172 222 162 50 -4 107 -11
127 -17 90 -23 130 -98 108 -200 -5 -20 -11 -130 -14 -245 -2 -115 -7 -220 -9
-234 -3 -14 -7 -54 -10 -90 -6 -65 -34 -239 -41 -250 -2 -3 -6 -21 -9 -40 -3
-19 -10 -60 -17 -90 -6 -30 -12 -64 -14 -75 -2 -11 -15 -78 -30 -150 -15 -71
-29 -145 -31 -164 -3 -19 -7 -37 -9 -41 -3 -4 -7 -25 -10 -46 -3 -22 -8 -50
-11 -64 -2 -14 -6 -36 -9 -50 -3 -14 -7 -36 -10 -50 -12 -57 -16 -76 -19 -100
-2 -14 -11 -59 -20 -100 -8 -41 -17 -89 -20 -106 -3 -17 -19 -102 -36 -189
-17 -87 -32 -170 -35 -184 -2 -14 -9 -51 -15 -81 -6 -30 -13 -64 -15 -75 -5
-35 -16 -97 -21 -119 -3 -17 -23 -121 -70 -371 -2 -11 -6 -31 -9 -45 -2 -14
-7 -38 -10 -55 -3 -16 -7 -41 -10 -55 -10 -48 -24 -135 -30 -181 -7 -61 -35
-142 -97 -279 -12 -25 -32 -74 -45 -110 -13 -36 -33 -84 -43 -106 -62 -135
-72 -217 -36 -289 21 -43 22 -68 2 -100 -7 -11 -18 -37 -25 -57 -7 -21 -48
-91 -90 -155 -86 -130 -98 -150 -214 -368 -44 -82 -88 -166 -98 -185 -11 -19
-19 -49 -19 -67 0 -33 0 -33 28 -20 24 13 216 77 228 77 3 0 3 -4 0 -8 -3 -5
-7 -19 -9 -33 -7 -34 -95 -372 -115 -439 -9 -30 -16 -57 -17 -60 -21 -90 -186
-576 -270 -792 -123 -320 -198 -496 -373 -873 -59 -129 -338 -685 -415 -829
-56 -106 -86 -160 -179 -333 -23 -43 -70 -129 -105 -192 -35 -62 -63 -117 -63
-121 0 -4 -7 -13 -15 -20 -9 -7 -13 -15 -11 -18 3 -3 -3 -17 -13 -31 -10 -14
-35 -57 -56 -96 -40 -73 -118 -214 -152 -275 -11 -19 -35 -62 -53 -95 -18 -33
-40 -72 -48 -87 l-16 -28 -28 31 c-38 41 -69 104 -70 140 -1 16 -3 29 -5 29
-2 0 -27 -17 -56 -38 -29 -20 -70 -49 -92 -64 -22 -15 -150 -138 -285 -273
-259 -260 -279 -275 -354 -261 -41 8 -135 19 -163 19 -13 1 -23 4 -23 7 0 6
43 79 129 217 222 358 291 497 344 688 44 154 43 225 -2 225 -13 0 -28 -21
-51 -72 -19 -40 -47 -95 -64 -123 -28 -47 -82 -104 -98 -105 -4 0 -14 -12 -22
-28 -19 -37 -83 -82 -202 -140 -90 -45 -95 -49 -68 -55 16 -4 40 -15 53 -25
l23 -19 -50 -81 c-146 -236 -387 -501 -632 -696 -47 -38 -94 -76 -105 -85 -51
-42 -88 -63 -116 -66 -57 -8 -67 -15 -96 -73 -26 -49 -47 -159 -28 -140 4 3
31 -5 60 -18 68 -31 110 -37 126 -18 7 9 25 22 41 30 l28 14 -12 -27 c-59
-137 -297 -348 -687 -611 -247 -166 -675 -392 -741 -392 -6 0 -10 19 -10 43 0
51 -30 104 -68 118 -35 13 -105 3 -157 -23 -22 -12 -41 -20 -42 -19 -13 7 -74
-2 -85 -12 -15 -15 -189 -138 -268 -189 -85 -55 -301 -188 -305 -188 -3 0 -39
-23 -82 -51 -60 -39 -78 -56 -79 -75 0 -13 1 -24 4 -24 3 0 46 13 96 29 127
41 245 63 340 65 l81 1 3 -34 c6 -66 -18 -87 -124 -111 -34 -7 -61 -22 -79
-40 -27 -29 -57 -41 -178 -75 -68 -19 -98 -44 -90 -75 6 -21 10 -22 74 -16 37
4 78 9 91 11 263 47 251 47 273 -11 36 -95 -1 -202 -90 -264 -54 -37 -219
-107 -377 -159 -71 -24 -128 -44 -128 -46 0 -2 31 -24 69 -49 226 -151 455
-144 814 24 38 17 80 34 94 36 13 3 50 12 81 20 32 8 64 17 72 19 8 2 80 20
160 40 80 20 154 38 165 40 11 2 35 8 53 14 18 5 66 11 106 12 40 1 103 10
142 20 94 25 97 25 70 -15 -12 -19 -28 -47 -35 -62 -14 -33 -72 -79 -329 -261
-228 -162 -351 -240 -427 -271 -33 -13 -166 -76 -295 -139 -298 -147 -437
-209 -508 -228 -32 -9 -122 -18 -202 -21 -110 -5 -173 -13 -260 -34 -63 -15
-133 -31 -155 -36 -22 -4 -47 -9 -55 -10 -8 -2 -40 -6 -70 -10 -30 -3 -64 -8
-75 -10 -11 -2 -51 -4 -89 -5 -56 -1 -72 2 -83 17 -7 10 -13 21 -13 24 0 4 35
17 78 29 142 41 217 63 237 71 11 4 121 38 245 75 124 37 257 77 295 90 39 12
94 28 123 35 54 14 61 24 40 53 -11 14 -37 17 -173 19 l-160 3 148 74 c139 70
147 75 147 103 0 16 -4 27 -8 24 -5 -3 -22 -7 -38 -10 -16 -3 -51 -10 -79 -15
-67 -13 -184 -22 -335 -26 -111 -3 -135 -7 -215 -35 -158 -57 -182 -62 -352
-65 -119 -3 -161 0 -159 8 9 57 63 225 75 234 13 12 13 13 -2 14 -9 1 -20 2
-24 4 -53 14 -70 20 -92 31 -14 8 -35 14 -46 14 -15 0 -11 8 24 44 65 67 123
88 252 92 59 2 124 8 145 13 105 27 201 49 214 49 8 0 64 3 125 7 115 7 118 8
147 65 7 14 20 37 30 52 19 27 23 49 11 47 -23 -4 -33 4 -33 25 0 23 -2 23
-40 15 -22 -5 -56 -12 -76 -15 -20 -3 -46 -8 -58 -10 -29 -5 -124 -22 -166
-29 -19 -3 -47 -8 -62 -10 -61 -11 -85 -14 -128 -20 -25 -3 -56 -8 -70 -10
-23 -4 -52 -9 -117 -19 -16 -3 -64 -10 -108 -16 -44 -6 -91 -13 -105 -15 -14
-2 -47 -7 -75 -11 -27 -3 -57 -8 -67 -9 -9 -2 -38 -7 -65 -11 -26 -3 -57 -8
-68 -10 -10 -2 -37 -6 -60 -9 -22 -3 -51 -8 -65 -10 -14 -3 -41 -7 -60 -10
-39 -7 -75 -13 -105 -19 -11 -2 -40 -7 -65 -11 -39 -7 -42 -9 -22 -16 12 -5
22 -15 22 -23 0 -17 16 -23 80 -30 53 -7 100 -15 117 -21 6 -2 38 -7 69 -11
32 -3 65 -8 73 -9 9 -2 31 -4 49 -4 29 -1 33 -4 30 -24 -3 -22 -6 -22 -153
-24 -82 0 -170 -4 -193 -7 -89 -12 -194 -87 -261 -186 -50 -73 -123 -132 -218
-177 -51 -24 -101 -46 -110 -48 -10 -2 -71 -22 -137 -45 -65 -23 -137 -43
-160 -46 -88 -9 -147 -11 -139 -4 8 7 98 54 230 118 49 23 58 31 42 35 -11 3
-23 15 -26 26 -6 25 -4 25 -90 7 -77 -16 -116 -22 -223 -37 -41 -5 -91 -12
-110 -15 -19 -3 -48 -7 -65 -10 -16 -2 -41 -6 -55 -9 -14 -3 -39 -8 -57 -11
l-31 -6 20 -45 c19 -43 22 -53 32 -121 5 -39 5 -39 -88 -47 -86 -7 -168 -34
-161 -53 25 -67 164 -162 272 -188 16 -4 226 -8 468 -10 242 -2 467 -7 500
-13 78 -12 239 -43 243 -46 2 -2 -17 -43 -42 -92 -38 -78 -98 -151 -124 -154
-136 -14 -353 -131 -507 -273 -29 -27 -67 -51 -90 -57 -35 -10 -141 -7 -215 5
-14 3 -44 7 -68 10 -23 3 -52 11 -65 17 -31 17 -128 92 -151 117 -19 22 -63
37 -201 67 -96 21 -214 62 -236 81 -8 8 -21 14 -27 14 -23 0 -11 18 16 24 54
12 127 27 152 30 141 23 289 50 308 57 28 11 32 59 5 59 -10 0 -52 12 -93 25
-70 24 -87 25 -295 25 -132 0 -264 6 -330 14 -60 8 -139 18 -175 21 -35 4 -67
8 -70 10 -3 1 -45 6 -95 10 -49 4 -92 8 -95 10 -3 1 -48 6 -100 10 -52 4 -108
8 -125 10 -173 21 -633 21 -743 0 -9 -1 -51 -6 -92 -10 -41 -3 -88 -9 -105
-12 -16 -2 -80 -6 -142 -8 -137 -3 -184 11 -322 95 -101 62 -101 62 -92 133 2
12 103 54 160 66 29 6 73 11 99 11 l47 1 -40 35 c-81 72 -234 126 -391 139
-96 8 -131 11 -209 21 -33 5 -64 8 -70 9 -25 2 11 74 54 110 55 45 95 49 381
41 104 -3 174 9 235 42 44 24 85 56 85 68 0 10 -26 29 -97 69 -135 77 -224 87
-326 37 -34 -17 -78 -46 -97 -64 -41 -37 -89 -47 -190 -36 -160 16 -369 122
-620 313 -30 23 -80 55 -110 72 -30 17 -112 64 -183 105 l-127 76 -43 -15
c-57 -21 -171 -23 -231 -6 -69 21 -192 80 -231 113 -8 7 -15 10 -15 7 0 -3
-26 10 -57 29 -31 19 -61 34 -66 34 -22 0 -349 123 -517 195 -131 55 -210 93
-395 186 -272 137 -391 207 -550 324 -53 39 -135 91 -183 117 -50 27 -86 53
-84 60 13 47 60 46 127 -1 41 -29 218 -134 315 -188 251 -139 487 -236 685
-284 66 -15 141 -35 166 -44 26 -8 93 -22 150 -30 57 -9 160 -25 229 -35 69
-11 172 -27 230 -35 58 -9 116 -18 130 -20 14 -3 45 -7 70 -10 25 -3 68 -10
95 -15 28 -5 71 -11 96 -15 70 -9 91 -13 269 -51 91 -19 173 -37 183 -39 10
-2 26 -6 35 -9 9 -3 33 -8 52 -11 19 -3 49 -10 65 -15 17 -5 41 -11 55 -14 21
-3 151 -28 215 -40 11 -2 45 -7 75 -11 30 -3 66 -8 80 -10 35 -5 113 -13 190
-20 69 -6 247 -29 316 -40 l42 -7 45 69 c57 88 135 159 190 174 51 14 156 6
217 -16 25 -9 65 -19 90 -21 25 -3 68 -16 95 -29 29 -13 78 -26 115 -29 36 -3
76 -8 90 -11 14 -3 48 -8 75 -11 28 -4 53 -8 56 -10 3 -2 40 -6 82 -10 59 -5
86 -2 121 11 65 25 146 24 271 -2 60 -13 139 -23 176 -23 66 0 68 1 115 47
198 190 300 260 407 278 16 3 33 7 36 9 3 2 31 7 61 10 30 4 71 9 90 11 88 11
234 16 466 17 l251 1 -29 76 c-50 134 -80 183 -156 258 -77 76 -189 140 -285
162 -81 19 -188 24 -237 11 -40 -11 -109 -14 -165 -6 -11 1 -53 6 -92 10 -65
8 -73 11 -73 30 0 34 90 66 340 120 101 22 232 49 310 62 14 3 32 7 40 9 8 2
31 7 50 10 19 3 96 17 170 31 74 15 146 28 160 31 76 13 291 63 325 75 64 23
197 114 385 264 96 77 222 168 280 204 144 87 439 291 540 373 12 10 223 165
380 279 60 44 225 172 230 178 7 9 229 192 268 220 17 13 32 27 32 30 0 4 -22
21 -49 38 -63 41 -125 103 -145 146 -22 46 -20 124 4 189 11 29 52 103 91 163
93 145 309 581 309 625 0 31 -37 129 -49 129 -7 0 -92 -144 -151 -255 -23 -44
-59 -111 -80 -150 -21 -38 -57 -106 -80 -150 -116 -220 -254 -418 -382 -548
-43 -44 -78 -78 -78 -76 0 3 21 65 46 139 25 74 47 142 49 150 2 8 15 48 29
89 21 61 26 93 26 178 0 93 -7 121 -25 94 -3 -5 -29 -17 -58 -27 -112 -36
-121 -45 -162 -144 -41 -98 -87 -152 -184 -217 -53 -35 -201 -103 -224 -103
-7 0 23 71 65 158 69 140 169 347 365 762 36 74 112 233 170 353 95 193 109
217 130 217 18 0 23 -4 20 -17 -28 -101 -43 -269 -46 -488 l-2 -170 31 30 c46
43 67 76 73 110 12 71 262 733 320 845 30 59 92 124 174 181 12 8 24 26 27 40
2 13 8 42 13 64 13 56 8 95 -16 137 -31 51 -38 126 -17 170 18 36 73 82 138
111 26 13 46 34 73 80 19 34 54 91 77 127 47 75 137 268 197 425 24 61 47 119
52 130 5 11 41 112 79 224 89 258 130 415 166 631 3 19 7 132 9 250 3 194 1
227 -20 339 -14 68 -26 129 -28 134 -2 6 -18 -10 -36 -36 -47 -69 -64 -75 -92
-31 -26 43 -27 60 -6 189 9 55 19 127 22 160 3 33 8 71 10 85 3 14 7 54 10 90
3 36 8 76 10 90 2 14 9 54 14 90 6 36 13 76 16 90 3 14 8 45 11 70 3 25 7 47
9 50 2 3 6 30 10 60 4 30 9 58 11 61 1 3 8 34 14 70 10 62 13 80 25 144 6 32
24 133 55 305 15 84 18 136 14 260 -3 85 -7 169 -9 185 -3 17 -7 55 -10 85 -3
30 -8 62 -10 70 -3 8 -7 33 -10 55 -4 22 -13 67 -22 100 -8 33 -17 70 -19 83
-5 26 -62 184 -94 260 -13 28 -29 53 -36 53 -51 5 -47 17 -47 -176 0 -162 3
-183 21 -215 11 -19 23 -54 27 -77 6 -39 4 -44 -35 -84 -76 -79 -115 -185
-119 -324 -9 -321 -26 -415 -73 -415 -22 0 -23 4 -26 96 -2 53 -5 104 -7 113
-1 9 -6 52 -9 96 -4 44 -9 91 -11 105 -6 34 -13 100 -21 185 -3 39 -8 84 -10
100 -6 51 -5 287 2 335 3 25 14 74 24 110 23 80 56 246 65 320 3 30 8 66 10
80 4 29 12 101 20 180 3 30 8 71 10 90 3 19 7 58 10 85 17 153 30 220 49 250
7 11 16 32 20 47 l6 28 34 -36 c19 -20 41 -50 49 -67 13 -27 99 -365 113 -445
3 -13 16 -76 30 -140 14 -64 27 -137 30 -161 5 -57 21 -106 40 -121 12 -11 14
34 14 346 0 350 0 359 -22 403 -16 32 -24 69 -26 121 -3 66 0 83 25 138 l29
62 35 -42 c48 -57 54 -71 70 -153 7 -38 14 -72 14 -75 1 -3 5 -43 9 -90 4 -47
10 -101 12 -120 2 -19 4 -114 5 -211 1 -168 2 -178 24 -203 12 -14 25 -26 28
-26 3 0 10 24 16 53 16 75 19 90 27 144 3 26 8 56 10 67 2 10 6 44 10 75 3 31
8 58 9 61 2 3 6 25 10 50 4 25 10 49 13 55 4 5 9 91 12 190 6 194 14 226 64
259 31 20 110 27 151 13 63 -21 83 -53 90 -147 2 -32 18 -113 35 -180 29 -113
70 -313 84 -405 8 -51 15 -92 21 -130 3 -16 10 -62 16 -102 5 -39 11 -80 13
-90 2 -10 7 -43 11 -73 4 -30 9 -62 10 -70 1 -8 6 -43 10 -76 6 -57 10 -65 61
-115 43 -42 54 -49 55 -34 1 37 9 65 33 123 59 140 65 206 28 305 -20 52 -24
71 -36 152 -3 22 -9 56 -12 75 -3 19 -8 214 -11 433 l-5 397 38 1 c47 1 77 5
174 25 125 25 202 28 236 11 38 -20 64 -44 94 -87 l24 -34 2 -491 c1 -269 4
-508 7 -530 3 -22 8 -69 12 -105 4 -36 9 -78 11 -95 7 -62 18 -202 18 -247 1
-52 -1 -51 74 -50 19 0 35 2 37 4 2 2 22 41 45 88 23 47 57 115 75 151 22 43
39 99 50 163 25 146 25 158 30 466 5 320 -3 390 -55 495 -16 34 -50 82 -75
108 -55 55 -66 96 -40 151 l17 36 52 -6 c61 -7 126 4 293 52 144 41 137 40
237 49 43 4 86 8 95 10 9 1 52 6 96 9 44 4 103 9 130 11 28 3 88 7 135 10 47
3 114 7 150 9 36 3 110 8 165 11 55 4 116 8 135 10 19 2 73 7 120 10 47 4 99
9 115 12 53 9 176 10 220 2 23 -4 61 -16 85 -26 l42 -18 -6 -90 c-4 -50 -8
-100 -10 -111 -2 -12 -7 -45 -11 -74 -4 -29 -8 -60 -10 -69 -2 -9 -13 -65 -25
-126 -12 -60 -24 -119 -26 -130 -20 -82 -15 -83 60 -14 68 62 141 203 152 294
5 41 53 242 68 284 9 24 16 52 16 63 0 10 7 32 15 48 20 38 56 40 102 4 29
-22 45 -26 111 -28 100 -2 138 7 242 56 63 30 98 41 136 42 61 1 80 -12 130
-91 l34 -52 0 -157 0 -157 50 47 c27 25 53 46 57 47 4 0 16 2 25 4 28 5 56
-23 103 -105 52 -88 74 -114 76 -84 3 41 6 67 33 249 8 55 17 128 20 163 6 69
39 143 81 182 29 27 23 27 232 17 83 -5 96 -8 140 -38 26 -18 49 -35 51 -38
15 -34 21 -34 54 -9 18 14 51 43 73 65 58 55 127 113 136 113 5 0 17 -30 28
-67z m-6425 -3100 c7 -24 56 -271 61 -308 4 -30 15 -97 20 -125 5 -26 15 -151
20 -245 3 -49 7 -103 9 -120 25 -181 25 -517 0 -683 -23 -157 -47 -258 -99
-422 -13 -41 -26 -86 -29 -100 -2 -14 -16 -65 -31 -115 -26 -87 -63 -234 -71
-285 -3 -14 -7 -36 -10 -50 -15 -79 -12 -249 7 -340 34 -158 34 -161 0 -272
-17 -57 -32 -115 -33 -130 l-2 -27 -32 20 c-17 10 -40 19 -50 19 -19 0 -19 19
-19 613 1 702 7 641 -100 927 -56 149 -90 252 -101 300 -8 39 -8 181 1 220 3
14 10 52 15 85 14 87 19 112 35 195 17 89 22 115 30 155 3 17 10 53 15 80 17
85 20 98 35 180 8 44 17 98 20 119 20 139 83 223 219 290 82 41 83 42 90 19z
m-1828 -6386 c-47 -114 -293 -365 -561 -573 -89 -69 -298 -214 -309 -214 -3 0
-26 -13 -51 -29 -65 -41 -207 -101 -257 -107 l-43 -6 35 31 c44 39 150 110
213 142 26 13 47 26 47 29 0 7 -123 56 -132 52 -5 -1 -8 9 -8 22 0 26 9 31 70
40 19 3 64 12 100 20 36 8 80 17 98 20 19 2 35 6 36 8 2 2 19 37 39 79 64 133
164 217 415 346 153 78 250 133 291 165 31 24 35 18 17 -25z m5854 -199 c-78
-132 -228 -338 -296 -403 -11 -11 -68 -74 -126 -140 -106 -120 -194 -208 -452
-450 -188 -176 -557 -611 -684 -807 -26 -40 -52 -68 -66 -72 -30 -7 -63 -37
-74 -67 -7 -17 -3 -37 13 -74 50 -113 14 -187 -149 -305 -32 -23 -75 -59 -96
-80 -20 -20 -48 -40 -62 -43 -14 -4 -48 -27 -75 -52 l-50 -44 -23 24 -24 25
34 48 c108 153 228 341 377 590 47 77 66 132 46 132 -3 0 -50 -44 -103 -98
-54 -54 -109 -103 -124 -110 -14 -6 -26 -19 -26 -27 0 -20 -60 -113 -88 -138
-28 -25 -91 -46 -122 -40 -34 6 -138 58 -173 86 l-27 23 72 38 c67 35 151 86
284 172 28 18 100 60 160 93 60 34 130 81 155 105 46 45 89 119 108 190 13 48
10 201 -5 216 -12 12 -38 -20 -80 -100 -15 -29 -43 -69 -62 -88 -33 -32 -38
-34 -90 -30 -56 5 -82 23 -82 57 0 8 186 202 414 430 256 258 416 426 419 441
11 47 72 105 150 143 40 20 81 35 90 33 19 -3 41 -30 57 -70 9 -25 4 -29 -226
-182 l-235 -157 52 -53 c56 -57 57 -57 99 -14 3 3 30 25 60 50 30 25 57 47 60
50 6 6 333 266 371 295 15 11 129 99 255 195 314 240 378 288 383 284 2 -2
-16 -36 -39 -76z m-1206 -374 c30 -12 18 -48 -24 -72 -45 -25 -153 -117 -215
-181 -22 -22 -43 -41 -46 -41 -3 0 -5 30 -4 68 3 114 28 143 175 198 99 37 94
36 114 28z m-8784 -877 c84 -15 206 -87 267 -157 29 -33 78 -115 98 -163 15
-37 15 -38 -4 -28 -18 10 -89 31 -173 52 -71 17 -119 41 -117 58 1 9 1 33 0
53 l-1 36 -112 38 c-62 21 -117 39 -123 40 -5 1 -23 5 -40 8 -16 4 -51 9 -77
13 -27 3 -48 8 -48 10 0 11 33 36 58 43 27 8 223 6 272 -3z m1037 -211 c3 -3
-11 -26 -31 -51 -33 -40 -42 -45 -79 -46 -23 0 -62 -3 -87 -5 -90 -9 -208 37
-238 93 -10 17 2 18 210 17 120 -1 222 -5 225 -8z m6783 -122 c0 -17 -19 -33
-92 -74 -51 -29 -136 -81 -188 -115 -304 -198 -370 -238 -377 -231 -13 13 77
180 129 241 67 79 236 156 393 182 17 3 48 8 70 12 60 11 65 10 65 -15z
m-3425 -1900 c55 -8 86 -13 115 -19 42 -8 114 -18 138 -19 21 0 23 -4 20 -50
-3 -43 -6 -50 -23 -50 -46 1 -157 15 -178 23 -21 8 -112 21 -176 25 -24 2 -38
29 -35 66 1 8 2 21 3 28 1 13 29 12 136 -4z"/>
<path d="M30180 22003 c-184 -59 -300 -63 -480 -15 -19 5 -38 10 -43 10 -12 3
-77 -26 -92 -42 -15 -14 -35 -59 -35 -76 0 -12 79 -52 150 -76 38 -12 86 -18
155 -18 129 -1 226 29 425 132 80 41 155 80 167 86 13 6 23 14 23 18 0 3 -44
6 -97 5 -74 0 -116 -6 -173 -24z"/>
<path d="M28272 17033 c-20 -29 -97 -178 -127 -248 -10 -22 -38 -82 -62 -133
-25 -52 -43 -96 -41 -98 8 -7 93 53 131 92 61 64 96 143 112 252 8 53 14 162
10 162 -2 0 -12 -12 -23 -27z"/>
<path d="M26794 16591 c15 -24 6 -162 -19 -281 -37 -182 -38 -188 -38 -272 0
-76 33 -198 54 -198 5 0 9 19 9 41 0 107 59 183 150 195 57 8 52 -7 52 154 0
239 -17 297 -96 334 -60 29 -122 44 -112 27z"/>
<path d="M29421 16578 c-5 -13 -16 -45 -25 -71 -9 -27 -23 -62 -31 -78 -9 -16
-13 -29 -9 -29 4 0 2 -6 -3 -12 -6 -7 -25 -53 -43 -103 -36 -97 -62 -133 -128
-175 -37 -24 -47 -27 -72 -17 -36 14 -46 6 -117 -90 -30 -40 -60 -73 -68 -73
-22 0 -113 -96 -159 -169 -41 -64 -87 -177 -120 -291 -8 -30 -29 -102 -45
-160 -35 -126 -46 -156 -60 -165 -21 -12 -2 -145 20 -145 5 0 24 -14 44 -31
20 -18 38 -29 41 -26 4 3 12 38 20 77 20 107 60 168 211 318 167 167 221 245
238 348 24 136 93 272 216 424 111 137 183 278 203 397 5 28 2 35 -23 47 -15
8 -33 22 -40 30 -19 23 -40 20 -50 -6z"/>
<path d="M29677 16395 c-38 -181 -87 -336 -204 -649 -92 -246 -123 -338 -167
-486 -45 -151 -93 -400 -78 -400 6 0 91 141 247 408 6 9 27 45 48 80 20 35 37
65 37 68 0 2 10 21 23 42 119 191 269 550 303 725 2 10 6 28 10 40 3 13 -37
-21 -97 -81 l-104 -103 -5 198 c-4 141 -7 187 -13 158z"/>
<path d="M24221 15150 c-5 -3 -12 -49 -15 -102 -3 -54 -8 -112 -10 -130 -3
-18 -8 -64 -11 -103 -4 -38 -8 -83 -11 -100 -7 -50 -14 -195 -14 -280 0 -95
11 -237 24 -315 9 -55 14 -106 22 -225 5 -89 12 -123 34 -175 18 -40 25 -70
21 -80 -8 -14 -19 -64 -26 -115 -17 -110 -47 -281 -60 -328 -8 -32 -15 -59
-15 -60 0 -1 12 -3 26 -3 14 -1 36 -11 48 -23 12 -12 25 -21 28 -21 4 0 10 35
14 78 4 42 8 79 9 82 1 3 5 46 9 95 4 50 9 101 11 115 18 122 25 850 14 1468
-3 189 -6 222 -19 223 -8 0 -28 2 -43 3 -15 1 -32 -1 -36 -4z"/>
<path d="M25186 15003 c-3 -21 -13 -96 -21 -168 -23 -185 -23 -193 -31 -270
-3 -38 -8 -78 -10 -88 -2 -10 -6 -53 -9 -95 -4 -42 -8 -88 -10 -101 -2 -13 -7
-58 -10 -100 -3 -42 -8 -92 -10 -111 -3 -19 -7 -71 -10 -115 -3 -44 -8 -100
-10 -125 -8 -91 -16 -187 -20 -250 -2 -36 -7 -92 -9 -125 -3 -33 -8 -98 -11
-145 -6 -99 -14 -210 -20 -295 -14 -188 -16 -219 -11 -214 5 5 109 349 120
399 2 8 15 51 29 95 14 44 28 96 31 115 7 42 15 86 21 120 3 14 8 39 10 55 12
72 38 167 50 179 20 20 73 118 81 151 14 55 7 370 -11 500 -2 17 -7 57 -11 90
-3 33 -8 69 -10 80 -2 10 -6 37 -9 60 -7 47 -9 59 -29 185 -22 134 -22 133
-49 173 l-25 37 -6 -37z"/>
<path d="M28493 14074 c-76 -76 -88 -130 -69 -299 6 -54 0 -113 -18 -155 -4
-10 4 -21 21 -32 16 -10 36 -23 45 -30 24 -18 28 -9 33 68 4 66 23 227 31 269
2 11 7 56 10 100 3 44 7 85 9 91 2 6 0 17 -5 24 -6 9 -21 0 -57 -36z"/>
<path d="M24078 12772 c-91 -186 -102 -217 -122 -348 -8 -54 -22 -126 -31
-159 -13 -44 -18 -108 -20 -236 -3 -171 -4 -177 -35 -255 -17 -43 -33 -95 -34
-115 -4 -49 28 -112 72 -145 40 -30 53 -45 47 -54 -2 -3 -6 -33 -9 -66 -3 -37
-24 -112 -52 -185 -247 -664 -342 -950 -425 -1284 -40 -164 -47 -191 -59 -260
-7 -33 -15 -78 -20 -100 -4 -22 -8 -67 -9 -100 -1 -72 -7 -105 -32 -162 l-18
-43 29 0 c36 0 56 28 95 127 26 68 29 72 42 53 8 -11 20 -20 28 -20 9 0 4 -27
-20 -102 -19 -57 -52 -168 -75 -247 -23 -79 -44 -150 -47 -157 -4 -10 4 -14
25 -14 35 0 39 7 113 195 52 131 56 140 106 211 105 151 107 217 10 321 -25
27 -45 51 -46 55 0 4 6 27 15 50 13 39 45 91 166 269 56 84 77 139 78 211 2
86 18 163 46 223 65 138 165 521 199 760 3 17 9 53 15 80 10 51 6 409 -5 455
-13 56 -14 425 -1 506 15 89 53 233 65 249 5 5 16 33 25 62 31 93 19 221 -33
365 -4 13 -30 -30 -83 -140z"/>
<path d="M28493 12845 c-7 -17 -21 -65 -33 -108 -21 -76 -91 -271 -110 -305
-5 -9 -21 -41 -35 -69 l-25 -53 57 0 c57 1 59 2 92 45 90 120 114 283 73 485
l-8 34 -11 -29z"/>
<path d="M25714 12305 c-13 -10 -50 -95 -64 -150 -13 -45 -68 -240 -91 -320
-77 -262 -160 -415 -292 -534 l-27 -24 -16 39 c-30 70 -27 105 17 196 56 114
88 195 100 248 15 68 41 153 52 168 5 6 6 12 1 12 -5 0 -34 -31 -65 -68 -262
-313 -253 -299 -313 -455 -31 -79 -32 -94 -8 -127 12 -18 17 -44 17 -90 -1
-59 -6 -76 -64 -190 -87 -174 -99 -197 -142 -267 -77 -128 -93 -172 -90 -256
l1 -38 33 38 c41 48 54 59 97 82 89 47 129 -13 124 -186 -4 -172 -26 -256 -86
-328 -9 -11 -26 -42 -39 -70 -38 -82 -206 -346 -240 -375 -3 -3 -49 -68 -101
-145 -53 -77 -119 -165 -146 -196 -27 -31 -62 -77 -77 -102 -15 -26 -28 -47
-29 -47 -4 0 4 140 9 167 3 16 8 39 10 53 2 14 15 70 30 125 14 55 27 107 30
116 2 9 8 33 13 52 6 20 8 38 5 40 -2 3 -31 -8 -64 -24 -101 -49 -174 -139
-185 -229 -8 -60 -26 -130 -35 -135 -5 -3 -13 -23 -19 -44 -6 -22 -47 -115
-91 -207 -44 -93 -94 -198 -111 -234 -60 -129 -143 -291 -201 -389 l-20 -33
53 6 c28 3 62 13 73 21 32 22 35 19 35 -27 1 -73 33 -198 51 -198 3 0 25 28
48 63 22 34 78 116 124 182 168 244 246 362 295 441 l50 81 28 -23 c15 -13 36
-24 47 -24 24 0 24 -7 -1 -45 -11 -16 -50 -88 -86 -160 -90 -176 -163 -296
-204 -335 -3 -3 -30 -34 -60 -70 -100 -118 -280 -292 -390 -376 -13 -10 -141
-136 -285 -279 -182 -183 -287 -280 -350 -324 -49 -34 -133 -104 -185 -154
-112 -108 -178 -148 -248 -149 -52 0 -110 24 -150 62 -26 25 -72 22 -103 -6
-25 -23 -155 -74 -224 -88 -63 -13 -134 -3 -197 30 -51 26 -127 18 -209 -23
-58 -29 -96 -59 -178 -140 -56 -58 -101 -106 -99 -108 2 -2 40 7 83 21 121 38
233 63 305 70 l65 6 -52 -34 c-28 -18 -72 -53 -98 -77 l-46 -43 26 -28 c29
-31 73 -34 100 -7 114 115 316 207 525 242 19 3 46 7 60 10 14 2 43 7 65 10
22 3 72 10 110 16 39 5 88 13 110 16 40 5 146 49 217 88 20 11 72 54 115 95
181 175 284 245 515 344 20 9 40 16 45 16 10 0 111 51 161 82 117 70 282 227
282 268 0 9 13 35 29 56 43 58 219 234 235 234 7 0 21 -8 30 -19 16 -17 15
-21 -23 -69 -22 -28 -113 -149 -201 -269 -89 -120 -172 -231 -185 -248 -77
-101 -183 -236 -213 -272 -19 -24 -30 -43 -26 -42 5 0 47 17 94 37 81 36 86
40 158 132 40 52 79 102 85 110 178 221 416 543 499 675 95 154 105 171 200
355 120 231 148 284 200 375 96 169 178 305 264 440 49 77 107 181 128 230 59
142 124 281 221 477 49 98 51 107 33 111 -31 8 -84 -47 -233 -242 -74 -97
-158 -201 -187 -231 -47 -49 -157 -140 -169 -140 -8 0 750 1510 784 1564 l31
50 1 579 c0 318 -3 581 -8 584 -16 10 -79 9 -93 -2z"/>
<path d="M27048 11638 c-52 -79 -157 -244 -234 -368 -76 -124 -180 -287 -231
-364 -51 -76 -93 -140 -93 -142 0 -13 51 0 107 28 59 29 148 105 213 183 116
141 248 400 301 591 24 87 23 83 33 139 4 22 10 48 13 58 12 45 -22 5 -109
-125z"/>
<path d="M27687 11008 c-46 -62 -130 -176 -187 -253 -103 -139 -228 -293 -269
-329 -27 -24 -27 -51 0 -70 26 -18 47 -9 114 44 163 129 360 378 443 560 45
100 46 105 19 134 -13 14 -27 26 -30 26 -3 0 -44 -51 -90 -112z"/>
<path d="M27752 10603 c-20 -53 -55 -108 -184 -288 -27 -36 -48 -68 -48 -70 0
-3 7 -5 15 -5 9 0 21 -11 27 -25 11 -24 11 -24 90 53 44 42 92 95 107 117 60
88 87 205 57 250 -25 38 -39 30 -64 -32z"/>
<path d="M27765 9789 c-33 -24 -73 -53 -90 -66 -16 -13 -35 -27 -40 -31 -6 -4
-37 -29 -70 -57 -329 -274 -527 -552 -560 -787 -4 -27 -5 -48 -3 -48 8 0 229
229 332 344 33 37 75 83 91 101 36 39 47 51 200 230 267 310 258 299 237 308
-11 5 -24 18 -29 29 -8 18 -12 16 -68 -23z"/>
<path d="M28028 9621 c-86 -87 -165 -173 -177 -192 -12 -20 -21 -51 -21 -75
l0 -42 109 2 c101 1 112 3 138 26 109 95 128 139 128 290 0 63 -5 122 -10 131
-8 14 -36 -10 -167 -140z"/>
<path d="M27160 9575 c-85 -86 -155 -163 -155 -172 0 -10 11 -23 24 -30 23
-11 32 -4 179 143 84 84 155 162 157 171 3 23 -13 43 -34 43 -9 0 -87 -70
-171 -155z"/>
<path d="M26497 9177 c-97 -148 -160 -246 -347 -542 -35 -55 -73 -116 -86
-135 -12 -19 -78 -123 -146 -230 -69 -107 -155 -240 -191 -296 -37 -56 -67
-103 -67 -105 0 -2 11 -5 25 -5 18 -2 40 15 86 64 155 165 278 338 544 767
166 267 262 412 336 510 l38 50 -22 18 c-12 10 -34 24 -49 32 l-27 15 -94
-143z"/>
<path d="M24970 8399 c-124 -165 -229 -306 -234 -313 -6 -9 -1 -22 16 -41 l26
-27 48 33 c105 72 202 180 309 344 32 50 79 122 105 160 25 39 49 76 53 82 4
7 -5 20 -23 33 -66 47 -55 57 -300 -271z"/>
<path d="M27169 8515 c-63 -41 -149 -147 -221 -274 -68 -119 -138 -216 -183
-253 -20 -17 -20 -17 9 -18 15 0 57 14 92 31 120 57 256 218 312 369 18 49 40
171 31 169 -2 0 -20 -11 -40 -24z"/>
<path d="M25260 8368 c-74 -140 -172 -281 -269 -388 l-50 -55 22 -18 c12 -10
34 -24 48 -32 26 -14 27 -13 65 42 21 31 43 61 49 67 72 77 275 371 275 399 0
3 -9 4 -20 2 -11 -2 -33 7 -49 21 -16 13 -31 24 -34 24 -2 0 -19 -28 -37 -62z"/>
<path d="M23331 8076 c-100 -100 -150 -157 -146 -167 3 -8 15 -20 27 -28 19
-12 31 -3 174 140 151 151 152 152 136 175 -9 13 -22 25 -28 28 -6 2 -79 -64
-163 -148z"/>
<path d="M22490 7462 c-167 -13 -349 -90 -414 -174 -30 -40 -50 -111 -25 -92
11 9 58 24 79 26 3 0 14 4 26 8 11 5 45 11 75 15 30 3 66 8 80 10 14 3 42 7
62 9 112 15 207 58 284 130 32 30 56 57 53 59 -6 7 -170 13 -220 9z"/>
<path d="M21168 6555 c-2 -2 -27 -6 -57 -10 -72 -9 -189 -49 -257 -88 -51 -30
-54 -33 -48 -62 4 -16 13 -40 21 -52 18 -27 24 -24 -97 -48 -123 -25 -175 -60
-212 -145 -19 -44 -78 -226 -78 -244 0 -11 187 -1 223 13 15 6 31 21 36 33 15
38 88 114 133 139 32 17 63 23 119 25 69 3 90 -1 219 -46 177 -60 221 -61 383
-6 60 20 122 38 139 40 35 4 56 38 35 56 -11 10 -139 91 -216 137 l-34 21 46
46 c26 25 47 51 47 58 0 14 -56 65 -94 85 -54 28 -131 45 -218 48 -47 2 -88 2
-90 0z"/>
<path d="M22544 6211 c-50 -25 -138 -68 -195 -95 -227 -107 -330 -158 -390
-192 -35 -21 -80 -45 -99 -56 l-35 -19 63 6 c168 15 394 104 572 225 73 50
212 180 190 178 -8 -1 -56 -22 -106 -47z"/>
<path d="M18610 4177 c-11 -12 -18 -26 -17 -32 3 -16 198 -134 240 -146 68
-18 101 -7 176 58 38 34 38 39 4 48 -41 12 -37 11 -183 40 -74 15 -150 33
-168 41 -30 12 -34 12 -52 -9z"/>
<path d="M26948 31843 c-41 -6 -49 -25 -49 -115 -1 -161 -6 -147 51 -146 30 0
50 4 51 11 0 7 1 60 2 118 0 105 -5 140 -20 138 -4 -1 -20 -4 -35 -6z"/>
<path d="M32450 21605 c-42 -14 -95 -79 -110 -136 -6 -22 -13 -46 -16 -54 -5
-11 3 -11 43 1 26 8 98 24 160 35 61 11 135 28 164 38 l53 17 -45 30 c-102 69
-182 92 -249 69z"/>
<path d="M33520 19309 c-13 -6 -31 -18 -40 -27 -27 -31 -72 -93 -69 -96 12 -9
106 -26 175 -31 96 -7 132 10 166 80 24 50 23 54 -18 61 -16 3 -40 7 -54 10
-49 11 -135 12 -160 3z"/>
</g>
</svg>
