<?xml version="1.0" encoding="utf-8"?>
<!-- Generator: Adobe Illustrator 26.0.3, SVG Export Plug-In . SVG Version: 6.00 Build 0)  -->
<svg version="1.1" xmlns="http://www.w3.org/2000/svg" xmlns:xlink="http://www.w3.org/1999/xlink" x="0px" y="0px"
	 viewBox="0 0 1440 720" style="enable-background:new 0 0 1440 720;" xml:space="preserve">
<style type="text/css">
	.st0{fill:#848484;}
	.st1{fill:#FFFFFF;}
	.st2{fill:none;stroke:#FFFFFF;stroke-width:9.4037;stroke-linecap:round;stroke-miterlimit:10;}
	.st3{fill:none;stroke:#848484;stroke-width:6.2691;stroke-linecap:round;stroke-miterlimit:10;}
</style>
<g id="Layer_2">
</g>
<g id="Layer_1">
	<g>
		<path class="st0" d="M1199.4,141.5c-0.8,0-1.5-0.3-2.1-0.8c-1.3-1.2-1.4-3.1-0.2-4.4l89.8-98.5l18.3-117.6
			c0.3-1.7,1.9-2.9,3.6-2.6c1.7,0.3,2.9,1.9,2.6,3.6l-18.5,119.5l-91,99.9C1201.1,141.1,1200.2,141.5,1199.4,141.5z"/>
	</g>
	<g>
		<path class="st0" d="M393.7,213.4c-0.6,0-1.2-0.2-1.7-0.5l-29.9-19.2l-45-146.2c-0.5-1.7,0.4-3.4,2.1-3.9c1.7-0.5,3.4,0.4,3.9,2.1
			l44.4,144l28,18c1.5,0.9,1.9,2.9,0.9,4.3C395.8,212.9,394.8,213.4,393.7,213.4z"/>
	</g>
	<g>
		<path class="st0" d="M419.3,345.6c-0.5,0-0.9-0.1-1.4-0.3l-67.3-32.7l-34.4-58.2c-0.9-1.5-0.4-3.4,1.1-4.3
			c1.5-0.9,3.4-0.4,4.3,1.1l33.4,56.5l65.6,31.8c1.6,0.8,2.2,2.6,1.5,4.2C421.6,345,420.5,345.6,419.3,345.6z"/>
	</g>
	<g>
		<path class="st0" d="M135.1,15.8c-0.6,0-1.1-0.2-1.6-0.5c-1.5-0.9-1.9-2.8-1-4.3l23.1-37.5l9.4-55.9c0.3-1.7,1.9-2.9,3.6-2.6
			c1.7,0.3,2.9,1.9,2.6,3.6l-9.6,57.1l-23.8,38.5C137.2,15.2,136.1,15.8,135.1,15.8z"/>
	</g>
	<g>
		<path class="st0" d="M51.7,9.1c-0.8,0-1.5-0.3-2.1-0.8L7-30.6c-1.3-1.2-1.4-3.2-0.2-4.4c1.2-1.3,3.2-1.4,4.4-0.2L53.8,3.7
			c1.3,1.2,1.4,3.2,0.2,4.4C53.4,8.8,52.6,9.1,51.7,9.1z"/>
	</g>
	<g>
		<path class="st0" d="M-11.1,113.7c-0.7,0-1.4-0.2-2-0.7c-1.3-1.1-1.6-3.1-0.5-4.4l57.1-70.8L61.9-79.9c0.3-1.7,1.9-2.9,3.6-2.6
			c1.7,0.3,2.9,1.9,2.6,3.6L49.5,40.4l-58.2,72.1C-9.3,113.3-10.2,113.7-11.1,113.7z"/>
	</g>
	<g>
		<path class="st0" d="M180.2,55.9c-1.1,0-2.2-0.6-2.8-1.7l-18-34.7l-43-6.6L87.1-22.5c-1.1-1.3-0.9-3.3,0.4-4.4
			c1.3-1.1,3.3-0.9,4.4,0.4l27.8,33.6l43.7,6.7L183,51.3c0.8,1.5,0.2,3.4-1.3,4.2C181.2,55.8,180.7,55.9,180.2,55.9z"/>
	</g>
	<g>
		<path class="st0" d="M437.9,759.7c-0.7,0-1.4-0.2-1.9-0.7c-1.4-1.1-1.6-3-0.5-4.4l49.5-63.1l8.6-53.7c0.3-1.7,1.9-2.9,3.6-2.6
			c1.7,0.3,2.9,1.9,2.6,3.6l-8.9,55.3l-50.5,64.4C439.8,759.3,438.9,759.7,437.9,759.7z"/>
	</g>
	<g>
		<path class="st0" d="M544.3,755.3c-1.2,0-2.4-0.7-2.9-1.9l-53-126.6l-53.1-28.8l-17.6-64.4c-0.5-1.7,0.5-3.4,2.2-3.9
			c1.7-0.5,3.4,0.5,3.9,2.2l16.9,61.9l52.7,28.6l53.9,128.6c0.7,1.6-0.1,3.4-1.7,4.1C545.1,755.2,544.7,755.3,544.3,755.3z"/>
	</g>
	<g>
		<path class="st0" d="M527.2,146.6c-1.7,0-3.1-1.4-3.1-3.1l-0.5-40.6L564,43.5c1-1.4,2.9-1.8,4.4-0.8c1.4,1,1.8,2.9,0.8,4.4
			l-39.3,57.7l0.5,38.6C530.4,145.1,529,146.6,527.2,146.6C527.2,146.6,527.2,146.6,527.2,146.6z"/>
	</g>
	<g>
		<path class="st0" d="M393.7-7.5c-1.2,0-2.3-0.7-2.9-1.8c-0.7-1.6,0-3.4,1.5-4.2L451-40.4l17.1-42.7c0.6-1.6,2.5-2.4,4.1-1.7
			c1.6,0.6,2.4,2.5,1.7,4.1l-18.1,45L395-7.8C394.6-7.6,394.2-7.5,393.7-7.5z"/>
	</g>
	<g>
		<path class="st0" d="M336.2,102.1c-0.7,0-1.4-0.2-1.9-0.7c-1.4-1.1-1.6-3-0.5-4.4l48.8-62.6l20.8-116.8c0.3-1.7,1.9-2.8,3.6-2.5
			c1.7,0.3,2.8,1.9,2.5,3.6L388.4,37l-49.7,63.8C338.1,101.6,337.2,102.1,336.2,102.1z"/>
	</g>
	<g>
		<path class="st0" d="M389.3,17.3c-0.6,0-1.2-0.2-1.7-0.5l-61.2-39.1L306-63.4c-0.8-1.6-0.1-3.4,1.4-4.2c1.6-0.8,3.4-0.1,4.2,1.4
			l19.6,39.5L391,11.5c1.5,0.9,1.9,2.9,1,4.3C391.4,16.8,390.4,17.3,389.3,17.3z"/>
	</g>
	<g>
		<path class="st0" d="M504.4,85.5c-0.6,0-1.1-0.2-1.7-0.5l-44.9-28L422.6-4.3c-0.9-1.5-0.3-3.4,1.2-4.3c1.5-0.9,3.4-0.3,4.3,1.2
			l34.5,60l43.6,27.2c1.5,0.9,1.9,2.8,1,4.3C506.5,85,505.5,85.5,504.4,85.5z"/>
	</g>
	<g>
		<path class="st0" d="M132.6,278.7c-0.2,0-0.5,0-0.7-0.1c-1.7-0.4-2.7-2.1-2.3-3.8l14.2-58.5l-7.4-47.9l28.9-110.7l60-34.3
			L251-15.3l22.3-61.6c0.6-1.6,2.4-2.5,4-1.9c1.6,0.6,2.5,2.4,1.9,4l-22.6,62.3L229.7,28l-59,33.8l-27.9,106.9l7.3,47.9l-14.5,59.7
			C135.3,277.7,134,278.7,132.6,278.7z"/>
	</g>
	<g>
		<path class="st0" d="M579.3,217.8c-1,0-1.9-0.4-2.5-1.3l-51.4-70.2l-30.1-4.9c-1.7-0.3-2.9-1.9-2.6-3.6c0.3-1.7,1.9-2.9,3.6-2.6
			l32.6,5.3l52.9,72.3c1,1.4,0.7,3.4-0.7,4.4C580.6,217.6,580,217.8,579.3,217.8z"/>
	</g>
	<g>
		<path class="st0" d="M197,135.8c-0.9,0-1.8-0.4-2.4-1.2c-1.1-1.3-0.9-3.3,0.5-4.4l49.1-39.6l20.3-94.1c0.4-1.7,2-2.8,3.7-2.4
			c1.7,0.4,2.8,2,2.4,3.7l-20.8,96.3l-50.9,41C198.4,135.6,197.7,135.8,197,135.8z"/>
	</g>
	<g>
		<path class="st0" d="M444.2,225c-0.2,0-0.4,0-0.6-0.1c-1.7-0.3-2.8-2-2.5-3.7l15.9-79.2V54.8c0-1.7,1.4-3.1,3.1-3.1
			s3.1,1.4,3.1,3.1v87.9l-16.1,79.8C447,224,445.7,225,444.2,225z"/>
	</g>
	<g>
		<path class="st0" d="M556.5,13.1c-1,0-1.9-0.4-2.5-1.3c-1-1.4-0.7-3.4,0.7-4.4L582.8-13l23-63.9c0.6-1.6,2.4-2.5,4-1.9
			c1.6,0.6,2.5,2.4,1.9,4L588-9.1l-29.7,21.6C557.8,13,557.1,13.1,556.5,13.1z"/>
	</g>
	<g>
		<path class="st0" d="M222,754.7c-0.1,0-0.2,0-0.3,0c-1.7-0.2-3-1.7-2.8-3.4l4.3-49.1l24.8-46l20.5-47.8c0.7-1.6,2.5-2.3,4.1-1.6
			c1.6,0.7,2.3,2.5,1.6,4.1l-20.7,48.2l-24.2,45l-4.2,47.8C225,753.5,223.6,754.7,222,754.7z"/>
	</g>
	<g>
		<path class="st0" d="M135.1,756.9c-0.2,0-0.4,0-0.5,0c-1.7-0.3-2.8-1.9-2.5-3.6l13-73.9l72-37.2l30.9-39.7l17-84.6l122-55.1
			l19.7-55.2l15.9-107.3l40.7-26.8c1.4-1,3.4-0.6,4.3,0.9c1,1.4,0.6,3.4-0.9,4.3L428.2,304l-15.6,105.1l-20.8,58.3l-121.5,54.9
			l-16.7,82.9L221,647.1l-70.4,36.4l-12.4,70.9C137.9,755.9,136.6,756.9,135.1,756.9z"/>
	</g>
	<g>
		<path class="st0" d="M321.3,411.5l-79.4-3.6c-1.7-0.1-3.1-1.5-3-3.3c0.1-1.7,1.6-3.1,3.3-3l76.6,3.4l57.3-58
			c1.2-1.2,3.2-1.2,4.4,0c1.2,1.2,1.2,3.2,0,4.4L321.3,411.5z"/>
	</g>
	<g>
		<path class="st0" d="M186.5,676.3c-1.2,0-2.3-0.7-2.9-1.9l-18.7-42l-4.9-45.5l-26.8-20.1c-1.4-1-1.7-3-0.6-4.4
			c1-1.4,3-1.7,4.4-0.6l29,21.8l5.1,47.3l18.3,41.1c0.7,1.6,0,3.4-1.6,4.1C187.4,676.2,186.9,676.3,186.5,676.3z"/>
	</g>
	<g>
		<path class="st0" d="M142.5,714.6c-1.3,0-2.5-0.8-3-2.1l-15-44.7l-50.3-40.8c-1.3-1.1-1.6-3.1-0.5-4.4s3.1-1.5,4.4-0.5l51.8,42
			l15.6,46.4c0.6,1.6-0.3,3.4-2,4C143.2,714.5,142.9,714.6,142.5,714.6z"/>
	</g>
	<g>
		<path class="st0" d="M127.2,669c-1.1,0-2.2-0.6-2.8-1.6l-27-49.3l-0.1-0.2l-18-49.6c-0.6-1.6,0.2-3.4,1.9-4c1.6-0.6,3.4,0.2,4,1.9
			l17.9,49.3l26.8,48.9c0.8,1.5,0.3,3.4-1.2,4.3C128.2,668.9,127.7,669,127.2,669z"/>
	</g>
	<g>
		<path class="st0" d="M647,633.5c-0.7,0-1.4-0.2-2-0.8l-75.8-65.1l-0.3-0.7l-45.1-117.2c-0.6-1.6,0.2-3.4,1.8-4.1
			c1.6-0.6,3.4,0.2,4.1,1.8l44.8,116.4l74.6,64c1.3,1.1,1.5,3.1,0.3,4.4C648.8,633.1,647.9,633.5,647,633.5z"/>
	</g>
	<g>
		<path class="st0" d="M80.8,556.7c-0.6,0-1.2-0.2-1.8-0.6c-1.4-1-1.8-2.9-0.8-4.4l28.2-40.5l19.4-110.2c0.3-1.7,1.9-2.8,3.6-2.5
			c1.7,0.3,2.8,1.9,2.5,3.6l-19.7,111.6l-29,41.6C82.7,556.2,81.8,556.7,80.8,556.7z"/>
	</g>
	<g>
		<path class="st0" d="M-5,342.3c-0.5,0-1-0.1-1.4-0.4c-1.5-0.8-2.1-2.7-1.3-4.2L28,268.6v-98c0-1.7,1.4-3.1,3.1-3.1
			s3.1,1.4,3.1,3.1v99.6l-36.5,70.5C-2.8,341.7-3.9,342.3-5,342.3z"/>
	</g>
	<g>
		<path class="st0" d="M18.8,296.3c-1.2,0-2.4-0.7-2.9-1.9l-18.1-41.8l-0.1-0.3l-20.2-81.1c-0.4-1.7,0.6-3.4,2.3-3.8
			c1.7-0.4,3.4,0.6,3.8,2.3l20.1,80.9l17.9,41.3c0.7,1.6,0,3.4-1.6,4.1C19.6,296.2,19.2,296.3,18.8,296.3z"/>
	</g>
	<g>
		<path class="st0" d="M-11.1,654.5c-0.7,0-1.4-0.2-2-0.7c-1.3-1.1-1.6-3.1-0.5-4.4L35.2,589l8.3-54c0.3-1.7,1.9-2.9,3.6-2.6
			c1.7,0.3,2.9,1.9,2.6,3.6l-8.5,55.6l-49.8,61.7C-9.3,654.1-10.2,654.5-11.1,654.5z"/>
	</g>
	<g>
		<path class="st0" d="M192.1,393c-0.9,0-1.7-0.4-2.3-1.1l-80.2-90.3L67.2,178.2l-45-46.1c-1.2-1.2-1.2-3.2,0.1-4.4
			c1.2-1.2,3.2-1.2,4.4,0.1l46,47.1l42.5,123.6l79.3,89.4c1.1,1.3,1,3.3-0.3,4.4C193.6,392.7,192.8,393,192.1,393z"/>
	</g>
	<g>
		<path class="st0" d="M425,471.8c-0.8,0-1.6-0.3-2.2-1c-1.2-1.2-1.2-3.2,0.1-4.4L527,365.3l26.4-123.9c0.4-1.7,2-2.8,3.7-2.4
			c1.7,0.4,2.8,2,2.4,3.7l-26.8,125.7L427.2,470.9C426.6,471.5,425.8,471.8,425,471.8z"/>
	</g>
	<g>
		<path class="st0" d="M538.5,329.5c-1.3,0-2.4-0.8-2.9-2l-21-53.6l-2.2-40.6l-24.8-58.4c-0.7-1.6,0.1-3.4,1.7-4.1
			c1.6-0.7,3.4,0.1,4.1,1.7l25.2,59.4l2.2,40.7l20.7,52.7c0.6,1.6-0.2,3.4-1.8,4.1C539.3,329.4,538.9,329.5,538.5,329.5z"/>
	</g>
	<g>
		<path class="st0" d="M352.9,759.7c-0.4,0-0.9-0.1-1.3-0.3c-1.6-0.7-2.3-2.6-1.5-4.2l29.5-64.1l38.7-46.5c1.1-1.3,3.1-1.5,4.4-0.4
			c1.3,1.1,1.5,3.1,0.4,4.4l-38.2,45.8l-29.1,63.4C355.2,759.1,354.1,759.7,352.9,759.7z"/>
	</g>
	<g>
		<path class="st0" d="M630.1,318.1c-0.7,0-1.4-0.2-2-0.7l-39-33.2l-12.2-85.9v-29.6L563.5,46L531.9-54.9c-0.5-1.7,0.4-3.4,2.1-3.9
			c1.7-0.5,3.4,0.4,3.9,2.1l31.8,101.4l13.5,123.9v29.5L595,281l37.2,31.6c1.3,1.1,1.5,3.1,0.4,4.4
			C631.9,317.8,631,318.1,630.1,318.1z"/>
	</g>
	<g>
		<path class="st0" d="M382.2,696c0,0-0.1,0-0.1,0c-1.7-0.1-3.1-1.5-3-3.3l3.3-82.8l-32.2-64.8c-0.8-1.5-0.1-3.4,1.4-4.2
			c1.6-0.8,3.4-0.1,4.2,1.4l33,66.3l-3.3,84.4C385.3,694.7,383.9,696,382.2,696z"/>
	</g>
	<g>
		<path class="st1" d="M155.5,444.2c-1.6,0-3.1-0.8-4-2.2l-38.1-61.5l21.2-83.1L93.7,193.9c-1-2.4,0.2-5.1,2.6-6.1
			c2.4-1,5.1,0.2,6.1,2.6l42,106.3l-21,82.1l36,58.1c1.4,2.2,0.7,5.1-1.5,6.5C157.2,444,156.4,444.2,155.5,444.2z"/>
	</g>
	<g>
		<path class="st0" d="M260.9,556.7c-1.1,0-2.2-0.6-2.8-1.6L230,503.6l-29.9-36.5c-1.1-1.3-0.9-3.3,0.4-4.4c1.3-1.1,3.3-0.9,4.4,0.4
			l30.3,36.9l0.1,0.3l28.2,51.7c0.8,1.5,0.3,3.4-1.2,4.3C261.9,556.6,261.4,556.7,260.9,556.7z"/>
	</g>
	<g>
		<path class="st1" d="M346.4,647.7c-1,0-1.9-0.4-2.5-1.3l-26.6-35.9l-34.1-131.3l-35-45c-1.1-1.4-0.8-3.3,0.6-4.4
			c1.4-1.1,3.3-0.8,4.4,0.6l35.7,46L323,607.8l25.9,34.9c1,1.4,0.7,3.4-0.6,4.4C347.7,647.5,347,647.7,346.4,647.7z"/>
	</g>
	<g>
		<path class="st1" d="M409.5,735.7c-0.6,0-1.3-0.2-1.9-0.6c-1.4-1-1.7-3-0.7-4.4l36.9-49.9l26.1-75.3c0.6-1.6,2.4-2.5,4-1.9
			s2.5,2.4,1.9,4l-26.5,76.2l-0.3,0.4l-37.2,50.3C411.4,735.2,410.5,735.7,409.5,735.7z"/>
	</g>
	<g>
		<path class="st1" d="M14.5,430.4c-0.8,0-1.6-0.3-2.2-0.9c-1.2-1.2-1.3-3.2-0.1-4.4l21.3-22.2l25.5-42.1c0.9-1.5,2.8-2,4.3-1.1
			c1.5,0.9,2,2.8,1.1,4.3l-25.9,42.7l-21.8,22.7C16.2,430.1,15.4,430.4,14.5,430.4z"/>
	</g>
	<g>
		<path class="st1" d="M25,724c-1,0-1.9-0.4-2.5-1.3c-1-1.4-0.7-3.4,0.7-4.4l29-21.3L77.3,666c1.1-1.3,3.1-1.5,4.4-0.5
			c1.3,1.1,1.5,3.1,0.5,4.4l-25.7,31.7l-29.6,21.8C26.2,723.8,25.6,724,25,724z"/>
	</g>
	<g>
		<path class="st1" d="M24.1,121.1c-0.6,0-1.1-0.1-1.6-0.5c-1.5-0.9-1.9-2.8-1-4.3l23-37.7l43.8-21.7c1.6-0.8,3.4-0.1,4.2,1.4
			c0.8,1.6,0.1,3.4-1.4,4.2L48.8,83.5l-22,36.1C26.1,120.6,25.1,121.1,24.1,121.1z"/>
	</g>
	<g>
		<path class="st1" d="M585.4,472.6c-0.6,0-1.2-0.2-1.8-0.5l-19.8-13.6l-12.3-49.4c-0.4-1.7,0.6-3.4,2.3-3.8
			c1.7-0.4,3.4,0.6,3.8,2.3l11.7,47.1l17.8,12.2c1.4,1,1.8,2.9,0.8,4.4C587.4,472.1,586.4,472.6,585.4,472.6z"/>
	</g>
	<g>
		<path class="st1" d="M628.9,385.7c-0.7,0-1.5-0.3-2.1-0.8l-62.3-56.2c-1.3-1.2-1.4-3.1-0.2-4.4s3.1-1.4,4.4-0.2l62.3,56.2
			c1.3,1.2,1.4,3.1,0.2,4.4C630.6,385.4,629.8,385.7,628.9,385.7z"/>
	</g>
	<g>
		<path class="st1" d="M537.9,585.1c-0.8,0-1.6-0.3-2.2-0.9l-28.1-28.3L494,492.1c-0.4-1.7,0.7-3.4,2.4-3.7c1.7-0.4,3.4,0.7,3.7,2.4
			l13.2,62l26.8,27c1.2,1.2,1.2,3.2,0,4.4C539.5,584.8,538.7,585.1,537.9,585.1z"/>
	</g>
	<g>
		<path class="st1" d="M487.9,538.7c-0.3,0-0.7-0.1-1-0.2l-20.1-7l-31.9-141c-0.4-1.7,0.7-3.4,2.4-3.8c1.7-0.4,3.4,0.7,3.7,2.4
			l31.1,137.6l16.8,5.9c1.6,0.6,2.5,2.4,1.9,4C490.4,537.9,489.2,538.7,487.9,538.7z"/>
	</g>
	<g>
		<path class="st1" d="M94.7,135.8c-0.7,0-1.5-0.3-2.1-0.8c-1.3-1.1-1.4-3.1-0.3-4.4l32-36.3L138.5,44c0.5-1.7,2.2-2.6,3.9-2.2
			c1.7,0.5,2.6,2.2,2.2,3.9L130,97.4l-32.9,37.4C96.4,135.5,95.6,135.8,94.7,135.8z"/>
	</g>
	<g>
		<path class="st1" d="M593.3,97.5c-1,0-2-0.5-2.6-1.4l-72.2-106c-1-1.4-0.6-3.4,0.8-4.4c1.4-1,3.4-0.6,4.4,0.8l72.2,106
			c1,1.4,0.6,3.4-0.8,4.4C594.6,97.3,594,97.5,593.3,97.5z"/>
	</g>
	<g>
		<path class="st1" d="M420.6,31.5c-1.2,0-2.3-0.7-2.8-1.8c-0.8-1.6-0.1-3.4,1.5-4.2l60.4-29.1L494-79.7c0.3-1.7,2-2.8,3.7-2.5
			c1.7,0.3,2.8,2,2.5,3.7L485.2,0.7L422,31.2C421.5,31.4,421.1,31.5,420.6,31.5z"/>
	</g>
	<g>
		<path class="st0" d="M159,355.7c-0.5,0-1.1-0.1-1.6-0.4c-1.5-0.9-2-2.8-1.1-4.3l50.8-84.8l81.9-75.5l6.3-47.6
			c0.2-1.7,1.8-2.9,3.5-2.7c1.7,0.2,2.9,1.8,2.7,3.5l-6.6,49.9L212,270.1l-50.4,84C161.1,355.1,160,355.7,159,355.7z"/>
	</g>
	<g>
		<path class="st0" d="M267.6,217.8c-0.2,0-0.4,0-0.6-0.1l-40.2-7.9L195.6,158c-0.9-1.5-0.4-3.4,1.1-4.3c1.5-0.9,3.4-0.4,4.3,1.1
			l29.7,49.5l37.5,7.3c1.7,0.3,2.8,2,2.5,3.7C270.4,216.8,269.1,217.8,267.6,217.8z"/>
	</g>
	<g>
		<path class="st0" d="M222,492c-0.2,0-0.5,0-0.7-0.1c-1.7-0.4-2.7-2.1-2.3-3.8l20.2-84.5l33.9-54.5l-5.9-93
			c-0.1-1.7,1.2-3.2,2.9-3.3c1.7-0.1,3.2,1.2,3.3,2.9l6.1,95L245,406l-20,83.5C224.7,491,223.4,492,222,492z"/>
	</g>
	<g>
		<path class="st1" d="M570,760.5c-0.3,0-0.6,0-0.9-0.1c-2.5-0.5-4.2-3-3.7-5.5l8.3-42.6l-22.1-38.1l4.8-41.5l-26.7-23.3
			c-2-1.7-2.2-4.7-0.5-6.6c1.7-2,4.7-2.2,6.6-0.5l30.4,26.5l-5.1,43.3l22.3,38.4l-9,46.1C574.2,758.9,572.2,760.5,570,760.5z"/>
	</g>
	<g>
		<path class="st1" d="M578.6,716.1c-0.3,0-0.6,0-0.9-0.1c-2.6-0.5-4.2-3-3.7-5.5l8.9-46.8l22.2-25.8c1.7-2,4.7-2.2,6.6-0.5
			c2,1.7,2.2,4.7,0.5,6.6L591.7,668l-8.5,44.3C582.8,714.5,580.9,716.1,578.6,716.1z"/>
	</g>
	<g>
		<path class="st1" d="M402.4,760.6c-0.3,0-0.6,0-1-0.1c-2.5-0.5-4.2-3-3.7-5.6l18.1-87.5V516.1l0-0.2l9.3-100.6l0.1-0.3l60.5-242.2
			l14-91.6l16.6-41.6v-51.8L531.9-77c0.6-2.5,3.1-4.1,5.7-3.5c2.5,0.6,4.1,3.1,3.5,5.7l-15.2,63.7v52.5L509,83.6l-13.9,90.9
			l-0.1,0.2l-60.4,242.1l-9.3,99.7v151.9L407,756.9C406.6,759.1,404.6,760.6,402.4,760.6z"/>
	</g>
	<g>
		<path class="st1" d="M331.3,760.6c-0.3,0-0.5,0-0.8-0.1c-2.6-0.5-4.3-2.9-3.8-5.4l8.1-45.8l13.4-126.8V419l0.3-0.8l58.6-162.4
			l-22.5-75.4l27.3-92l8.8-99.6v-70.6c0-2.6,2.1-4.7,4.7-4.7s4.7,2.1,4.7,4.7v71.1l-8.9,101l-0.1,0.5l-26.6,89.8l22.6,75.6
			l-59.4,164.5V583l0,0.2l-13.5,127.3l-8.2,46.1C335.5,759,333.6,760.6,331.3,760.6z"/>
	</g>
	<g>
		<path class="st1" d="M404.6,125.5c-1.1,0-2.2-0.4-3.1-1.2L316.9,50l-77.3-72.7l-20.9-54.8c-0.9-2.4,0.3-5.1,2.7-6.1
			c2.4-0.9,5.1,0.3,6.1,2.7l20.2,52.8l75.6,71.1l84.5,74.2c2,1.7,2.1,4.7,0.4,6.6C407.2,125,405.9,125.5,404.6,125.5z"/>
	</g>
	<g>
		<path class="st1" d="M190.8,760.6c-2.3,0-4.3-1.7-4.6-4l-6.3-44.6l0-0.5l4.5-85.9l0-90.6l6.3-96.3l40.8-149.8l95.5-97.7V132
			l17.7-60.4l0-43.5l6.6-107.5c0.2-2.6,2.4-4.6,5-4.4c2.6,0.2,4.6,2.4,4.4,5L354,28.5v44.4l-17.7,60.4v61.7l-96.5,98.7l-39.9,146.5
			l-6.2,95.2l0,90.6l-4.5,85.5l6.2,43.7c0.4,2.6-1.4,5-4,5.3C191.2,760.6,191,760.6,190.8,760.6z"/>
	</g>
	<g>
		<path class="st1" d="M235.6,296.1c-0.2,0-0.4,0-0.6,0c-2.6-0.4-4.4-2.7-4-5.3l20.8-151.3L273,111V81.8l10.8-84L309-80.6
			c0.8-2.5,3.4-3.8,5.9-3c2.5,0.8,3.8,3.4,3,5.9L293-0.2l-10.7,82.6v31.7l-21.7,28.9L240.2,292C239.9,294.3,237.9,296.1,235.6,296.1
			z"/>
	</g>
	<g>
		<path class="st1" d="M195.2,444.2c-2.5,0-4.5-1.9-4.7-4.4l-7.2-113l-3.6-90.2l16.7-25.9l-4-77.5l-6.3-32l6.3-90.5l-12.6-68.3
			l3.4-19.1c0.5-2.6,2.9-4.3,5.5-3.8c2.6,0.5,4.3,2.9,3.8,5.5l-3.1,17.4l12.5,67.8l-6.3,90.4l6.2,31.5l4.2,81.2l-16.7,26l3.5,87.1
			l7.2,112.8c0.2,2.6-1.8,4.8-4.4,5C195.4,444.2,195.3,444.2,195.2,444.2z"/>
	</g>
	<g>
		<path class="st1" d="M184.5,242.7c-2.1,0-3.9-1.4-4.5-3.4l-34.2-120.7l0-0.4L127.8-28.6l7.1-48c0.4-2.6,2.8-4.3,5.3-4
			c2.6,0.4,4.3,2.8,4,5.3l-6.9,46.7L155,116.7l34,120c0.7,2.5-0.7,5.1-3.2,5.8C185.4,242.6,184.9,242.7,184.5,242.7z"/>
	</g>
	<g>
		<path class="st1" d="M83.7,756.3c-2.6,0-4.7-2.1-4.7-4.7v-36.1l-4-70.9l0-0.3l4-64.1L62.4,431.7l21.2-52.3l4.9-95.9l7.1-131.2
			l-10.7-36.2V-24.2l-6.3-51.1c-0.3-2.6,1.5-4.9,4.1-5.2c2.6-0.3,4.9,1.5,5.2,4.1l6.4,51.7v139.3l10.8,36.5l-7.2,132.8l-5,97.5
			L72,433l16.5,147l-4,64.6l4,70.7v36.2C88.4,754.2,86.3,756.3,83.7,756.3z"/>
	</g>
	<g>
		<path class="st1" d="M89.6,43.8c-1.8,0-3.5-1-4.3-2.8L39.4-59.7l-3.6-15.1c-0.6-2.5,0.9-5.1,3.5-5.7c2.5-0.6,5.1,1,5.7,3.5
			l3.4,14.2l45.5,99.9c1.1,2.4,0,5.2-2.3,6.2C90.9,43.7,90.2,43.8,89.6,43.8z"/>
	</g>
	<g>
		<path class="st1" d="M505.2,760.6c-2.6,0-4.7-2.1-4.7-4.7v-27l13.4-39.4v-54.7l39.9-110.5l27.5-57.1l27.1-50.2
			c1.2-2.3,4.1-3.1,6.4-1.9c2.3,1.2,3.1,4.1,1.9,6.4l-27,50.1l-27.3,56.6l-39,108.3v54.6l-13.4,39.4v25.5
			C509.9,758.5,507.8,760.6,505.2,760.6z"/>
	</g>
	<g>
		<path class="st1" d="M258.5,756.3c-0.5,0-1.1-0.1-1.6-0.3c-2.4-0.9-3.7-3.6-2.9-6l12.6-35.6l2.2-53.1l79.7-171.9
			c1.1-2.4,3.9-3.4,6.2-2.3c2.4,1.1,3.4,3.9,2.3,6.2l-78.9,170.2l-2.2,52.6l-13.1,36.9C262.3,755.1,260.4,756.3,258.5,756.3z"/>
	</g>
	<g>
		<path class="st1" d="M161.5,756.3c-2.4,0-4.4-1.8-4.7-4.3l-5.6-59.9l-23.4-71.1l7.1-157.2l29.1-47.1c1.4-2.2,4.3-2.9,6.5-1.5
			c2.2,1.4,2.9,4.3,1.5,6.5l-27.8,45l-6.9,153l23.2,70.4l5.7,60.9c0.2,2.6-1.7,4.9-4.2,5.1C161.8,756.3,161.6,756.3,161.5,756.3z"/>
	</g>
	<g>
		<path class="st1" d="M67.2,437c-2.4,0-4.5-1.9-4.7-4.3l-5.4-70.2v-70.6L4.3,63.9L9.6-2.8L-3.5-77.7c-0.4-2.6,1.3-5,3.8-5.4
			c2.6-0.4,5,1.3,5.4,3.8L19.1-3.2l-5.3,66.4l52.7,227.6v71.5l5.4,69.7c0.2,2.6-1.7,4.8-4.3,5C67.4,437,67.3,437,67.2,437z"/>
	</g>
	<g>
		<path class="st1" d="M79.7,649.3c-2.1,0-3.9-1.4-4.5-3.4l-26.7-96.3l-25.2-49.4L1.7,383.7l-22-67.3c-0.8-2.5,0.5-5.1,3-5.9
			c2.5-0.8,5.1,0.5,5.9,3l22.2,67.9l21.4,115.7l25,49.1l27,97.2c0.7,2.5-0.8,5.1-3.3,5.8C80.5,649.2,80.1,649.3,79.7,649.3z"/>
	</g>
	<g>
		<path class="st1" d="M38.2,756.8c-1.8,0-3.6-1.1-4.3-2.9L15,709.4v-92l-35.4-121.1c-0.7-2.5,0.7-5.1,3.2-5.8
			c2.5-0.7,5.1,0.7,5.8,3.2l35.8,122.4v91.4l18.1,42.8c1,2.4-0.1,5.2-2.5,6.2C39.4,756.7,38.8,756.8,38.2,756.8z"/>
	</g>
	<g>
		<path class="st1" d="M377.2,759.7c-1.4,0-2.7-0.6-3.6-1.7l-79.2-95.5l-26.5-49.3l-35.7-19.6l-71.5-111.2c-1.4-2.2-0.8-5.1,1.4-6.5
			c2.2-1.4,5.1-0.8,6.5,1.4l70.3,109.2l36,19.8l27.4,51l78.6,94.8c1.7,2,1.4,5-0.6,6.6C379.3,759.3,378.2,759.7,377.2,759.7z"/>
	</g>
	<g>
		<path class="st1" d="M465.1,756.3c-0.1,0-0.2,0-0.3,0c-2.6-0.1-4.6-2.4-4.4-5l8-145.4l0.1-0.3l24.2-116l73-105.5L546,183.5
			l34.5-52.7L607.9,6.8c0.6-2.5,3.1-4.1,5.6-3.6c2.5,0.6,4.1,3.1,3.6,5.6l-27.8,125.7l-33.6,51.3l19.7,200.7l-73.9,106.8
			l-23.8,113.8l-7.9,144.7C469.7,754.4,467.6,756.3,465.1,756.3z"/>
	</g>
	<g>
		<path class="st1" d="M512.3,474.2c-2.4,0-4.5-1.9-4.7-4.3l-14.9-176.8l-68.5-93L411.8,89.8c-0.3-2.6,1.6-4.9,4.1-5.2
			c2.6-0.3,4.9,1.6,5.2,4.1l12.1,107.7l68.6,93.1L517,469.1c0.2,2.6-1.7,4.9-4.3,5.1C512.6,474.2,512.4,474.2,512.3,474.2z"/>
	</g>
	<g>
		<path class="st1" d="M134.9,518.5c-1.7,0-3.3-0.9-4.1-2.5l-40.2-74.9c-1.2-2.3-0.4-5.1,1.9-6.4c2.3-1.2,5.1-0.4,6.4,1.9l40.2,74.9
			c1.2,2.3,0.4,5.1-1.9,6.4C136.4,518.3,135.6,518.5,134.9,518.5z"/>
	</g>
	<g>
		<path class="st1" d="M192.9,480.3c-1.4,0-2.8-0.6-3.7-1.8c-1.6-2.1-1.2-5,0.8-6.6l103.2-80l58.3-137.8c1-2.4,3.8-3.5,6.2-2.5
			c2.4,1,3.5,3.8,2.5,6.2L301,397.8l-105.2,81.5C194.9,480,193.9,480.3,192.9,480.3z"/>
	</g>
	<g>
		<path class="st2" d="M308.9,340"/>
	</g>
	<g>
		<path class="st3" d="M209.6,462.7"/>
	</g>
	<g>
		<path class="st3" d="M378.3,349.3"/>
	</g>
	<g>
		<path class="st3" d="M307,370"/>
	</g>
	<g>
		<path class="st1" d="M349.1,456.2c-0.3,0-0.6,0-0.9-0.1l-45.9-14.5l-77-124.9c-0.9-1.5-0.5-3.4,1-4.3c1.5-0.9,3.4-0.5,4.3,1
			l75.8,122.9l43.7,13.8c1.7,0.5,2.6,2.3,2,3.9C351.7,455.3,350.4,456.2,349.1,456.2z"/>
	</g>
	<g>
		<path class="st1" d="M365.8,387.2c-1.3,0-2.4-0.8-2.9-2c-0.6-1.6,0.2-3.4,1.8-4.1l54-21.2l33.8-45.9c1-1.4,3-1.7,4.4-0.7
			c1.4,1,1.7,3,0.7,4.4l-34.9,47.3l-55.7,21.9C366.6,387.1,366.2,387.2,365.8,387.2z"/>
	</g>
	<g>
		<path class="st1" d="M319,342.3c-1.3,0-2.6-0.8-3-2.2l-22.6-69.7l4.1-44.3c0.2-1.7,1.7-3,3.4-2.8c1.7,0.2,3,1.7,2.8,3.4l-4,43
			l22.2,68.5c0.5,1.6-0.4,3.4-2,3.9C319.7,342.3,319.3,342.3,319,342.3z"/>
	</g>
	<g>
		<path class="st1" d="M402.4,280.8c-0.6,0-1.3-0.1-1.9-0.4l-47.7-20.7l-36.6-52.1c-1.5-2.1-1-5.1,1.1-6.5c2.1-1.5,5.1-1,6.5,1.1
			l35.1,49.9l45.3,19.7c2.4,1,3.5,3.8,2.4,6.2C406,279.8,404.2,280.8,402.4,280.8z"/>
	</g>
	<g>
		<path class="st0" d="M1016.4,213.4c-0.6,0-1.2-0.2-1.7-0.5l-29.9-19.2l-45-146.2c-0.5-1.7,0.4-3.4,2.1-3.9
			c1.7-0.5,3.4,0.4,3.9,2.1l44.4,144l28,18c1.5,0.9,1.9,2.9,0.9,4.3C1018.4,212.9,1017.4,213.4,1016.4,213.4z"/>
	</g>
	<g>
		<path class="st0" d="M1042,345.6c-0.5,0-0.9-0.1-1.4-0.3l-67.3-32.7l-34.4-58.2c-0.9-1.5-0.4-3.4,1.1-4.3c1.5-0.9,3.4-0.4,4.3,1.1
			l33.4,56.5l65.6,31.8c1.6,0.8,2.2,2.6,1.5,4.2C1044.2,345,1043.1,345.6,1042,345.6z"/>
	</g>
	<g>
		<path class="st0" d="M757.7,15.8c-0.6,0-1.1-0.2-1.6-0.5c-1.5-0.9-1.9-2.8-1-4.3l23.1-37.5l9.4-55.9c0.3-1.7,1.9-2.9,3.6-2.6
			c1.7,0.3,2.9,1.9,2.6,3.6l-9.6,57.1l-23.8,38.5C759.8,15.2,758.8,15.8,757.7,15.8z"/>
	</g>
	<g>
		<path class="st0" d="M674.3,9.1c-0.8,0-1.5-0.3-2.1-0.8l-42.6-38.9c-1.3-1.2-1.4-3.2-0.2-4.4c1.2-1.3,3.1-1.4,4.4-0.2l42.6,38.9
			c1.3,1.2,1.4,3.2,0.2,4.4C676,8.8,675.2,9.1,674.3,9.1z"/>
	</g>
	<g>
		<path class="st0" d="M635.7,83.8c-0.7,0-1.4-0.2-2-0.7c-1.3-1.1-1.6-3.1-0.5-4.4l33-40.9l18.3-117.7c0.3-1.7,1.9-2.9,3.6-2.6
			c1.7,0.3,2.9,1.9,2.6,3.6L672.2,40.4l-34.1,42.2C637.5,83.4,636.6,83.8,635.7,83.8z"/>
	</g>
	<g>
		<path class="st0" d="M802.8,55.9c-1.1,0-2.2-0.6-2.8-1.7l-18-34.7l-43-6.6l-29.3-35.4c-1.1-1.3-0.9-3.3,0.4-4.4
			c1.3-1.1,3.3-0.9,4.4,0.4l27.8,33.6l43.7,6.7l19.5,37.5c0.8,1.5,0.2,3.4-1.3,4.2C803.8,55.8,803.3,55.9,802.8,55.9z"/>
	</g>
	<g>
		<path class="st0" d="M1060.6,759.7c-0.7,0-1.4-0.2-1.9-0.7c-1.4-1.1-1.6-3-0.5-4.4l49.7-63.5l16.4-35.5c0.7-1.6,2.6-2.3,4.2-1.5
			c1.6,0.7,2.3,2.6,1.5,4.2l-16.7,36.2l-0.2,0.3l-50,63.7C1062.4,759.3,1061.5,759.7,1060.6,759.7z"/>
	</g>
	<g>
		<path class="st0" d="M1166.9,755.3c-1.2,0-2.4-0.7-2.9-1.9l-53-126.6l-53.1-28.8l-17.6-64.4c-0.5-1.7,0.5-3.4,2.2-3.9
			c1.7-0.5,3.4,0.5,3.9,2.2l16.9,61.9l52.7,28.6l0.4,1l53.5,127.6c0.7,1.6-0.1,3.4-1.7,4.1C1167.7,755.2,1167.3,755.3,1166.9,755.3z
			"/>
	</g>
	<g>
		<path class="st0" d="M1149.8,146.6c-1.7,0-3.1-1.4-3.1-3.1l-0.5-40.6l40.5-59.3c1-1.4,2.9-1.8,4.4-0.8c1.4,1,1.8,2.9,0.8,4.4
			l-39.3,57.7l0.5,38.6C1153,145.1,1151.6,146.6,1149.8,146.6C1149.9,146.6,1149.9,146.6,1149.8,146.6z"/>
	</g>
	<g>
		<path class="st0" d="M1016.4-7.5c-1.2,0-2.3-0.7-2.9-1.8c-0.7-1.6,0-3.4,1.5-4.2l58.5-26.9l17.1-42.7c0.6-1.6,2.5-2.4,4.1-1.7
			c1.6,0.6,2.4,2.5,1.7,4.1l-18.1,45l-60.8,27.9C1017.3-7.6,1016.8-7.5,1016.4-7.5z"/>
	</g>
	<g>
		<path class="st0" d="M958.9,102.1c-0.7,0-1.4-0.2-1.9-0.7c-1.4-1.1-1.6-3-0.5-4.4l48.8-62.6l20.8-116.8c0.3-1.7,1.9-2.8,3.6-2.5
			c1.7,0.3,2.8,1.9,2.5,3.6l-21,118.4l-49.7,63.8C960.7,101.6,959.8,102.1,958.9,102.1z"/>
	</g>
	<g>
		<path class="st0" d="M1012,17.3c-0.6,0-1.2-0.2-1.7-0.5l-61.2-39.1l-20.4-41.1c-0.8-1.6-0.1-3.4,1.4-4.2c1.6-0.8,3.4-0.1,4.2,1.4
			l19.6,39.5l59.8,38.1c1.5,0.9,1.9,2.9,1,4.3C1014,16.8,1013,17.3,1012,17.3z"/>
	</g>
	<g>
		<path class="st0" d="M1127.1,85.5c-0.6,0-1.1-0.2-1.7-0.5l-44.9-28l-35.2-61.4c-0.9-1.5-0.3-3.4,1.2-4.3c1.5-0.9,3.4-0.3,4.3,1.2
			l34.5,60l43.6,27.2c1.5,0.9,1.9,2.8,1,4.3C1129.1,85,1128.1,85.5,1127.1,85.5z"/>
	</g>
	<g>
		<path class="st0" d="M755.2,278.7c-0.2,0-0.5,0-0.7-0.1c-1.7-0.4-2.7-2.1-2.3-3.8l14.2-58.5l-7.4-47.9l0.2-0.6l28.8-110.1l60-34.3
			l25.7-38.6l22.3-61.6c0.6-1.6,2.4-2.5,4-1.9c1.6,0.6,2.5,2.4,1.9,4l-22.6,62.3L852.3,28l-59,33.8l-27.9,106.9l7.3,47.9l-14.5,59.7
			C757.9,277.7,756.6,278.7,755.2,278.7z"/>
	</g>
	<g>
		<path class="st0" d="M1204.4,213.4c-0.9,0-1.8-0.4-2.4-1.2l-53.8-65.9l-30.2-4.9c-1.7-0.3-2.9-1.9-2.6-3.6
			c0.3-1.7,1.9-2.9,3.6-2.6l32.5,5.3l55.3,67.7c1.1,1.3,0.9,3.3-0.4,4.4C1205.8,213.2,1205.1,213.4,1204.4,213.4z"/>
	</g>
	<g>
		<path class="st0" d="M819.7,135.8c-0.9,0-1.8-0.4-2.4-1.2c-1.1-1.3-0.9-3.3,0.5-4.4l49.1-39.6l20.3-94.1c0.4-1.7,2-2.8,3.7-2.4
			c1.7,0.4,2.8,2,2.4,3.7l-20.8,96.3l-50.9,41C821.1,135.6,820.4,135.8,819.7,135.8z"/>
	</g>
	<g>
		<path class="st0" d="M1066.8,225c-0.2,0-0.4,0-0.6-0.1c-1.7-0.3-2.8-2-2.5-3.7l15.9-79.2V54.8c0-1.7,1.4-3.1,3.1-3.1
			s3.1,1.4,3.1,3.1v87.9l-16.1,79.8C1069.6,224,1068.3,225,1066.8,225z"/>
	</g>
	<g>
		<path class="st0" d="M1179.1,13.1c-1,0-1.9-0.4-2.5-1.3c-1-1.4-0.7-3.4,0.7-4.4l28.2-20.5l23-63.9c0.6-1.6,2.4-2.5,4-1.9
			c1.6,0.6,2.5,2.4,1.9,4l-23.6,65.7L1181,12.5C1180.4,13,1179.8,13.1,1179.1,13.1z"/>
	</g>
	<g>
		<path class="st0" d="M844.6,754.7c-0.1,0-0.2,0-0.3,0c-1.7-0.2-3-1.7-2.8-3.4l4.3-49.1l24.8-46l20.5-47.8c0.7-1.6,2.5-2.3,4.1-1.6
			c1.6,0.7,2.3,2.5,1.6,4.1l-20.7,48.2l-24.2,45l-4.2,47.8C847.6,753.5,846.2,754.7,844.6,754.7z"/>
	</g>
	<g>
		<path class="st0" d="M757.7,756.9c-0.2,0-0.4,0-0.5,0c-1.7-0.3-2.8-1.9-2.5-3.6l13-73.9l72-37.2l30.9-39.7l17-84.6l122-55.1
			l19.7-55.2l15.9-107.3l40.7-26.8c1.4-1,3.4-0.6,4.3,0.9s0.6,3.4-0.9,4.3l-38.4,25.3l-15.6,105.1l-20.8,58.3L893,522.3l-16.7,82.9
			l-32.7,41.9l-70.4,36.4l-12.4,70.9C760.5,755.9,759.2,756.9,757.7,756.9z"/>
	</g>
	<g>
		<path class="st0" d="M944,411.5l-79.4-3.6c-1.7-0.1-3.1-1.5-3-3.3c0.1-1.7,1.5-3.1,3.3-3l76.6,3.4l57.3-58c1.2-1.2,3.2-1.2,4.4,0
			c1.2,1.2,1.2,3.2,0,4.4L944,411.5z"/>
	</g>
	<g>
		<path class="st0" d="M809.2,676.3c-1.2,0-2.3-0.7-2.9-1.9l-18.7-42l-0.1-0.5l-4.8-45.1l-26.8-20.1c-1.4-1-1.7-3-0.6-4.4
			c1-1.4,3-1.7,4.4-0.6l29,21.8l5.1,47.3l18.3,41.1c0.7,1.6,0,3.4-1.6,4.1C810,676.2,809.6,676.3,809.2,676.3z"/>
	</g>
	<g>
		<path class="st0" d="M765.2,714.6c-1.3,0-2.5-0.8-3-2.1l-15-44.7l-50.3-40.8c-1.3-1.1-1.6-3.1-0.5-4.4c1.1-1.3,3.1-1.5,4.4-0.5
			l51.8,42l15.6,46.4c0.6,1.6-0.3,3.4-2,4C765.8,714.5,765.5,714.6,765.2,714.6z"/>
	</g>
	<g>
		<path class="st0" d="M749.8,669c-1.1,0-2.2-0.6-2.8-1.6l-27-49.3l-0.1-0.2l-18-49.6c-0.6-1.6,0.2-3.4,1.9-4c1.6-0.6,3.4,0.2,4,1.9
			l17.9,49.3l26.8,48.9c0.8,1.5,0.3,3.4-1.2,4.3C750.8,668.9,750.3,669,749.8,669z"/>
	</g>
	<g>
		<path class="st0" d="M1262.9,619.9c-0.7,0-1.3-0.2-1.9-0.6l-69.2-51.5l-45.5-118c-0.6-1.6,0.2-3.4,1.8-4.1
			c1.6-0.6,3.4,0.2,4.1,1.8l44.8,116.3l67.7,50.4c1.4,1,1.7,3,0.6,4.4C1264.8,619.5,1263.9,619.9,1262.9,619.9z"/>
	</g>
	<g>
		<path class="st0" d="M703.4,556.7c-0.6,0-1.2-0.2-1.8-0.6c-1.4-1-1.8-2.9-0.8-4.4l28.2-40.5l19.4-110.2c0.3-1.7,1.9-2.8,3.6-2.5
			c1.7,0.3,2.8,1.9,2.5,3.6l-19.7,111.6l-29,41.6C705.4,556.2,704.4,556.7,703.4,556.7z"/>
	</g>
	<g>
		<path class="st0" d="M617.6,342.3c-0.5,0-1-0.1-1.4-0.4c-1.5-0.8-2.1-2.7-1.3-4.2l35.8-69.2v-98c0-1.7,1.4-3.1,3.1-3.1
			s3.1,1.4,3.1,3.1v99.6l-36.5,70.5C619.8,341.7,618.7,342.3,617.6,342.3z"/>
	</g>
	<g>
		<path class="st0" d="M641.4,296.3c-1.2,0-2.4-0.7-2.9-1.9l-18.2-42l-11-95.8c-0.2-1.7,1-3.3,2.8-3.5c1.7-0.2,3.3,1,3.5,2.8
			l10.9,94.8l17.8,41.1c0.7,1.6,0,3.4-1.6,4.1C642.3,296.2,641.8,296.3,641.4,296.3z"/>
	</g>
	<g>
		<path class="st0" d="M597.9,771.2c-0.3,0-0.7-0.1-1-0.2c-1.6-0.6-2.5-2.4-1.9-4l62.8-177.5l8.3-54.5c0.3-1.7,1.9-2.9,3.6-2.6
			c1.7,0.3,2.9,1.9,2.6,3.6l-8.4,55.1l-0.1,0.3l-62.9,177.8C600.4,770.4,599.2,771.2,597.9,771.2z"/>
	</g>
	<g>
		<path class="st0" d="M814.7,393c-0.9,0-1.7-0.4-2.3-1.1l-80.2-90.3L732,301l-42.2-122.8l-45-46.1c-1.2-1.2-1.2-3.2,0.1-4.4
			c1.2-1.2,3.2-1.2,4.4,0.1l46,47.1l42.5,123.6l79.3,89.4c1.1,1.3,1,3.3-0.3,4.4C816.2,392.7,815.5,393,814.7,393z"/>
	</g>
	<g>
		<path class="st0" d="M1047.7,471.8c-0.8,0-1.6-0.3-2.2-1c-1.2-1.2-1.2-3.2,0.1-4.4l104.1-101.1l26.4-123.9c0.4-1.7,2-2.8,3.7-2.4
			c1.7,0.4,2.8,2,2.4,3.7l-26.8,125.7l-0.7,0.7l-104.8,101.8C1049.3,471.5,1048.5,471.8,1047.7,471.8z"/>
	</g>
	<g>
		<path class="st0" d="M1161.1,329.5c-1.3,0-2.4-0.8-2.9-2l-21-53.6l-2.2-40.6l-24.8-58.4c-0.7-1.6,0.1-3.4,1.7-4.1
			c1.6-0.7,3.4,0.1,4.1,1.7l25.2,59.4l2.2,40.7l20.7,52.7c0.6,1.6-0.2,3.4-1.8,4.1C1161.9,329.4,1161.5,329.5,1161.1,329.5z"/>
	</g>
	<g>
		<path class="st0" d="M975.5,759.7c-0.4,0-0.9-0.1-1.3-0.3c-1.6-0.7-2.3-2.6-1.5-4.2l29.5-64.1l38.7-46.5c1.1-1.3,3.1-1.5,4.4-0.4
			c1.3,1.1,1.5,3.1,0.4,4.4l-38.2,45.8l-29.1,63.4C977.9,759.1,976.7,759.7,975.5,759.7z"/>
	</g>
	<g>
		<path class="st0" d="M1205.9,341.5c-0.2,0-0.3,0-0.5,0c-1.7-0.3-2.9-1.9-2.6-3.6l8.7-55.3l-12-84.1v-29.8L1186.2,46l-31.6-100.8
			c-0.5-1.7,0.4-3.4,2.1-3.9c1.6-0.5,3.4,0.4,3.9,2.1l31.8,101.4l13.5,123.9v29.5l12,84.6l-8.9,56.3
			C1208.7,340.4,1207.4,341.5,1205.9,341.5z"/>
	</g>
	<g>
		<path class="st0" d="M1004.8,696c0,0-0.1,0-0.1,0c-1.7-0.1-3.1-1.5-3-3.3l3.3-82.8l-32.2-64.8c-0.8-1.5-0.1-3.4,1.4-4.2
			c1.5-0.8,3.4-0.1,4.2,1.4l33,66.3l0,0.8L1008,693C1007.9,694.7,1006.5,696,1004.8,696z"/>
	</g>
	<g>
		<path class="st1" d="M778.2,444.2c-1.6,0-3.1-0.8-4-2.2L736,380.5l21.2-83.1l-40.9-103.5c-1-2.4,0.2-5.1,2.6-6.1
			c2.4-1,5.1,0.2,6.1,2.6l42,106.3l-21,82.1l36,58.1c1.4,2.2,0.7,5.1-1.5,6.5C779.9,444,779,444.2,778.2,444.2z"/>
	</g>
	<g>
		<path class="st0" d="M883.5,556.7c-1.1,0-2.2-0.6-2.8-1.6l-28.1-51.5l-29.9-36.5c-1.1-1.3-0.9-3.3,0.4-4.4s3.3-0.9,4.4,0.4
			l30.3,36.9l0.1,0.3l28.2,51.7c0.8,1.5,0.3,3.4-1.2,4.3C884.6,556.6,884,556.7,883.5,556.7z"/>
	</g>
	<g>
		<path class="st1" d="M969,647.7c-1,0-1.9-0.4-2.5-1.3l-26.6-35.9l-34.1-131.3l-35-45c-1.1-1.4-0.8-3.3,0.6-4.4
			c1.4-1.1,3.3-0.8,4.4,0.6l35.7,46l0.2,0.6l34,130.8l25.9,34.9c1,1.4,0.7,3.4-0.6,4.4C970.3,647.5,969.7,647.7,969,647.7z"/>
	</g>
	<g>
		<path class="st1" d="M1032.2,735.7c-0.6,0-1.3-0.2-1.9-0.6c-1.4-1-1.7-3-0.7-4.4l36.9-49.9l26.1-75.3c0.6-1.6,2.4-2.5,4-1.9
			c1.6,0.6,2.5,2.4,1.9,4l-26.5,76.2l-0.3,0.4l-37.2,50.3C1034.1,735.2,1033.1,735.7,1032.2,735.7z"/>
	</g>
	<g>
		<path class="st1" d="M637.2,430.4c-0.8,0-1.6-0.3-2.2-0.9c-1.2-1.2-1.3-3.2-0.1-4.4l21.3-22.2l25.5-42.1c0.9-1.5,2.8-2,4.3-1.1
			c1.5,0.9,2,2.8,1.1,4.3l-25.9,42.7l-21.8,22.7C638.8,430.1,638,430.4,637.2,430.4z"/>
	</g>
	<g>
		<path class="st1" d="M647.6,724c-1,0-1.9-0.4-2.5-1.3c-1-1.4-0.7-3.4,0.7-4.4l29-21.3l25.2-31.1c1.1-1.3,3.1-1.5,4.4-0.5
			c1.3,1.1,1.5,3.1,0.5,4.4l-25.7,31.7l-29.6,21.8C648.9,723.8,648.2,724,647.6,724z"/>
	</g>
	<g>
		<path class="st1" d="M646.7,121.1c-0.6,0-1.1-0.1-1.6-0.5c-1.5-0.9-1.9-2.8-1-4.3l23-37.7l43.8-21.7c1.6-0.8,3.4-0.1,4.2,1.4
			c0.8,1.6,0.1,3.4-1.4,4.2l-42.2,20.9l-22,36.1C648.8,120.6,647.8,121.1,646.7,121.1z"/>
	</g>
	<g>
		<path class="st1" d="M1208.1,472.6c-0.6,0-1.2-0.2-1.8-0.5l-19.8-13.6l-12.3-49.4c-0.4-1.7,0.6-3.4,2.3-3.8
			c1.7-0.4,3.4,0.6,3.8,2.3l11.7,47.1l17.8,12.2c1.4,1,1.8,2.9,0.8,4.4C1210,472.1,1209.1,472.6,1208.1,472.6z"/>
	</g>
	<g>
		<path class="st1" d="M1246.1,375.5c-0.7,0-1.4-0.2-2-0.7l-56.9-46c-1.3-1.1-1.6-3.1-0.5-4.4c1.1-1.3,3.1-1.6,4.4-0.5l56.9,46
			c1.3,1.1,1.6,3.1,0.5,4.4C1248,375.1,1247.1,375.5,1246.1,375.5z"/>
	</g>
	<g>
		<path class="st1" d="M1160.6,585.1c-0.8,0-1.6-0.3-2.2-0.9l-28.1-28.3l-13.6-63.8c-0.4-1.7,0.7-3.4,2.4-3.7
			c1.7-0.4,3.4,0.7,3.7,2.4l13.2,62l26.8,27c1.2,1.2,1.2,3.2,0,4.4C1162.2,584.8,1161.4,585.1,1160.6,585.1z"/>
	</g>
	<g>
		<path class="st1" d="M1110.5,538.7c-0.3,0-0.7-0.1-1-0.2l-20.1-7l-0.4-1.7l-31.5-139.3c-0.4-1.7,0.7-3.4,2.4-3.8
			c1.7-0.4,3.4,0.7,3.8,2.4l31.1,137.6l16.8,5.9c1.6,0.6,2.5,2.4,1.9,4C1113,537.9,1111.8,538.7,1110.5,538.7z"/>
	</g>
	<g>
		<path class="st1" d="M717.4,135.8c-0.7,0-1.5-0.3-2.1-0.8c-1.3-1.1-1.4-3.1-0.3-4.4l32-36.3L761.1,44c0.5-1.7,2.2-2.6,3.9-2.2
			c1.7,0.5,2.6,2.2,2.2,3.9l-14.5,51.7l-32.9,37.4C719.1,135.5,718.2,135.8,717.4,135.8z"/>
	</g>
	<g>
		<path class="st1" d="M1216,97.5c-1,0-2-0.5-2.6-1.4l-72.2-106c-1-1.4-0.6-3.4,0.8-4.4c1.4-1,3.4-0.6,4.4,0.8l72.2,106
			c1,1.4,0.6,3.4-0.8,4.4C1217.2,97.3,1216.6,97.5,1216,97.5z"/>
	</g>
	<g>
		<path class="st1" d="M1043.3,31.5c-1.2,0-2.3-0.7-2.8-1.8c-0.8-1.6-0.1-3.4,1.5-4.2l60.4-29.1l14.4-76.1c0.3-1.7,2-2.8,3.7-2.5
			c1.7,0.3,2.8,2,2.5,3.7l-14.9,79.2l-63.3,30.5C1044.2,31.4,1043.7,31.5,1043.3,31.5z"/>
	</g>
	<g>
		<path class="st0" d="M781.6,355.7c-0.5,0-1.1-0.1-1.6-0.4c-1.5-0.9-2-2.8-1.1-4.3l50.8-84.8l0.3-0.3l81.6-75.1L918,143
			c0.2-1.7,1.8-2.9,3.5-2.7c1.7,0.2,2.9,1.8,2.7,3.5l-6.6,49.9l-82.9,76.4l-50.4,84C783.7,355.1,782.7,355.7,781.6,355.7z"/>
	</g>
	<g>
		<path class="st0" d="M890.3,217.8c-0.2,0-0.4,0-0.6-0.1l-40.2-7.9L818.2,158c-0.9-1.5-0.4-3.4,1.1-4.3c1.5-0.9,3.4-0.4,4.3,1.1
			l29.7,49.5l37.5,7.3c1.7,0.3,2.8,2,2.5,3.7C893,216.8,891.7,217.8,890.3,217.8z"/>
	</g>
	<g>
		<path class="st0" d="M844.6,492c-0.2,0-0.5,0-0.7-0.1c-1.7-0.4-2.7-2.1-2.3-3.8l20.2-84.5l33.9-54.5l-5.9-93
			c-0.1-1.7,1.2-3.2,2.9-3.3c1.7-0.1,3.2,1.2,3.3,2.9l6.1,95L867.7,406l-20,83.5C847.3,491,846,492,844.6,492z"/>
	</g>
	<g>
		<path class="st1" d="M1192.7,760.5c-0.3,0-0.6,0-0.9-0.1c-2.5-0.5-4.2-3-3.7-5.5l8.3-42.6l-22.1-38.1l4.8-41.5l-26.7-23.3
			c-2-1.7-2.2-4.7-0.5-6.6c1.7-2,4.7-2.2,6.6-0.5l30.4,26.5l-5.1,43.3l22.3,38.4l-9,46.1C1196.8,758.9,1194.9,760.5,1192.7,760.5z"
			/>
	</g>
	<g>
		<path class="st1" d="M1201.3,716.1c-0.3,0-0.6,0-0.9-0.1c-2.6-0.5-4.2-3-3.7-5.5l8.9-46.8l21.1-24.5c1.7-2,4.7-2.2,6.6-0.5
			c2,1.7,2.2,4.7,0.5,6.6l-19.4,22.6l-8.5,44.3C1205.5,714.5,1203.5,716.1,1201.3,716.1z"/>
	</g>
	<g>
		<path class="st1" d="M1025.1,760.6c-0.3,0-0.6,0-1-0.1c-2.5-0.5-4.2-3-3.7-5.6l18.1-87.5V516.1l0-0.2l9.3-100.6l0.1-0.3
			l60.5-242.2l14-91.6l0.2-0.5l16.4-41.1v-51.8l0.1-0.5l15.3-64.2c0.6-2.5,3.1-4.1,5.7-3.5c2.5,0.6,4.1,3.1,3.5,5.7l-15.2,63.7v52.5
			l-16.9,42.2l-13.9,90.9l-0.1,0.2l-60.4,242.1l-9.3,99.7v151.9l-18.3,88.4C1029.2,759.1,1027.2,760.6,1025.1,760.6z"/>
	</g>
	<g>
		<path class="st1" d="M954,760.6c-0.3,0-0.5,0-0.8-0.1c-2.6-0.5-4.3-2.9-3.8-5.4l8.1-45.8l13.4-126.8V419l58.9-163.2l-22.5-75.4
			l27.3-92l8.8-99.6v-70.6c0-2.6,2.1-4.7,4.7-4.7s4.7,2.1,4.7,4.7v71.1l0,0.2l-8.9,100.8l-26.8,90.3l22.6,75.6l-59.4,164.5V583
			l0,0.2l-13.5,127.3l0,0.2l-8.1,46C958.2,759,956.2,760.6,954,760.6z"/>
	</g>
	<g>
		<path class="st1" d="M1027.3,125.5c-1.1,0-2.2-0.4-3.1-1.2L939.5,50l-77.3-72.7l-20.9-54.8c-0.9-2.4,0.3-5.1,2.7-6.1
			c2.4-0.9,5.1,0.3,6.1,2.7l20.2,52.8l75.6,71.1l84.5,74.2c2,1.7,2.1,4.7,0.4,6.6C1029.9,125,1028.6,125.5,1027.3,125.5z"/>
	</g>
	<g>
		<path class="st1" d="M813.4,760.6c-2.3,0-4.3-1.7-4.6-4l-6.3-44.6l4.5-86.3l0-90.6l6.3-96.3L854,288.9l95.5-97.7V132l17.7-60.4
			l0-43.5l6.6-107.5c0.2-2.6,2.4-4.6,5-4.4c2.6,0.2,4.6,2.4,4.4,5l-6.6,107.4v44.4l-17.7,60.4v61.7l-96.5,98.7l-39.9,146.5
			l-6.2,95.2l0,90.6l-4.5,85.5l6.2,43.7c0.4,2.6-1.4,5-4,5.3C813.9,760.6,813.6,760.6,813.4,760.6z"/>
	</g>
	<g>
		<path class="st1" d="M858.2,296.1c-0.2,0-0.4,0-0.6,0c-2.6-0.4-4.4-2.7-4-5.3l20.8-151.3l21.3-28.4V81.8l0-0.3l10.8-83.7
			l25.2-78.4c0.8-2.5,3.4-3.8,5.9-3c2.5,0.8,3.8,3.4,3,5.9L915.7-0.2L905,82.4v31.7l-21.7,28.9L862.9,292
			C862.5,294.3,860.5,296.1,858.2,296.1z"/>
	</g>
	<g>
		<path class="st1" d="M817.9,444.2c-2.5,0-4.5-1.9-4.7-4.4l-7.2-113l-3.6-90.2l16.7-25.9l-4-77.5l-6.3-32l6.3-90.5l-12.6-68.3
			l3.4-19.1c0.5-2.6,2.9-4.3,5.5-3.8c2.6,0.5,4.3,2.9,3.8,5.5l-3.1,17.4l12.5,67.8l-6.3,90.4l6.2,31.5l4.2,81.2l-16.7,26l3.5,87.1
			l7.2,112.8c0.2,2.6-1.8,4.8-4.4,5C818.1,444.2,818,444.2,817.9,444.2z"/>
	</g>
	<g>
		<path class="st1" d="M807.1,242.7c-2.1,0-3.9-1.4-4.5-3.4l-34.2-120.7l0-0.4L750.5-28.6l7.1-48c0.4-2.6,2.8-4.3,5.3-4
			c2.6,0.4,4.3,2.8,4,5.3l-6.9,46.7l17.7,145.1l34,120c0.7,2.5-0.7,5.1-3.2,5.8C808,242.6,807.6,242.7,807.1,242.7z"/>
	</g>
	<g>
		<path class="st1" d="M706.4,756.3c-2.6,0-4.7-2.1-4.7-4.7v-36.1l-4-70.9l0-0.3l4-64.1L685,431.7l21.2-52.3l4.9-95.9l7.1-131.2
			l-10.7-36.2V-24.2l-6.3-51.1c-0.3-2.6,1.5-4.9,4.1-5.2c2.6-0.3,4.9,1.5,5.2,4.1l6.4,51.7v139.3l10.8,36.5l-7.2,132.8l-5,97.5
			L694.6,433l16.5,147l-4,64.6l4,70.7v36.2C711.1,754.2,709,756.3,706.4,756.3z"/>
	</g>
	<g>
		<path class="st1" d="M712.2,43.8c-1.8,0-3.5-1-4.3-2.8L662.1-59.7l-3.6-15.1c-0.6-2.5,0.9-5.1,3.5-5.7c2.5-0.6,5.1,1,5.7,3.5
			l3.4,14.2l45.5,99.9c1.1,2.4,0,5.2-2.3,6.2C713.5,43.7,712.9,43.8,712.2,43.8z"/>
	</g>
	<g>
		<path class="st1" d="M1127.8,760.6c-2.6,0-4.7-2.1-4.7-4.7v-27l13.4-39.4v-54.7l0.3-0.8l39.5-109.5l0.1-0.2l27.5-57.1l27.1-50.2
			c1.2-2.3,4.1-3.1,6.4-1.9c2.3,1.2,3.1,4.1,1.9,6.4l-27,50.1l-27.3,56.6l-39,108.3v54.6l-13.4,39.4v25.5
			C1132.5,758.5,1130.4,760.6,1127.8,760.6z"/>
	</g>
	<g>
		<path class="st1" d="M881.1,756.3c-0.5,0-1.1-0.1-1.6-0.3c-2.4-0.9-3.7-3.6-2.9-6l12.6-35.6l2.2-53.1l79.7-171.9
			c1.1-2.4,3.9-3.4,6.2-2.3c2.4,1.1,3.4,3.9,2.3,6.2l-78.9,170.2l-2.2,52.6l-13.1,36.9C884.9,755.1,883.1,756.3,881.1,756.3z"/>
	</g>
	<g>
		<path class="st1" d="M784.1,756.3c-2.4,0-4.4-1.8-4.7-4.3l-5.6-59.9l-23.4-71.1l0-0.9l7-156.3l29.1-47.1c1.4-2.2,4.3-2.9,6.5-1.5
			c2.2,1.4,2.9,4.3,1.5,6.5l-27.8,45l-6.9,153l23.2,70.4l5.7,60.9c0.2,2.6-1.7,4.9-4.2,5.1C784.4,756.3,784.2,756.3,784.1,756.3z"/>
	</g>
	<g>
		<path class="st1" d="M689.8,437c-2.4,0-4.5-1.9-4.7-4.3l-5.4-70.2v-70.6l-52.8-228l5.3-66.6l-13.1-74.9c-0.4-2.6,1.3-5,3.8-5.4
			c2.6-0.4,5,1.3,5.4,3.8l13.3,76.1l-5.3,66.4l52.7,227.6v71.5l5.4,69.7c0.2,2.6-1.7,4.8-4.3,5C690,437,689.9,437,689.8,437z"/>
	</g>
	<g>
		<path class="st1" d="M702.3,649.3c-2.1,0-3.9-1.4-4.5-3.4l-26.7-96.3l-25.2-49.4l-21.6-116.4l-22-67.3c-0.8-2.5,0.5-5.1,3-5.9
			c2.5-0.8,5.1,0.5,5.9,3l22.2,67.9l21.4,115.7l25,49.1l27,97.2c0.7,2.5-0.8,5.1-3.3,5.8C703.2,649.2,702.8,649.3,702.3,649.3z"/>
	</g>
	<g>
		<path class="st1" d="M660.8,756.8c-1.8,0-3.6-1.1-4.3-2.9l-18.8-44.6v-92l-35.4-121.1c-0.7-2.5,0.7-5.1,3.2-5.8
			c2.5-0.7,5.1,0.7,5.8,3.2L647,616.1v91.4l18.1,42.8c1,2.4-0.1,5.2-2.5,6.2C662,756.7,661.4,756.8,660.8,756.8z"/>
	</g>
	<g>
		<path class="st1" d="M999.8,759.7c-1.4,0-2.7-0.6-3.6-1.7L917,662.5l-26.5-49.3l-35.7-19.6l-71.5-111.2c-1.4-2.2-0.8-5.1,1.4-6.5
			c2.2-1.4,5.1-0.8,6.5,1.4l70.3,109.2l36,19.8l27.4,51l78.6,94.8c1.7,2,1.4,5-0.6,6.6C1001.9,759.3,1000.9,759.7,999.8,759.7z"/>
	</g>
	<g>
		<path class="st1" d="M1087.7,756.3c-0.1,0-0.2,0-0.3,0c-2.6-0.1-4.6-2.4-4.4-5l8-145.4l0.1-0.3l24.2-116l73-105.5l-19.7-200.6
			l34.5-52.7l27.4-124.1c0.6-2.5,3.1-4.1,5.6-3.6c2.5,0.6,4.1,3.1,3.6,5.6l-27.8,125.7l-33.6,51.3l19.7,200.7l-73.9,106.8
			l-23.8,113.8l-7.9,144.7C1092.3,754.4,1090.2,756.3,1087.7,756.3z"/>
	</g>
	<g>
		<path class="st1" d="M1134.9,474.2c-2.4,0-4.5-1.9-4.7-4.3l-14.9-176.8l-68.5-93l-12.4-110.2c-0.3-2.6,1.6-4.9,4.1-5.2
			c2.6-0.3,4.9,1.6,5.2,4.1l12.1,107.7l68.6,93.1l15.1,179.4c0.2,2.6-1.7,4.9-4.3,5.1C1135.2,474.2,1135.1,474.2,1134.9,474.2z"/>
	</g>
	<g>
		<path class="st1" d="M757.5,518.5c-1.7,0-3.3-0.9-4.1-2.5l-40.2-74.9c-1.2-2.3-0.4-5.1,1.9-6.4c2.3-1.2,5.1-0.4,6.4,1.9l40.2,74.9
			c1.2,2.3,0.4,5.1-1.9,6.4C759,518.3,758.3,518.5,757.5,518.5z"/>
	</g>
	<g>
		<path class="st1" d="M815.5,480.3c-1.4,0-2.8-0.6-3.7-1.8c-1.6-2.1-1.2-5,0.8-6.6l103.2-80l58.3-137.8c1-2.4,3.8-3.5,6.2-2.5
			c2.4,1,3.5,3.8,2.5,6.2l-59.3,140.1l-105.2,81.5C817.6,480,816.5,480.3,815.5,480.3z"/>
	</g>
	<g>
		<path class="st2" d="M931.5,340"/>
	</g>
	<g>
		<path class="st3" d="M832.2,462.7"/>
	</g>
	<g>
		<path class="st3" d="M1001,349.3"/>
	</g>
	<g>
		<path class="st3" d="M929.7,370"/>
	</g>
	<g>
		<path class="st1" d="M971.7,456.2c-0.3,0-0.6,0-0.9-0.1l-45.9-14.5l-77-124.9c-0.9-1.5-0.5-3.4,1-4.3c1.5-0.9,3.4-0.5,4.3,1
			L929,436.3l43.7,13.8c1.7,0.5,2.6,2.3,2,3.9C974.3,455.3,973.1,456.2,971.7,456.2z"/>
	</g>
	<g>
		<path class="st1" d="M988.4,387.2c-1.3,0-2.4-0.8-2.9-2c-0.6-1.6,0.2-3.4,1.8-4.1l54-21.2l33.8-45.9c1-1.4,3-1.7,4.4-0.7
			c1.4,1,1.7,3,0.7,4.4l-34.9,47.3l-0.8,0.3l-54.8,21.6C989.2,387.1,988.8,387.2,988.4,387.2z"/>
	</g>
	<g>
		<path class="st1" d="M941.6,342.3c-1.3,0-2.5-0.8-3-2.2L916,270.4l4.1-44.3c0.2-1.7,1.7-3,3.4-2.8c1.7,0.2,3,1.7,2.8,3.4l-4,43
			l22.2,68.5c0.5,1.6-0.4,3.4-2,3.9C942.3,342.3,942,342.3,941.6,342.3z"/>
	</g>
	<g>
		<path class="st1" d="M1025.1,280.8c-0.6,0-1.3-0.1-1.9-0.4l-47.7-20.7l-36.6-52.1c-1.5-2.1-1-5.1,1.1-6.5s5.1-1,6.5,1.1l35.1,49.9
			l45.3,19.7c2.4,1,3.5,3.8,2.4,6.2C1028.6,279.8,1026.9,280.8,1025.1,280.8z"/>
	</g>
	<g>
		<path class="st0" d="M1378.3,15.8c-0.6,0-1.1-0.2-1.6-0.5c-1.5-0.9-1.9-2.8-1-4.3l23.1-37.5l9.4-55.9c0.3-1.7,1.9-2.9,3.6-2.6
			c1.7,0.3,2.9,1.9,2.6,3.6l-9.6,57.1L1381,14.3C1380.4,15.2,1379.4,15.8,1378.3,15.8z"/>
	</g>
	<g>
		<path class="st0" d="M1294.9,9.1c-0.8,0-1.5-0.3-2.1-0.8l-42.6-38.9c-1.3-1.2-1.4-3.2-0.2-4.4c1.2-1.3,3.1-1.4,4.4-0.2L1297,3.7
			c1.3,1.2,1.4,3.2,0.2,4.4C1296.6,8.8,1295.8,9.1,1294.9,9.1z"/>
	</g>
	<g>
		<path class="st0" d="M1423.4,55.9c-1.1,0-2.2-0.6-2.8-1.7l-18-34.7l-43-6.6l-29.3-35.4c-1.1-1.3-0.9-3.3,0.4-4.4
			c1.3-1.1,3.3-0.9,4.4,0.4L1363,7.1l43.7,6.7l19.5,37.5c0.8,1.5,0.2,3.4-1.3,4.2C1424.4,55.8,1423.9,55.9,1423.4,55.9z"/>
	</g>
	<g>
		<path class="st3" d="M1552.1-64.8"/>
	</g>
	<g>
		<path class="st0" d="M1375.8,278.7c-0.2,0-0.5,0-0.7-0.1c-1.7-0.4-2.7-2.1-2.3-3.8l14.2-58.5l-7.4-47.9l0.2-0.6l28.8-110.1
			l60-34.3l25.7-38.6l22.3-61.6c0.6-1.6,2.4-2.5,4-1.9c1.6,0.6,2.5,2.4,1.9,4l-22.6,62.3L1472.9,28l-59,33.8L1386,168.7l7.3,47.9
			l-14.5,59.7C1378.5,277.7,1377.2,278.7,1375.8,278.7z"/>
	</g>
	<g>
		<path class="st0" d="M1440.3,135.8c-0.9,0-1.8-0.4-2.4-1.2c-1.1-1.3-0.9-3.3,0.5-4.4l49.1-39.6l20.3-94.1c0.4-1.7,2-2.8,3.7-2.4
			c1.7,0.4,2.8,2,2.4,3.7l-20.8,96.3l-50.9,41C1441.7,135.6,1441,135.8,1440.3,135.8z"/>
	</g>
	<g>
		<path class="st0" d="M1465.2,754.7c-0.1,0-0.2,0-0.3,0c-1.7-0.2-3-1.7-2.8-3.4l4.3-49.1l24.8-46l20.5-47.8
			c0.7-1.6,2.5-2.3,4.1-1.6c1.6,0.7,2.3,2.5,1.6,4.1l-20.7,48.2l-24.2,45l-4.2,47.8C1468.2,753.5,1466.8,754.7,1465.2,754.7z"/>
	</g>
	<g>
		<path class="st0" d="M1378.3,756.9c-0.2,0-0.4,0-0.5,0c-1.7-0.3-2.8-1.9-2.5-3.6l13-73.9l72-37.2l30.9-39.7l16.7-83
			c0.3-1.7,2-2.8,3.7-2.5c1.7,0.3,2.8,2,2.5,3.7l-17,84.4l-32.7,41.9l-70.4,36.4l-12.4,70.9C1381.1,755.9,1379.8,756.9,1378.3,756.9
			z"/>
	</g>
	<g>
		<path class="st3" d="M1485.3,404.8"/>
	</g>
	<g>
		<path class="st0" d="M1429.7,676.3c-1.2,0-2.3-0.7-2.9-1.9l-18.7-42l-0.1-0.5l-4.8-45.1l-26.8-20.1c-1.4-1-1.7-3-0.6-4.4
			c1-1.4,3-1.7,4.4-0.6l29,21.8l5.1,47.3l18.3,41.1c0.7,1.6,0,3.4-1.6,4.1C1430.6,676.2,1430.2,676.3,1429.7,676.3z"/>
	</g>
	<g>
		<path class="st0" d="M1385.7,714.6c-1.3,0-2.5-0.8-3-2.1l-15-44.7l-50.3-40.8c-1.3-1.1-1.6-3.1-0.5-4.4c1.1-1.3,3.1-1.6,4.4-0.5
			l51.8,42l15.6,46.4c0.6,1.6-0.3,3.4-2,4C1386.4,714.5,1386.1,714.6,1385.7,714.6z"/>
	</g>
	<g>
		<path class="st0" d="M1370.4,669c-1.1,0-2.2-0.6-2.8-1.6l-27-49.3l-0.1-0.2l-18-49.6c-0.6-1.6,0.2-3.4,1.9-4
			c1.6-0.6,3.4,0.2,4,1.9l17.9,49.3l26.8,48.9c0.8,1.5,0.3,3.4-1.2,4.3C1371.4,668.9,1370.9,669,1370.4,669z"/>
	</g>
	<g>
		<path class="st0" d="M1324,556.7c-0.6,0-1.2-0.2-1.8-0.6c-1.4-1-1.8-2.9-0.8-4.4l28.2-40.5l19.4-110.2c0.3-1.7,1.9-2.8,3.6-2.5
			c1.7,0.3,2.8,1.9,2.5,3.6l-19.7,111.6l-29,41.6C1325.9,556.2,1325,556.7,1324,556.7z"/>
	</g>
	<g>
		<path class="st0" d="M1238.2,342.3c-0.5,0-1-0.1-1.4-0.4c-1.5-0.8-2.1-2.7-1.3-4.2l35.8-69.2v-98c0-1.7,1.4-3.1,3.1-3.1
			s3.1,1.4,3.1,3.1v99.6l-36.5,70.5C1240.4,341.7,1239.3,342.3,1238.2,342.3z"/>
	</g>
	<g>
		<path class="st0" d="M1262,296.3c-1.2,0-2.4-0.7-2.9-1.9l-18.1-41.8l-0.1-0.3l-16.5-66.1c-0.4-1.7,0.6-3.4,2.3-3.8
			c1.7-0.4,3.4,0.6,3.8,2.3l16.4,65.9l17.9,41.3c0.7,1.6,0,3.4-1.6,4.1C1262.8,296.2,1262.4,296.3,1262,296.3z"/>
	</g>
	<g>
		<path class="st0" d="M1220.5,759.7c-0.5,0-1-0.1-1.4-0.4c-1.5-0.8-2.1-2.7-1.3-4.2l68.9-132.4v-87.3c0-1.7,1.4-3.1,3.1-3.1
			s3.1,1.4,3.1,3.1v88.8l-69.6,133.7C1222.8,759.1,1221.7,759.7,1220.5,759.7z"/>
	</g>
	<g>
		<path class="st0" d="M1435.3,393c-0.9,0-1.7-0.4-2.3-1.1l-80.2-90.3l-0.2-0.6l-42.2-122.8l-45-46.1c-1.2-1.2-1.2-3.2,0.1-4.4
			c1.2-1.2,3.2-1.2,4.4,0.1l46,47.1l0.2,0.7l42.2,122.9l79.3,89.4c1.1,1.3,1,3.3-0.3,4.4C1436.8,392.7,1436.1,393,1435.3,393z"/>
	</g>
	<g>
		<path class="st1" d="M1398.7,444.2c-1.6,0-3.1-0.8-4-2.2l-38.1-61.5l21.2-83.1L1337,193.9c-1-2.4,0.2-5.1,2.6-6.1
			c2.4-1,5.1,0.2,6.1,2.6l42,106.3l-21,82.1l36,58.1c1.4,2.2,0.7,5.1-1.5,6.5C1400.4,444,1399.6,444.2,1398.7,444.2z"/>
	</g>
	<g>
		<path class="st0" d="M1504.1,556.7c-1.1,0-2.2-0.6-2.8-1.6l-28.1-51.5l-29.9-36.5c-1.1-1.3-0.9-3.3,0.4-4.4s3.3-0.9,4.4,0.4
			l30.3,36.9l0.1,0.3l28.2,51.7c0.8,1.5,0.3,3.4-1.2,4.3C1505.1,556.6,1504.6,556.7,1504.1,556.7z"/>
	</g>
	<g>
		<path class="st1" d="M1529.2,481c-0.9,0-1.9-0.4-2.5-1.2l-35.4-45.5c-1.1-1.4-0.8-3.3,0.6-4.4c1.4-1.1,3.3-0.8,4.4,0.6l35.4,45.5
			c1.1,1.4,0.8,3.3-0.6,4.4C1530.5,480.8,1529.9,481,1529.2,481z"/>
	</g>
	<g>
		<path class="st1" d="M1257.8,430.4c-0.8,0-1.6-0.3-2.2-0.9c-1.2-1.2-1.3-3.2-0.1-4.4l21.3-22.2l25.5-42.1c0.9-1.5,2.8-2,4.3-1.1
			c1.5,0.9,2,2.8,1.1,4.3l-25.9,42.7l-21.8,22.7C1259.4,430.1,1258.6,430.4,1257.8,430.4z"/>
	</g>
	<g>
		<path class="st1" d="M1268.2,724c-1,0-1.9-0.4-2.5-1.3c-1-1.4-0.7-3.4,0.7-4.4l29-21.3l25.2-31.1c1.1-1.3,3.1-1.5,4.4-0.5
			c1.3,1.1,1.5,3.1,0.5,4.4l-25.7,31.7l-29.6,21.8C1269.5,723.8,1268.8,724,1268.2,724z"/>
	</g>
	<g>
		<path class="st1" d="M1267.3,121.1c-0.6,0-1.1-0.1-1.6-0.5c-1.5-0.9-1.9-2.8-1-4.3l23-37.7l43.8-21.7c1.5-0.8,3.4-0.1,4.2,1.4
			c0.8,1.6,0.1,3.4-1.4,4.2L1292,83.5l-22,36.1C1269.4,120.6,1268.3,121.1,1267.3,121.1z"/>
	</g>
	<g>
		<path class="st1" d="M1337.9,135.8c-0.7,0-1.5-0.3-2.1-0.8c-1.3-1.1-1.4-3.1-0.3-4.4l32-36.3l14.1-50.3c0.5-1.7,2.2-2.6,3.9-2.2
			c1.7,0.5,2.6,2.2,2.2,3.9l-14.5,51.7l-32.9,37.4C1339.7,135.5,1338.8,135.8,1337.9,135.8z"/>
	</g>
	<g>
		<path class="st0" d="M1402.2,355.7c-0.5,0-1.1-0.1-1.6-0.4c-1.5-0.9-2-2.8-1.1-4.3l50.8-84.8l0.3-0.3l81.6-75.1l6.3-47.6
			c0.2-1.7,1.8-2.9,3.5-2.7c1.7,0.2,2.9,1.8,2.7,3.5l-6.6,49.9l-82.9,76.4l-50.4,84C1404.3,355.1,1403.3,355.7,1402.2,355.7z"/>
	</g>
	<g>
		<path class="st0" d="M1510.8,217.8c-0.2,0-0.4,0-0.6-0.1l-40.2-7.9l-31.2-51.9c-0.9-1.5-0.4-3.4,1.1-4.3c1.5-0.9,3.4-0.4,4.3,1.1
			l29.7,49.5l37.5,7.3c1.7,0.3,2.8,2,2.5,3.7C1513.6,216.8,1512.3,217.8,1510.8,217.8z"/>
	</g>
	<g>
		<path class="st0" d="M1465.2,492c-0.2,0-0.5,0-0.7-0.1c-1.7-0.4-2.7-2.1-2.3-3.8l20.2-84.5l33.9-54.5l-5.9-93
			c-0.1-1.7,1.2-3.2,2.9-3.3c1.7-0.1,3.2,1.2,3.3,2.9l6.1,95l-34.4,55.3l-20,83.5C1467.9,491,1466.6,492,1465.2,492z"/>
	</g>
	<g>
		<path class="st1" d="M1434,760.6c-2.3,0-4.3-1.7-4.6-4L1423,712l4.5-86.3l0-90.6l6.3-96.3l40.4-148.6c0.7-2.5,3.3-4,5.8-3.3
			c2.5,0.7,4,3.3,3.3,5.8l-40.2,147.7l-6.2,95.2l0,90.6l-4.5,85.5l6.2,43.7c0.4,2.6-1.4,5-4,5.3
			C1434.4,760.6,1434.2,760.6,1434,760.6z"/>
	</g>
	<g>
		<path class="st1" d="M1478.8,296.1c-0.2,0-0.4,0-0.6,0c-2.6-0.4-4.4-2.7-4-5.3l20.8-151.3l21.3-28.4V81.8l0-0.3L1527-1.8
			c0.3-2.6,2.7-4.4,5.3-4.1c2.6,0.3,4.4,2.7,4.1,5.3l-10.7,83v31.7l-21.7,28.9L1483.4,292C1483.1,294.3,1481.1,296.1,1478.8,296.1z"
			/>
	</g>
	<g>
		<path class="st1" d="M1438.5,444.2c-2.5,0-4.5-1.9-4.7-4.4l-7.2-113l-3.6-90.2l16.7-25.9l-4-77.5l-6.3-32l6.3-90.5l-12.6-68.3
			l3.4-19.1c0.5-2.6,2.9-4.3,5.5-3.8c2.6,0.5,4.3,2.9,3.8,5.5l-3.1,17.4l12.5,67.8l-6.3,90.4l6.2,31.5l4.2,81.2l-16.7,26l3.5,87.1
			l7.2,112.8c0.2,2.6-1.8,4.8-4.4,5C1438.7,444.2,1438.6,444.2,1438.5,444.2z"/>
	</g>
	<g>
		<path class="st1" d="M1427.7,242.7c-2.1,0-3.9-1.4-4.5-3.4L1389,118.6l0-0.4L1371-28.6l7.1-48c0.4-2.6,2.8-4.3,5.3-4
			c2.6,0.4,4.3,2.8,4,5.3l-6.9,46.7l17.7,145.1l34,120c0.7,2.5-0.7,5.1-3.2,5.8C1428.6,242.6,1428.1,242.7,1427.7,242.7z"/>
	</g>
	<g>
		<path class="st1" d="M1327,756.3c-2.6,0-4.7-2.1-4.7-4.7v-36.1l-4-70.9l4-64.4l-16.7-148.6l21.2-52.3l4.9-95.9l7.1-131.2
			l-10.7-36.2V-24.2l-6.3-51.1c-0.3-2.6,1.5-4.9,4.1-5.2c2.6-0.3,4.9,1.5,5.2,4.1l6.4,51.7v139.3l10.8,36.5l-7.2,132.8l-5,97.5
			l-20.9,51.6l16.5,147l0,0.4l-4,64.2l4,70.7v36.2C1331.7,754.2,1329.6,756.3,1327,756.3z"/>
	</g>
	<g>
		<path class="st1" d="M1332.8,43.8c-1.8,0-3.5-1-4.3-2.8l-45.9-100.7l-3.6-15.1c-0.6-2.5,1-5.1,3.5-5.7c2.5-0.6,5.1,0.9,5.7,3.5
			l3.4,14.2l45.5,99.9c1.1,2.4,0,5.2-2.3,6.2C1334.1,43.7,1333.4,43.8,1332.8,43.8z"/>
	</g>
	<g>
		<path class="st1" d="M1404.7,756.3c-2.4,0-4.4-1.8-4.7-4.3l-5.6-59.9l-23.4-71.1l0-0.9l7-156.3l29.1-47.1c1.4-2.2,4.3-2.9,6.5-1.5
			c2.2,1.4,2.9,4.3,1.5,6.5l-27.8,45l-6.9,153l23.2,70.4l5.7,60.9c0.2,2.6-1.7,4.9-4.2,5.1C1405,756.3,1404.8,756.3,1404.7,756.3z"
			/>
	</g>
	<g>
		<path class="st1" d="M1310.4,437c-2.4,0-4.5-1.9-4.7-4.3l-5.4-70.2v-70.6l-52.8-228l5.3-66.6l-13.1-74.9c-0.4-2.6,1.3-5,3.8-5.4
			c2.6-0.4,5,1.3,5.4,3.8l13.3,76.1l-5.3,66.4l52.7,227.6v71.5l5.4,69.7c0.2,2.6-1.7,4.8-4.3,5C1310.6,437,1310.5,437,1310.4,437z"
			/>
	</g>
	<g>
		<path class="st1" d="M1322.9,649.3c-2.1,0-3.9-1.4-4.5-3.4l-26.7-96.3l-25.2-49.4l-21.6-116.4l-22-67.3c-0.8-2.5,0.5-5.1,3-5.9
			c2.5-0.8,5.1,0.5,5.9,3l22.2,67.9l0.1,0.3l21.4,115.4l25,49.1l27,97.2c0.7,2.5-0.8,5.1-3.3,5.8
			C1323.8,649.2,1323.3,649.3,1322.9,649.3z"/>
	</g>
	<g>
		<path class="st1" d="M1281.4,756.8c-1.8,0-3.6-1.1-4.3-2.9l-18.8-44.6v-92l-35.4-121.1c-0.7-2.5,0.7-5.1,3.2-5.8
			c2.5-0.7,5.1,0.7,5.8,3.2l35.8,122.4v91.4l18.1,42.8c1,2.4-0.1,5.2-2.5,6.2C1282.6,756.7,1282,756.8,1281.4,756.8z"/>
	</g>
	<g>
		<path class="st1" d="M1541.5,664.5c-1.7,0-3.3-0.9-4.1-2.5l-26.3-48.9l-35.7-19.6l-71.5-111.2c-1.4-2.2-0.8-5.1,1.4-6.5
			c2.2-1.4,5.1-0.8,6.5,1.4l70.3,109.2l36,19.8l27.6,51.4c1.2,2.3,0.4,5.1-1.9,6.4C1543,664.3,1542.3,664.5,1541.5,664.5z"/>
	</g>
	<g>
		<path class="st1" d="M1378.1,518.5c-1.7,0-3.3-0.9-4.1-2.5l-40.2-74.9c-1.2-2.3-0.4-5.1,1.9-6.4c2.3-1.2,5.1-0.4,6.4,1.9
			l40.2,74.9c1.2,2.3,0.4,5.1-1.9,6.4C1379.6,518.3,1378.8,518.5,1378.1,518.5z"/>
	</g>
	<g>
		<path class="st1" d="M1436.1,480.3c-1.4,0-2.8-0.6-3.7-1.8c-1.6-2.1-1.2-5,0.8-6.6l104.2-80.8c2.1-1.6,5-1.2,6.6,0.8
			c1.6,2.1,1.2,5-0.8,6.6L1439,479.3C1438.1,480,1437.1,480.3,1436.1,480.3z"/>
	</g>
	<g>
		<path class="st2" d="M1552.1,340"/>
	</g>
	<g>
		<path class="st3" d="M1452.8,462.7"/>
	</g>
	<g>
		<path class="st3" d="M1550.2,370"/>
	</g>
	<g>
		<path class="st1" d="M1547.5,442c-1.1,0-2.1-0.5-2.7-1.5l-76.4-123.9c-0.9-1.5-0.5-3.4,1-4.3c1.5-0.9,3.4-0.5,4.3,1l76.4,123.9
			c0.9,1.5,0.5,3.4-1,4.3C1548.6,441.9,1548.1,442,1547.5,442z"/>
	</g>
</g>
</svg>
